<?xml version="1.0" encoding="utf-8" standalone="no"?>
<!DOCTYPE svg PUBLIC "-//W3C//DTD SVG 1.1//EN"
  "http://www.w3.org/Graphics/SVG/1.1/DTD/svg11.dtd">
<svg xmlns:xlink="http://www.w3.org/1999/xlink" width="864pt" height="432pt" viewBox="0 0 864 432" xmlns="http://www.w3.org/2000/svg" version="1.1">
 <metadata>
  <rdf:RDF xmlns:dc="http://purl.org/dc/elements/1.1/" xmlns:cc="http://creativecommons.org/ns#" xmlns:rdf="http://www.w3.org/1999/02/22-rdf-syntax-ns#">
   <cc:Work>
    <dc:type rdf:resource="http://purl.org/dc/dcmitype/StillImage"/>
    <dc:date>2025-04-17T16:05:44.189418</dc:date>
    <dc:format>image/svg+xml</dc:format>
    <dc:creator>
     <cc:Agent>
      <dc:title>Matplotlib v3.9.2, https://matplotlib.org/</dc:title>
     </cc:Agent>
    </dc:creator>
   </cc:Work>
  </rdf:RDF>
 </metadata>
 <defs>
  <style type="text/css">*{stroke-linejoin: round; stroke-linecap: butt}</style>
 </defs>
 <g id="figure_1">
  <g id="patch_1">
   <path d="M 0 432 
L 864 432 
L 864 0 
L 0 0 
z
" style="fill: #ffffff"/>
  </g>
  <g id="axes_1">
   <g id="patch_2">
    <path d="M 108 384.48 
L 777.6 384.48 
L 777.6 51.84 
L 108 51.84 
z
" style="fill: #ffffff"/>
   </g>
   <g id="matplotlib.axis_1">
    <g id="xtick_1">
     <g id="line2d_1">
      <defs>
       <path id="m921f650531" d="M 0 0 
L 0 3.5 
" style="stroke: #000000; stroke-width: 0.8"/>
      </defs>
      <g>
       <use xlink:href="#m921f650531" x="138.436364" y="384.48" style="stroke: #000000; stroke-width: 0.8"/>
      </g>
     </g>
     <g id="text_1">
      <!-- 0 -->
      <g transform="translate(135.255114 399.078438) scale(0.1 -0.1)">
       <defs>
        <path id="DejaVuSans-30" d="M 2034 4250 
Q 1547 4250 1301 3770 
Q 1056 3291 1056 2328 
Q 1056 1369 1301 889 
Q 1547 409 2034 409 
Q 2525 409 2770 889 
Q 3016 1369 3016 2328 
Q 3016 3291 2770 3770 
Q 2525 4250 2034 4250 
z
M 2034 4750 
Q 2819 4750 3233 4129 
Q 3647 3509 3647 2328 
Q 3647 1150 3233 529 
Q 2819 -91 2034 -91 
Q 1250 -91 836 529 
Q 422 1150 422 2328 
Q 422 3509 836 4129 
Q 1250 4750 2034 4750 
z
" transform="scale(0.015625)"/>
       </defs>
       <use xlink:href="#DejaVuSans-30"/>
      </g>
     </g>
    </g>
    <g id="xtick_2">
     <g id="line2d_2">
      <g>
       <use xlink:href="#m921f650531" x="259.629179" y="384.48" style="stroke: #000000; stroke-width: 0.8"/>
      </g>
     </g>
     <g id="text_2">
      <!-- 5 -->
      <g transform="translate(256.447929 399.078438) scale(0.1 -0.1)">
       <defs>
        <path id="DejaVuSans-35" d="M 691 4666 
L 3169 4666 
L 3169 4134 
L 1269 4134 
L 1269 2991 
Q 1406 3038 1543 3061 
Q 1681 3084 1819 3084 
Q 2600 3084 3056 2656 
Q 3513 2228 3513 1497 
Q 3513 744 3044 326 
Q 2575 -91 1722 -91 
Q 1428 -91 1123 -41 
Q 819 9 494 109 
L 494 744 
Q 775 591 1075 516 
Q 1375 441 1709 441 
Q 2250 441 2565 725 
Q 2881 1009 2881 1497 
Q 2881 1984 2565 2268 
Q 2250 2553 1709 2553 
Q 1456 2553 1204 2497 
Q 953 2441 691 2322 
L 691 4666 
z
" transform="scale(0.015625)"/>
       </defs>
       <use xlink:href="#DejaVuSans-35"/>
      </g>
     </g>
    </g>
    <g id="xtick_3">
     <g id="line2d_3">
      <g>
       <use xlink:href="#m921f650531" x="380.821994" y="384.48" style="stroke: #000000; stroke-width: 0.8"/>
      </g>
     </g>
     <g id="text_3">
      <!-- 10 -->
      <g transform="translate(374.459494 399.078438) scale(0.1 -0.1)">
       <defs>
        <path id="DejaVuSans-31" d="M 794 531 
L 1825 531 
L 1825 4091 
L 703 3866 
L 703 4441 
L 1819 4666 
L 2450 4666 
L 2450 531 
L 3481 531 
L 3481 0 
L 794 0 
L 794 531 
z
" transform="scale(0.015625)"/>
       </defs>
       <use xlink:href="#DejaVuSans-31"/>
       <use xlink:href="#DejaVuSans-30" x="63.623047"/>
      </g>
     </g>
    </g>
    <g id="xtick_4">
     <g id="line2d_4">
      <g>
       <use xlink:href="#m921f650531" x="502.01481" y="384.48" style="stroke: #000000; stroke-width: 0.8"/>
      </g>
     </g>
     <g id="text_4">
      <!-- 15 -->
      <g transform="translate(495.65231 399.078438) scale(0.1 -0.1)">
       <use xlink:href="#DejaVuSans-31"/>
       <use xlink:href="#DejaVuSans-35" x="63.623047"/>
      </g>
     </g>
    </g>
    <g id="xtick_5">
     <g id="line2d_5">
      <g>
       <use xlink:href="#m921f650531" x="623.207625" y="384.48" style="stroke: #000000; stroke-width: 0.8"/>
      </g>
     </g>
     <g id="text_5">
      <!-- 20 -->
      <g transform="translate(616.845125 399.078438) scale(0.1 -0.1)">
       <defs>
        <path id="DejaVuSans-32" d="M 1228 531 
L 3431 531 
L 3431 0 
L 469 0 
L 469 531 
Q 828 903 1448 1529 
Q 2069 2156 2228 2338 
Q 2531 2678 2651 2914 
Q 2772 3150 2772 3378 
Q 2772 3750 2511 3984 
Q 2250 4219 1831 4219 
Q 1534 4219 1204 4116 
Q 875 4013 500 3803 
L 500 4441 
Q 881 4594 1212 4672 
Q 1544 4750 1819 4750 
Q 2544 4750 2975 4387 
Q 3406 4025 3406 3419 
Q 3406 3131 3298 2873 
Q 3191 2616 2906 2266 
Q 2828 2175 2409 1742 
Q 1991 1309 1228 531 
z
" transform="scale(0.015625)"/>
       </defs>
       <use xlink:href="#DejaVuSans-32"/>
       <use xlink:href="#DejaVuSans-30" x="63.623047"/>
      </g>
     </g>
    </g>
    <g id="xtick_6">
     <g id="line2d_6">
      <g>
       <use xlink:href="#m921f650531" x="744.40044" y="384.48" style="stroke: #000000; stroke-width: 0.8"/>
      </g>
     </g>
     <g id="text_6">
      <!-- 25 -->
      <g transform="translate(738.03794 399.078438) scale(0.1 -0.1)">
       <use xlink:href="#DejaVuSans-32"/>
       <use xlink:href="#DejaVuSans-35" x="63.623047"/>
      </g>
     </g>
    </g>
    <g id="text_7">
     <!-- Timestamp (seconds) -->
     <g transform="translate(388.964844 412.756563) scale(0.1 -0.1)">
      <defs>
       <path id="DejaVuSans-54" d="M -19 4666 
L 3928 4666 
L 3928 4134 
L 2272 4134 
L 2272 0 
L 1638 0 
L 1638 4134 
L -19 4134 
L -19 4666 
z
" transform="scale(0.015625)"/>
       <path id="DejaVuSans-69" d="M 603 3500 
L 1178 3500 
L 1178 0 
L 603 0 
L 603 3500 
z
M 603 4863 
L 1178 4863 
L 1178 4134 
L 603 4134 
L 603 4863 
z
" transform="scale(0.015625)"/>
       <path id="DejaVuSans-6d" d="M 3328 2828 
Q 3544 3216 3844 3400 
Q 4144 3584 4550 3584 
Q 5097 3584 5394 3201 
Q 5691 2819 5691 2113 
L 5691 0 
L 5113 0 
L 5113 2094 
Q 5113 2597 4934 2840 
Q 4756 3084 4391 3084 
Q 3944 3084 3684 2787 
Q 3425 2491 3425 1978 
L 3425 0 
L 2847 0 
L 2847 2094 
Q 2847 2600 2669 2842 
Q 2491 3084 2119 3084 
Q 1678 3084 1418 2786 
Q 1159 2488 1159 1978 
L 1159 0 
L 581 0 
L 581 3500 
L 1159 3500 
L 1159 2956 
Q 1356 3278 1631 3431 
Q 1906 3584 2284 3584 
Q 2666 3584 2933 3390 
Q 3200 3197 3328 2828 
z
" transform="scale(0.015625)"/>
       <path id="DejaVuSans-65" d="M 3597 1894 
L 3597 1613 
L 953 1613 
Q 991 1019 1311 708 
Q 1631 397 2203 397 
Q 2534 397 2845 478 
Q 3156 559 3463 722 
L 3463 178 
Q 3153 47 2828 -22 
Q 2503 -91 2169 -91 
Q 1331 -91 842 396 
Q 353 884 353 1716 
Q 353 2575 817 3079 
Q 1281 3584 2069 3584 
Q 2775 3584 3186 3129 
Q 3597 2675 3597 1894 
z
M 3022 2063 
Q 3016 2534 2758 2815 
Q 2500 3097 2075 3097 
Q 1594 3097 1305 2825 
Q 1016 2553 972 2059 
L 3022 2063 
z
" transform="scale(0.015625)"/>
       <path id="DejaVuSans-73" d="M 2834 3397 
L 2834 2853 
Q 2591 2978 2328 3040 
Q 2066 3103 1784 3103 
Q 1356 3103 1142 2972 
Q 928 2841 928 2578 
Q 928 2378 1081 2264 
Q 1234 2150 1697 2047 
L 1894 2003 
Q 2506 1872 2764 1633 
Q 3022 1394 3022 966 
Q 3022 478 2636 193 
Q 2250 -91 1575 -91 
Q 1294 -91 989 -36 
Q 684 19 347 128 
L 347 722 
Q 666 556 975 473 
Q 1284 391 1588 391 
Q 1994 391 2212 530 
Q 2431 669 2431 922 
Q 2431 1156 2273 1281 
Q 2116 1406 1581 1522 
L 1381 1569 
Q 847 1681 609 1914 
Q 372 2147 372 2553 
Q 372 3047 722 3315 
Q 1072 3584 1716 3584 
Q 2034 3584 2315 3537 
Q 2597 3491 2834 3397 
z
" transform="scale(0.015625)"/>
       <path id="DejaVuSans-74" d="M 1172 4494 
L 1172 3500 
L 2356 3500 
L 2356 3053 
L 1172 3053 
L 1172 1153 
Q 1172 725 1289 603 
Q 1406 481 1766 481 
L 2356 481 
L 2356 0 
L 1766 0 
Q 1100 0 847 248 
Q 594 497 594 1153 
L 594 3053 
L 172 3053 
L 172 3500 
L 594 3500 
L 594 4494 
L 1172 4494 
z
" transform="scale(0.015625)"/>
       <path id="DejaVuSans-61" d="M 2194 1759 
Q 1497 1759 1228 1600 
Q 959 1441 959 1056 
Q 959 750 1161 570 
Q 1363 391 1709 391 
Q 2188 391 2477 730 
Q 2766 1069 2766 1631 
L 2766 1759 
L 2194 1759 
z
M 3341 1997 
L 3341 0 
L 2766 0 
L 2766 531 
Q 2569 213 2275 61 
Q 1981 -91 1556 -91 
Q 1019 -91 701 211 
Q 384 513 384 1019 
Q 384 1609 779 1909 
Q 1175 2209 1959 2209 
L 2766 2209 
L 2766 2266 
Q 2766 2663 2505 2880 
Q 2244 3097 1772 3097 
Q 1472 3097 1187 3025 
Q 903 2953 641 2809 
L 641 3341 
Q 956 3463 1253 3523 
Q 1550 3584 1831 3584 
Q 2591 3584 2966 3190 
Q 3341 2797 3341 1997 
z
" transform="scale(0.015625)"/>
       <path id="DejaVuSans-70" d="M 1159 525 
L 1159 -1331 
L 581 -1331 
L 581 3500 
L 1159 3500 
L 1159 2969 
Q 1341 3281 1617 3432 
Q 1894 3584 2278 3584 
Q 2916 3584 3314 3078 
Q 3713 2572 3713 1747 
Q 3713 922 3314 415 
Q 2916 -91 2278 -91 
Q 1894 -91 1617 61 
Q 1341 213 1159 525 
z
M 3116 1747 
Q 3116 2381 2855 2742 
Q 2594 3103 2138 3103 
Q 1681 3103 1420 2742 
Q 1159 2381 1159 1747 
Q 1159 1113 1420 752 
Q 1681 391 2138 391 
Q 2594 391 2855 752 
Q 3116 1113 3116 1747 
z
" transform="scale(0.015625)"/>
       <path id="DejaVuSans-20" transform="scale(0.015625)"/>
       <path id="DejaVuSans-28" d="M 1984 4856 
Q 1566 4138 1362 3434 
Q 1159 2731 1159 2009 
Q 1159 1288 1364 580 
Q 1569 -128 1984 -844 
L 1484 -844 
Q 1016 -109 783 600 
Q 550 1309 550 2009 
Q 550 2706 781 3412 
Q 1013 4119 1484 4856 
L 1984 4856 
z
" transform="scale(0.015625)"/>
       <path id="DejaVuSans-63" d="M 3122 3366 
L 3122 2828 
Q 2878 2963 2633 3030 
Q 2388 3097 2138 3097 
Q 1578 3097 1268 2742 
Q 959 2388 959 1747 
Q 959 1106 1268 751 
Q 1578 397 2138 397 
Q 2388 397 2633 464 
Q 2878 531 3122 666 
L 3122 134 
Q 2881 22 2623 -34 
Q 2366 -91 2075 -91 
Q 1284 -91 818 406 
Q 353 903 353 1747 
Q 353 2603 823 3093 
Q 1294 3584 2113 3584 
Q 2378 3584 2631 3529 
Q 2884 3475 3122 3366 
z
" transform="scale(0.015625)"/>
       <path id="DejaVuSans-6f" d="M 1959 3097 
Q 1497 3097 1228 2736 
Q 959 2375 959 1747 
Q 959 1119 1226 758 
Q 1494 397 1959 397 
Q 2419 397 2687 759 
Q 2956 1122 2956 1747 
Q 2956 2369 2687 2733 
Q 2419 3097 1959 3097 
z
M 1959 3584 
Q 2709 3584 3137 3096 
Q 3566 2609 3566 1747 
Q 3566 888 3137 398 
Q 2709 -91 1959 -91 
Q 1206 -91 779 398 
Q 353 888 353 1747 
Q 353 2609 779 3096 
Q 1206 3584 1959 3584 
z
" transform="scale(0.015625)"/>
       <path id="DejaVuSans-6e" d="M 3513 2113 
L 3513 0 
L 2938 0 
L 2938 2094 
Q 2938 2591 2744 2837 
Q 2550 3084 2163 3084 
Q 1697 3084 1428 2787 
Q 1159 2491 1159 1978 
L 1159 0 
L 581 0 
L 581 3500 
L 1159 3500 
L 1159 2956 
Q 1366 3272 1645 3428 
Q 1925 3584 2291 3584 
Q 2894 3584 3203 3211 
Q 3513 2838 3513 2113 
z
" transform="scale(0.015625)"/>
       <path id="DejaVuSans-64" d="M 2906 2969 
L 2906 4863 
L 3481 4863 
L 3481 0 
L 2906 0 
L 2906 525 
Q 2725 213 2448 61 
Q 2172 -91 1784 -91 
Q 1150 -91 751 415 
Q 353 922 353 1747 
Q 353 2572 751 3078 
Q 1150 3584 1784 3584 
Q 2172 3584 2448 3432 
Q 2725 3281 2906 2969 
z
M 947 1747 
Q 947 1113 1208 752 
Q 1469 391 1925 391 
Q 2381 391 2643 752 
Q 2906 1113 2906 1747 
Q 2906 2381 2643 2742 
Q 2381 3103 1925 3103 
Q 1469 3103 1208 2742 
Q 947 2381 947 1747 
z
" transform="scale(0.015625)"/>
       <path id="DejaVuSans-29" d="M 513 4856 
L 1013 4856 
Q 1481 4119 1714 3412 
Q 1947 2706 1947 2009 
Q 1947 1309 1714 600 
Q 1481 -109 1013 -844 
L 513 -844 
Q 928 -128 1133 580 
Q 1338 1288 1338 2009 
Q 1338 2731 1133 3434 
Q 928 4138 513 4856 
z
" transform="scale(0.015625)"/>
      </defs>
      <use xlink:href="#DejaVuSans-54"/>
      <use xlink:href="#DejaVuSans-69" x="57.958984"/>
      <use xlink:href="#DejaVuSans-6d" x="85.742188"/>
      <use xlink:href="#DejaVuSans-65" x="183.154297"/>
      <use xlink:href="#DejaVuSans-73" x="244.677734"/>
      <use xlink:href="#DejaVuSans-74" x="296.777344"/>
      <use xlink:href="#DejaVuSans-61" x="335.986328"/>
      <use xlink:href="#DejaVuSans-6d" x="397.265625"/>
      <use xlink:href="#DejaVuSans-70" x="494.677734"/>
      <use xlink:href="#DejaVuSans-20" x="558.154297"/>
      <use xlink:href="#DejaVuSans-28" x="589.941406"/>
      <use xlink:href="#DejaVuSans-73" x="628.955078"/>
      <use xlink:href="#DejaVuSans-65" x="681.054688"/>
      <use xlink:href="#DejaVuSans-63" x="742.578125"/>
      <use xlink:href="#DejaVuSans-6f" x="797.558594"/>
      <use xlink:href="#DejaVuSans-6e" x="858.740234"/>
      <use xlink:href="#DejaVuSans-64" x="922.119141"/>
      <use xlink:href="#DejaVuSans-73" x="985.595703"/>
      <use xlink:href="#DejaVuSans-29" x="1037.695312"/>
     </g>
    </g>
   </g>
   <g id="matplotlib.axis_2">
    <g id="ytick_1">
     <g id="line2d_7">
      <defs>
       <path id="ma71cf6bbd5" d="M 0 0 
L -3.5 0 
" style="stroke: #000000; stroke-width: 0.8"/>
      </defs>
      <g>
       <use xlink:href="#ma71cf6bbd5" x="108" y="368.102722" style="stroke: #000000; stroke-width: 0.8"/>
      </g>
     </g>
     <g id="text_8">
      <!-- 12.5 -->
      <g transform="translate(78.734375 371.90194) scale(0.1 -0.1)">
       <defs>
        <path id="DejaVuSans-2e" d="M 684 794 
L 1344 794 
L 1344 0 
L 684 0 
L 684 794 
z
" transform="scale(0.015625)"/>
       </defs>
       <use xlink:href="#DejaVuSans-31"/>
       <use xlink:href="#DejaVuSans-32" x="63.623047"/>
       <use xlink:href="#DejaVuSans-2e" x="127.246094"/>
       <use xlink:href="#DejaVuSans-35" x="159.033203"/>
      </g>
     </g>
    </g>
    <g id="ytick_2">
     <g id="line2d_8">
      <g>
       <use xlink:href="#ma71cf6bbd5" x="108" y="330.728136" style="stroke: #000000; stroke-width: 0.8"/>
      </g>
     </g>
     <g id="text_9">
      <!-- 15.0 -->
      <g transform="translate(78.734375 334.527354) scale(0.1 -0.1)">
       <use xlink:href="#DejaVuSans-31"/>
       <use xlink:href="#DejaVuSans-35" x="63.623047"/>
       <use xlink:href="#DejaVuSans-2e" x="127.246094"/>
       <use xlink:href="#DejaVuSans-30" x="159.033203"/>
      </g>
     </g>
    </g>
    <g id="ytick_3">
     <g id="line2d_9">
      <g>
       <use xlink:href="#ma71cf6bbd5" x="108" y="293.35355" style="stroke: #000000; stroke-width: 0.8"/>
      </g>
     </g>
     <g id="text_10">
      <!-- 17.5 -->
      <g transform="translate(78.734375 297.152768) scale(0.1 -0.1)">
       <defs>
        <path id="DejaVuSans-37" d="M 525 4666 
L 3525 4666 
L 3525 4397 
L 1831 0 
L 1172 0 
L 2766 4134 
L 525 4134 
L 525 4666 
z
" transform="scale(0.015625)"/>
       </defs>
       <use xlink:href="#DejaVuSans-31"/>
       <use xlink:href="#DejaVuSans-37" x="63.623047"/>
       <use xlink:href="#DejaVuSans-2e" x="127.246094"/>
       <use xlink:href="#DejaVuSans-35" x="159.033203"/>
      </g>
     </g>
    </g>
    <g id="ytick_4">
     <g id="line2d_10">
      <g>
       <use xlink:href="#ma71cf6bbd5" x="108" y="255.978964" style="stroke: #000000; stroke-width: 0.8"/>
      </g>
     </g>
     <g id="text_11">
      <!-- 20.0 -->
      <g transform="translate(78.734375 259.778182) scale(0.1 -0.1)">
       <use xlink:href="#DejaVuSans-32"/>
       <use xlink:href="#DejaVuSans-30" x="63.623047"/>
       <use xlink:href="#DejaVuSans-2e" x="127.246094"/>
       <use xlink:href="#DejaVuSans-30" x="159.033203"/>
      </g>
     </g>
    </g>
    <g id="ytick_5">
     <g id="line2d_11">
      <g>
       <use xlink:href="#ma71cf6bbd5" x="108" y="218.604378" style="stroke: #000000; stroke-width: 0.8"/>
      </g>
     </g>
     <g id="text_12">
      <!-- 22.5 -->
      <g transform="translate(78.734375 222.403596) scale(0.1 -0.1)">
       <use xlink:href="#DejaVuSans-32"/>
       <use xlink:href="#DejaVuSans-32" x="63.623047"/>
       <use xlink:href="#DejaVuSans-2e" x="127.246094"/>
       <use xlink:href="#DejaVuSans-35" x="159.033203"/>
      </g>
     </g>
    </g>
    <g id="ytick_6">
     <g id="line2d_12">
      <g>
       <use xlink:href="#ma71cf6bbd5" x="108" y="181.229792" style="stroke: #000000; stroke-width: 0.8"/>
      </g>
     </g>
     <g id="text_13">
      <!-- 25.0 -->
      <g transform="translate(78.734375 185.02901) scale(0.1 -0.1)">
       <use xlink:href="#DejaVuSans-32"/>
       <use xlink:href="#DejaVuSans-35" x="63.623047"/>
       <use xlink:href="#DejaVuSans-2e" x="127.246094"/>
       <use xlink:href="#DejaVuSans-30" x="159.033203"/>
      </g>
     </g>
    </g>
    <g id="ytick_7">
     <g id="line2d_13">
      <g>
       <use xlink:href="#ma71cf6bbd5" x="108" y="143.855206" style="stroke: #000000; stroke-width: 0.8"/>
      </g>
     </g>
     <g id="text_14">
      <!-- 27.5 -->
      <g transform="translate(78.734375 147.654424) scale(0.1 -0.1)">
       <use xlink:href="#DejaVuSans-32"/>
       <use xlink:href="#DejaVuSans-37" x="63.623047"/>
       <use xlink:href="#DejaVuSans-2e" x="127.246094"/>
       <use xlink:href="#DejaVuSans-35" x="159.033203"/>
      </g>
     </g>
    </g>
    <g id="ytick_8">
     <g id="line2d_14">
      <g>
       <use xlink:href="#ma71cf6bbd5" x="108" y="106.48062" style="stroke: #000000; stroke-width: 0.8"/>
      </g>
     </g>
     <g id="text_15">
      <!-- 30.0 -->
      <g transform="translate(78.734375 110.279838) scale(0.1 -0.1)">
       <defs>
        <path id="DejaVuSans-33" d="M 2597 2516 
Q 3050 2419 3304 2112 
Q 3559 1806 3559 1356 
Q 3559 666 3084 287 
Q 2609 -91 1734 -91 
Q 1441 -91 1130 -33 
Q 819 25 488 141 
L 488 750 
Q 750 597 1062 519 
Q 1375 441 1716 441 
Q 2309 441 2620 675 
Q 2931 909 2931 1356 
Q 2931 1769 2642 2001 
Q 2353 2234 1838 2234 
L 1294 2234 
L 1294 2753 
L 1863 2753 
Q 2328 2753 2575 2939 
Q 2822 3125 2822 3475 
Q 2822 3834 2567 4026 
Q 2313 4219 1838 4219 
Q 1578 4219 1281 4162 
Q 984 4106 628 3988 
L 628 4550 
Q 988 4650 1302 4700 
Q 1616 4750 1894 4750 
Q 2613 4750 3031 4423 
Q 3450 4097 3450 3541 
Q 3450 3153 3228 2886 
Q 3006 2619 2597 2516 
z
" transform="scale(0.015625)"/>
       </defs>
       <use xlink:href="#DejaVuSans-33"/>
       <use xlink:href="#DejaVuSans-30" x="63.623047"/>
       <use xlink:href="#DejaVuSans-2e" x="127.246094"/>
       <use xlink:href="#DejaVuSans-30" x="159.033203"/>
      </g>
     </g>
    </g>
    <g id="ytick_9">
     <g id="line2d_15">
      <g>
       <use xlink:href="#ma71cf6bbd5" x="108" y="69.106034" style="stroke: #000000; stroke-width: 0.8"/>
      </g>
     </g>
     <g id="text_16">
      <!-- 32.5 -->
      <g transform="translate(78.734375 72.905253) scale(0.1 -0.1)">
       <use xlink:href="#DejaVuSans-33"/>
       <use xlink:href="#DejaVuSans-32" x="63.623047"/>
       <use xlink:href="#DejaVuSans-2e" x="127.246094"/>
       <use xlink:href="#DejaVuSans-35" x="159.033203"/>
      </g>
     </g>
    </g>
    <g id="text_17">
     <!-- Effective CPU Power (watts) -->
     <g transform="translate(72.654687 287.677187) rotate(-90) scale(0.1 -0.1)">
      <defs>
       <path id="DejaVuSans-45" d="M 628 4666 
L 3578 4666 
L 3578 4134 
L 1259 4134 
L 1259 2753 
L 3481 2753 
L 3481 2222 
L 1259 2222 
L 1259 531 
L 3634 531 
L 3634 0 
L 628 0 
L 628 4666 
z
" transform="scale(0.015625)"/>
       <path id="DejaVuSans-66" d="M 2375 4863 
L 2375 4384 
L 1825 4384 
Q 1516 4384 1395 4259 
Q 1275 4134 1275 3809 
L 1275 3500 
L 2222 3500 
L 2222 3053 
L 1275 3053 
L 1275 0 
L 697 0 
L 697 3053 
L 147 3053 
L 147 3500 
L 697 3500 
L 697 3744 
Q 697 4328 969 4595 
Q 1241 4863 1831 4863 
L 2375 4863 
z
" transform="scale(0.015625)"/>
       <path id="DejaVuSans-76" d="M 191 3500 
L 800 3500 
L 1894 563 
L 2988 3500 
L 3597 3500 
L 2284 0 
L 1503 0 
L 191 3500 
z
" transform="scale(0.015625)"/>
       <path id="DejaVuSans-43" d="M 4122 4306 
L 4122 3641 
Q 3803 3938 3442 4084 
Q 3081 4231 2675 4231 
Q 1875 4231 1450 3742 
Q 1025 3253 1025 2328 
Q 1025 1406 1450 917 
Q 1875 428 2675 428 
Q 3081 428 3442 575 
Q 3803 722 4122 1019 
L 4122 359 
Q 3791 134 3420 21 
Q 3050 -91 2638 -91 
Q 1578 -91 968 557 
Q 359 1206 359 2328 
Q 359 3453 968 4101 
Q 1578 4750 2638 4750 
Q 3056 4750 3426 4639 
Q 3797 4528 4122 4306 
z
" transform="scale(0.015625)"/>
       <path id="DejaVuSans-50" d="M 1259 4147 
L 1259 2394 
L 2053 2394 
Q 2494 2394 2734 2622 
Q 2975 2850 2975 3272 
Q 2975 3691 2734 3919 
Q 2494 4147 2053 4147 
L 1259 4147 
z
M 628 4666 
L 2053 4666 
Q 2838 4666 3239 4311 
Q 3641 3956 3641 3272 
Q 3641 2581 3239 2228 
Q 2838 1875 2053 1875 
L 1259 1875 
L 1259 0 
L 628 0 
L 628 4666 
z
" transform="scale(0.015625)"/>
       <path id="DejaVuSans-55" d="M 556 4666 
L 1191 4666 
L 1191 1831 
Q 1191 1081 1462 751 
Q 1734 422 2344 422 
Q 2950 422 3222 751 
Q 3494 1081 3494 1831 
L 3494 4666 
L 4128 4666 
L 4128 1753 
Q 4128 841 3676 375 
Q 3225 -91 2344 -91 
Q 1459 -91 1007 375 
Q 556 841 556 1753 
L 556 4666 
z
" transform="scale(0.015625)"/>
       <path id="DejaVuSans-77" d="M 269 3500 
L 844 3500 
L 1563 769 
L 2278 3500 
L 2956 3500 
L 3675 769 
L 4391 3500 
L 4966 3500 
L 4050 0 
L 3372 0 
L 2619 2869 
L 1863 0 
L 1184 0 
L 269 3500 
z
" transform="scale(0.015625)"/>
       <path id="DejaVuSans-72" d="M 2631 2963 
Q 2534 3019 2420 3045 
Q 2306 3072 2169 3072 
Q 1681 3072 1420 2755 
Q 1159 2438 1159 1844 
L 1159 0 
L 581 0 
L 581 3500 
L 1159 3500 
L 1159 2956 
Q 1341 3275 1631 3429 
Q 1922 3584 2338 3584 
Q 2397 3584 2469 3576 
Q 2541 3569 2628 3553 
L 2631 2963 
z
" transform="scale(0.015625)"/>
      </defs>
      <use xlink:href="#DejaVuSans-45"/>
      <use xlink:href="#DejaVuSans-66" x="63.183594"/>
      <use xlink:href="#DejaVuSans-66" x="98.388672"/>
      <use xlink:href="#DejaVuSans-65" x="133.59375"/>
      <use xlink:href="#DejaVuSans-63" x="195.117188"/>
      <use xlink:href="#DejaVuSans-74" x="250.097656"/>
      <use xlink:href="#DejaVuSans-69" x="289.306641"/>
      <use xlink:href="#DejaVuSans-76" x="317.089844"/>
      <use xlink:href="#DejaVuSans-65" x="376.269531"/>
      <use xlink:href="#DejaVuSans-20" x="437.792969"/>
      <use xlink:href="#DejaVuSans-43" x="469.580078"/>
      <use xlink:href="#DejaVuSans-50" x="539.404297"/>
      <use xlink:href="#DejaVuSans-55" x="599.707031"/>
      <use xlink:href="#DejaVuSans-20" x="672.900391"/>
      <use xlink:href="#DejaVuSans-50" x="704.6875"/>
      <use xlink:href="#DejaVuSans-6f" x="761.365234"/>
      <use xlink:href="#DejaVuSans-77" x="822.546875"/>
      <use xlink:href="#DejaVuSans-65" x="904.333984"/>
      <use xlink:href="#DejaVuSans-72" x="965.857422"/>
      <use xlink:href="#DejaVuSans-20" x="1006.970703"/>
      <use xlink:href="#DejaVuSans-28" x="1038.757812"/>
      <use xlink:href="#DejaVuSans-77" x="1077.771484"/>
      <use xlink:href="#DejaVuSans-61" x="1159.558594"/>
      <use xlink:href="#DejaVuSans-74" x="1220.837891"/>
      <use xlink:href="#DejaVuSans-74" x="1260.046875"/>
      <use xlink:href="#DejaVuSans-73" x="1299.255859"/>
      <use xlink:href="#DejaVuSans-29" x="1351.355469"/>
     </g>
    </g>
   </g>
   <g id="line2d_16">
    <path d="M 138.436364 191.801777 
L 141.393468 162.769411 
L 143.865802 262.872331 
L 146.338135 195.831968 
L 148.810469 232.170326 
L 151.307041 234.71639 
L 153.779374 193.210918 
L 156.275946 202.632004 
L 158.724041 278.494254 
L 161.220613 127.170824 
L 163.692946 183.155973 
L 166.16528 223.855684 
L 168.661852 205.73257 
L 171.134185 229.275058 
L 173.606519 237.504939 
L 176.103091 146.914106 
L 178.575424 199.812735 
L 181.071996 237.567433 
L 183.544329 225.178848 
L 186.040901 73.407669 
L 188.513235 200.394313 
L 191.009807 236.013056 
L 193.506379 202.826786 
L 195.978712 202.08511 
L 198.451046 261.634871 
L 200.923379 264.080708 
L 203.395713 190.008275 
L 205.892285 235.022979 
L 208.364618 210.220501 
L 210.86119 261.050318 
L 213.333523 169.164692 
L 215.805857 282.068734 
L 218.302429 206.272947 
L 220.774762 200.922087 
L 223.247096 201.807656 
L 225.743668 224.214583 
L 228.216001 231.75135 
L 230.688335 200.367478 
L 233.378815 243.787849 
L 235.851149 152.951136 
L 238.323482 156.98511 
L 240.795815 231.942611 
L 243.292387 239.5244 
L 245.764721 202.18345 
L 248.237054 199.356466 
L 250.733626 197.857057 
L 253.20596 260.992612 
L 255.678293 163.027117 
L 258.150627 229.575933 
L 260.62296 225.082849 
L 263.119532 230.158153 
L 265.591865 130.862747 
L 268.064199 203.167358 
L 270.560771 281.954301 
L 273.033104 239.152266 
L 275.529676 199.189989 
L 278.00201 230.64135 
L 280.498582 274.876305 
L 282.995154 229.632134 
L 285.491726 148.349614 
L 287.988298 207.521935 
L 290.460631 254.219002 
L 292.957203 204.173437 
L 295.429537 205.037104 
L 297.90187 167.041922 
L 300.374203 232.2516 
L 302.870775 237.341797 
L 305.343109 205.448673 
L 307.815442 231.844946 
L 310.287776 201.512471 
L 312.784348 211.145427 
L 315.256681 200.859358 
L 317.729015 231.202573 
L 320.225587 210.60505 
L 322.69792 195.733478 
L 325.170253 204.169281 
L 327.642587 235.34206 
L 330.139159 205.767986 
L 332.611492 204.58085 
L 335.083826 237.432136 
L 337.580398 177.693857 
L 340.052731 231.397643 
L 342.525065 231.438416 
L 344.997398 197.298965 
L 347.49397 251.780235 
L 349.966303 291.985431 
L 352.584068 199.511595 
L 355.056402 236.236531 
L 357.528735 200.125949 
L 360.025307 202.818085 
L 362.497641 203.489363 
L 364.994213 237.486948 
L 367.466546 201.038322 
L 369.938879 202.952783 
L 372.411213 207.13038 
L 374.907785 203.021717 
L 377.380118 200.966802 
L 379.852452 258.027022 
L 382.349024 170.209549 
L 384.821357 202.004485 
L 387.317929 164.932348 
L 389.790263 217.219527 
L 392.286835 207.019982 
L 394.759168 231.283846 
L 397.231501 203.793637 
L 399.728073 202.144759 
L 402.200407 203.820606 
L 404.67274 229.791468 
L 407.145074 141.62246 
L 409.641646 202.48134 
L 412.113979 201.253047 
L 414.586313 205.573833 
L 417.058646 234.943534 
L 419.530979 240.086481 
L 422.003313 253.513783 
L 424.499885 203.367297 
L 426.996457 235.433133 
L 429.46879 203.274788 
L 431.965362 235.352648 
L 434.437696 202.729119 
L 436.910029 203.668327 
L 439.382363 202.038214 
L 441.878935 158.714654 
L 444.375507 233.699631 
L 446.84784 203.145231 
L 449.320173 204.984819 
L 451.816745 229.570184 
L 454.289079 369.36 
L 456.785651 260.644172 
L 459.282223 170.311398 
L 461.754556 200.394164 
L 464.251128 206.751476 
L 466.7477 226.135063 
L 469.220034 348.643313 
L 471.692367 200.607866 
L 474.188939 207.716981 
L 476.661273 165.644589 
L 479.133606 205.547013 
L 481.630178 230.512394 
L 484.102511 257.903689 
L 486.599083 171.734122 
L 489.071417 232.893973 
L 491.567989 229.059445 
L 494.040322 243.446023 
L 496.512656 219.745923 
L 499.009228 286.036551 
L 501.5058 258.174581 
L 503.978133 66.96 
L 506.450467 203.364188 
L 508.947039 234.684315 
L 511.419372 196.297027 
L 513.915944 278.474288 
L 516.388277 168.557411 
L 518.860611 263.810402 
L 521.357183 137.414937 
L 526.326088 267.808857 
L 528.798422 141.150774 
L 531.294994 135.894574 
L 533.767327 235.868539 
L 536.263899 207.894197 
L 538.736233 231.788041 
L 541.208566 200.224289 
L 543.705138 209.098435 
L 546.177471 137.068495 
L 548.649805 238.294084 
L 551.146377 203.712743 
L 553.61871 236.261049 
L 556.091044 198.193608 
L 558.563377 227.962724 
L 561.059949 239.017038 
L 563.532283 202.505454 
L 566.028855 228.50868 
L 568.501188 228.57567 
L 570.973521 319.512212 
L 573.445855 201.530351 
L 575.942427 241.626368 
L 578.438999 203.579944 
L 580.911332 202.12966 
L 583.407904 237.37413 
L 585.880238 237.001087 
L 588.352571 204.66131 
L 590.849143 234.265376 
L 593.321477 240.389738 
L 595.79381 146.093719 
L 598.266143 185.455019 
L 600.762715 239.427673 
L 603.235049 202.07617 
L 605.707382 200.904073 
L 608.179716 203.265848 
L 610.652049 261.970493 
L 613.148621 199.40734 
L 615.620955 165.42806 
L 618.093288 163.558515 
L 620.58986 257.388727 
L 623.086432 241.302711 
L 625.558765 202.532274 
L 628.031099 198.345737 
L 630.527671 172.377229 
L 633.000004 234.487968 
L 635.472338 232.438678 
L 637.96891 261.152863 
L 640.441243 162.348209 
L 642.937815 230.182168 
L 645.410149 292.106594 
L 647.906721 172.113143 
L 650.379054 200.752078 
L 652.851387 235.049326 
L 655.347959 235.304223 
L 657.820293 164.650813 
L 660.292626 231.389516 
L 662.789198 205.068244 
L 665.261532 233.62602 
L 667.733865 163.676539 
L 670.230437 199.637687 
L 672.727009 231.366166 
L 675.199343 235.594035 
L 677.671676 202.702299 
L 680.168248 202.366241 
L 682.640581 234.081437 
L 685.112915 234.097692 
L 687.609487 167.514513 
L 690.08182 231.291974 
L 692.578392 205.263175 
L 695.050726 160.419331 
L 697.523059 237.805325 
L 700.019631 169.792152 
L 702.491965 234.878502 
L 704.988537 204.235404 
L 707.46087 204.160341 
L 709.933204 245.941115 
L 712.429775 224.536674 
L 714.902109 164.926181 
L 717.398681 289.475478 
L 719.871014 182.100246 
L 722.343348 234.764583 
L 724.83992 202.056212 
L 727.312253 200.313689 
L 729.808825 233.833806 
L 732.281159 203.256908 
L 734.777731 202.685121 
L 737.250064 232.593234 
L 739.722398 166.156319 
L 742.194731 232.471188 
L 744.691303 199.699654 
L 747.163636 233.056792 
L 747.163636 233.056792 
" clip-path="url(#p5ef07a4899)" style="fill: none; stroke: #ff0000; stroke-width: 1.5; stroke-linecap: square"/>
   </g>
   <g id="patch_3">
    <path d="M 108 384.48 
L 108 51.84 
" style="fill: none; stroke: #000000; stroke-width: 0.8; stroke-linejoin: miter; stroke-linecap: square"/>
   </g>
   <g id="patch_4">
    <path d="M 777.6 384.48 
L 777.6 51.84 
" style="fill: none; stroke: #000000; stroke-width: 0.8; stroke-linejoin: miter; stroke-linecap: square"/>
   </g>
   <g id="patch_5">
    <path d="M 108 384.48 
L 777.6 384.48 
" style="fill: none; stroke: #000000; stroke-width: 0.8; stroke-linejoin: miter; stroke-linecap: square"/>
   </g>
   <g id="patch_6">
    <path d="M 108 51.84 
L 777.6 51.84 
" style="fill: none; stroke: #000000; stroke-width: 0.8; stroke-linejoin: miter; stroke-linecap: square"/>
   </g>
   <g id="text_18">
    <!-- Effective CPU Power Consumption over Time -->
    <g transform="translate(308.862188 45.84) scale(0.12 -0.12)">
     <defs>
      <path id="DejaVuSans-75" d="M 544 1381 
L 544 3500 
L 1119 3500 
L 1119 1403 
Q 1119 906 1312 657 
Q 1506 409 1894 409 
Q 2359 409 2629 706 
Q 2900 1003 2900 1516 
L 2900 3500 
L 3475 3500 
L 3475 0 
L 2900 0 
L 2900 538 
Q 2691 219 2414 64 
Q 2138 -91 1772 -91 
Q 1169 -91 856 284 
Q 544 659 544 1381 
z
M 1991 3584 
L 1991 3584 
z
" transform="scale(0.015625)"/>
     </defs>
     <use xlink:href="#DejaVuSans-45"/>
     <use xlink:href="#DejaVuSans-66" x="63.183594"/>
     <use xlink:href="#DejaVuSans-66" x="98.388672"/>
     <use xlink:href="#DejaVuSans-65" x="133.59375"/>
     <use xlink:href="#DejaVuSans-63" x="195.117188"/>
     <use xlink:href="#DejaVuSans-74" x="250.097656"/>
     <use xlink:href="#DejaVuSans-69" x="289.306641"/>
     <use xlink:href="#DejaVuSans-76" x="317.089844"/>
     <use xlink:href="#DejaVuSans-65" x="376.269531"/>
     <use xlink:href="#DejaVuSans-20" x="437.792969"/>
     <use xlink:href="#DejaVuSans-43" x="469.580078"/>
     <use xlink:href="#DejaVuSans-50" x="539.404297"/>
     <use xlink:href="#DejaVuSans-55" x="599.707031"/>
     <use xlink:href="#DejaVuSans-20" x="672.900391"/>
     <use xlink:href="#DejaVuSans-50" x="704.6875"/>
     <use xlink:href="#DejaVuSans-6f" x="761.365234"/>
     <use xlink:href="#DejaVuSans-77" x="822.546875"/>
     <use xlink:href="#DejaVuSans-65" x="904.333984"/>
     <use xlink:href="#DejaVuSans-72" x="965.857422"/>
     <use xlink:href="#DejaVuSans-20" x="1006.970703"/>
     <use xlink:href="#DejaVuSans-43" x="1038.757812"/>
     <use xlink:href="#DejaVuSans-6f" x="1108.582031"/>
     <use xlink:href="#DejaVuSans-6e" x="1169.763672"/>
     <use xlink:href="#DejaVuSans-73" x="1233.142578"/>
     <use xlink:href="#DejaVuSans-75" x="1285.242188"/>
     <use xlink:href="#DejaVuSans-6d" x="1348.621094"/>
     <use xlink:href="#DejaVuSans-70" x="1446.033203"/>
     <use xlink:href="#DejaVuSans-74" x="1509.509766"/>
     <use xlink:href="#DejaVuSans-69" x="1548.71875"/>
     <use xlink:href="#DejaVuSans-6f" x="1576.501953"/>
     <use xlink:href="#DejaVuSans-6e" x="1637.683594"/>
     <use xlink:href="#DejaVuSans-20" x="1701.0625"/>
     <use xlink:href="#DejaVuSans-6f" x="1732.849609"/>
     <use xlink:href="#DejaVuSans-76" x="1794.03125"/>
     <use xlink:href="#DejaVuSans-65" x="1853.210938"/>
     <use xlink:href="#DejaVuSans-72" x="1914.734375"/>
     <use xlink:href="#DejaVuSans-20" x="1955.847656"/>
     <use xlink:href="#DejaVuSans-54" x="1987.634766"/>
     <use xlink:href="#DejaVuSans-69" x="2045.59375"/>
     <use xlink:href="#DejaVuSans-6d" x="2073.376953"/>
     <use xlink:href="#DejaVuSans-65" x="2170.789062"/>
    </g>
   </g>
   <g id="legend_1">
    <g id="patch_7">
     <path d="M 637.903125 74.518125 
L 770.6 74.518125 
Q 772.6 74.518125 772.6 72.518125 
L 772.6 58.84 
Q 772.6 56.84 770.6 56.84 
L 637.903125 56.84 
Q 635.903125 56.84 635.903125 58.84 
L 635.903125 72.518125 
Q 635.903125 74.518125 637.903125 74.518125 
z
" style="fill: #ffffff; opacity: 0.8; stroke: #cccccc; stroke-linejoin: miter"/>
    </g>
    <g id="line2d_17">
     <path d="M 639.903125 64.938438 
L 649.903125 64.938438 
L 659.903125 64.938438 
" style="fill: none; stroke: #ff0000; stroke-width: 1.5; stroke-linecap: square"/>
    </g>
    <g id="text_19">
     <!-- Effective CPU Power -->
     <g transform="translate(667.903125 68.438438) scale(0.1 -0.1)">
      <use xlink:href="#DejaVuSans-45"/>
      <use xlink:href="#DejaVuSans-66" x="63.183594"/>
      <use xlink:href="#DejaVuSans-66" x="98.388672"/>
      <use xlink:href="#DejaVuSans-65" x="133.59375"/>
      <use xlink:href="#DejaVuSans-63" x="195.117188"/>
      <use xlink:href="#DejaVuSans-74" x="250.097656"/>
      <use xlink:href="#DejaVuSans-69" x="289.306641"/>
      <use xlink:href="#DejaVuSans-76" x="317.089844"/>
      <use xlink:href="#DejaVuSans-65" x="376.269531"/>
      <use xlink:href="#DejaVuSans-20" x="437.792969"/>
      <use xlink:href="#DejaVuSans-43" x="469.580078"/>
      <use xlink:href="#DejaVuSans-50" x="539.404297"/>
      <use xlink:href="#DejaVuSans-55" x="599.707031"/>
      <use xlink:href="#DejaVuSans-20" x="672.900391"/>
      <use xlink:href="#DejaVuSans-50" x="704.6875"/>
      <use xlink:href="#DejaVuSans-6f" x="761.365234"/>
      <use xlink:href="#DejaVuSans-77" x="822.546875"/>
      <use xlink:href="#DejaVuSans-65" x="904.333984"/>
      <use xlink:href="#DejaVuSans-72" x="965.857422"/>
     </g>
    </g>
   </g>
  </g>
 </g>
 <defs>
  <clipPath id="p5ef07a4899">
   <rect x="108" y="51.84" width="669.6" height="332.64"/>
  </clipPath>
 </defs>
</svg>
