<?xml version="1.0" encoding="utf-8" standalone="no"?>
<!DOCTYPE svg PUBLIC "-//W3C//DTD SVG 1.1//EN"
  "http://www.w3.org/Graphics/SVG/1.1/DTD/svg11.dtd">
<svg xmlns:xlink="http://www.w3.org/1999/xlink" width="864pt" height="432pt" viewBox="0 0 864 432" xmlns="http://www.w3.org/2000/svg" version="1.1">
 <metadata>
  <rdf:RDF xmlns:dc="http://purl.org/dc/elements/1.1/" xmlns:cc="http://creativecommons.org/ns#" xmlns:rdf="http://www.w3.org/1999/02/22-rdf-syntax-ns#">
   <cc:Work>
    <dc:type rdf:resource="http://purl.org/dc/dcmitype/StillImage"/>
    <dc:date>2025-05-14T18:11:29.984441</dc:date>
    <dc:format>image/svg+xml</dc:format>
    <dc:creator>
     <cc:Agent>
      <dc:title>Matplotlib v3.6.3, https://matplotlib.org/</dc:title>
     </cc:Agent>
    </dc:creator>
   </cc:Work>
  </rdf:RDF>
 </metadata>
 <defs>
  <style type="text/css">*{stroke-linejoin: round; stroke-linecap: butt}</style>
 </defs>
 <g id="figure_1">
  <g id="patch_1">
   <path d="M 0 432 
L 864 432 
L 864 0 
L 0 0 
z
" style="fill: #ffffff"/>
  </g>
  <g id="axes_1">
   <g id="patch_2">
    <path d="M 108 384.48 
L 777.6 384.48 
L 777.6 51.84 
L 108 51.84 
z
" style="fill: #ffffff"/>
   </g>
   <g id="matplotlib.axis_1">
    <g id="xtick_1">
     <g id="line2d_1">
      <defs>
       <path id="ma4d28a54bf" d="M 0 0 
L 0 3.5 
" style="stroke: #000000; stroke-width: 0.8"/>
      </defs>
      <g>
       <use xlink:href="#ma4d28a54bf" x="138.436364" y="384.48" style="stroke: #000000; stroke-width: 0.8"/>
      </g>
     </g>
     <g id="text_1">
      <!-- 0 -->
      <g transform="translate(135.255114 399.078438) scale(0.1 -0.1)">
       <defs>
        <path id="DejaVuSans-30" d="M 2034 4250 
Q 1547 4250 1301 3770 
Q 1056 3291 1056 2328 
Q 1056 1369 1301 889 
Q 1547 409 2034 409 
Q 2525 409 2770 889 
Q 3016 1369 3016 2328 
Q 3016 3291 2770 3770 
Q 2525 4250 2034 4250 
z
M 2034 4750 
Q 2819 4750 3233 4129 
Q 3647 3509 3647 2328 
Q 3647 1150 3233 529 
Q 2819 -91 2034 -91 
Q 1250 -91 836 529 
Q 422 1150 422 2328 
Q 422 3509 836 4129 
Q 1250 4750 2034 4750 
z
" transform="scale(0.015625)"/>
       </defs>
       <use xlink:href="#DejaVuSans-30"/>
      </g>
     </g>
    </g>
    <g id="xtick_2">
     <g id="line2d_2">
      <g>
       <use xlink:href="#ma4d28a54bf" x="239.335686" y="384.48" style="stroke: #000000; stroke-width: 0.8"/>
      </g>
     </g>
     <g id="text_2">
      <!-- 2 -->
      <g transform="translate(236.154436 399.078438) scale(0.1 -0.1)">
       <defs>
        <path id="DejaVuSans-32" d="M 1228 531 
L 3431 531 
L 3431 0 
L 469 0 
L 469 531 
Q 828 903 1448 1529 
Q 2069 2156 2228 2338 
Q 2531 2678 2651 2914 
Q 2772 3150 2772 3378 
Q 2772 3750 2511 3984 
Q 2250 4219 1831 4219 
Q 1534 4219 1204 4116 
Q 875 4013 500 3803 
L 500 4441 
Q 881 4594 1212 4672 
Q 1544 4750 1819 4750 
Q 2544 4750 2975 4387 
Q 3406 4025 3406 3419 
Q 3406 3131 3298 2873 
Q 3191 2616 2906 2266 
Q 2828 2175 2409 1742 
Q 1991 1309 1228 531 
z
" transform="scale(0.015625)"/>
       </defs>
       <use xlink:href="#DejaVuSans-32"/>
      </g>
     </g>
    </g>
    <g id="xtick_3">
     <g id="line2d_3">
      <g>
       <use xlink:href="#ma4d28a54bf" x="340.235009" y="384.48" style="stroke: #000000; stroke-width: 0.8"/>
      </g>
     </g>
     <g id="text_3">
      <!-- 4 -->
      <g transform="translate(337.053759 399.078438) scale(0.1 -0.1)">
       <defs>
        <path id="DejaVuSans-34" d="M 2419 4116 
L 825 1625 
L 2419 1625 
L 2419 4116 
z
M 2253 4666 
L 3047 4666 
L 3047 1625 
L 3713 1625 
L 3713 1100 
L 3047 1100 
L 3047 0 
L 2419 0 
L 2419 1100 
L 313 1100 
L 313 1709 
L 2253 4666 
z
" transform="scale(0.015625)"/>
       </defs>
       <use xlink:href="#DejaVuSans-34"/>
      </g>
     </g>
    </g>
    <g id="xtick_4">
     <g id="line2d_4">
      <g>
       <use xlink:href="#ma4d28a54bf" x="441.134332" y="384.48" style="stroke: #000000; stroke-width: 0.8"/>
      </g>
     </g>
     <g id="text_4">
      <!-- 6 -->
      <g transform="translate(437.953082 399.078438) scale(0.1 -0.1)">
       <defs>
        <path id="DejaVuSans-36" d="M 2113 2584 
Q 1688 2584 1439 2293 
Q 1191 2003 1191 1497 
Q 1191 994 1439 701 
Q 1688 409 2113 409 
Q 2538 409 2786 701 
Q 3034 994 3034 1497 
Q 3034 2003 2786 2293 
Q 2538 2584 2113 2584 
z
M 3366 4563 
L 3366 3988 
Q 3128 4100 2886 4159 
Q 2644 4219 2406 4219 
Q 1781 4219 1451 3797 
Q 1122 3375 1075 2522 
Q 1259 2794 1537 2939 
Q 1816 3084 2150 3084 
Q 2853 3084 3261 2657 
Q 3669 2231 3669 1497 
Q 3669 778 3244 343 
Q 2819 -91 2113 -91 
Q 1303 -91 875 529 
Q 447 1150 447 2328 
Q 447 3434 972 4092 
Q 1497 4750 2381 4750 
Q 2619 4750 2861 4703 
Q 3103 4656 3366 4563 
z
" transform="scale(0.015625)"/>
       </defs>
       <use xlink:href="#DejaVuSans-36"/>
      </g>
     </g>
    </g>
    <g id="xtick_5">
     <g id="line2d_5">
      <g>
       <use xlink:href="#ma4d28a54bf" x="542.033654" y="384.48" style="stroke: #000000; stroke-width: 0.8"/>
      </g>
     </g>
     <g id="text_5">
      <!-- 8 -->
      <g transform="translate(538.852404 399.078438) scale(0.1 -0.1)">
       <defs>
        <path id="DejaVuSans-38" d="M 2034 2216 
Q 1584 2216 1326 1975 
Q 1069 1734 1069 1313 
Q 1069 891 1326 650 
Q 1584 409 2034 409 
Q 2484 409 2743 651 
Q 3003 894 3003 1313 
Q 3003 1734 2745 1975 
Q 2488 2216 2034 2216 
z
M 1403 2484 
Q 997 2584 770 2862 
Q 544 3141 544 3541 
Q 544 4100 942 4425 
Q 1341 4750 2034 4750 
Q 2731 4750 3128 4425 
Q 3525 4100 3525 3541 
Q 3525 3141 3298 2862 
Q 3072 2584 2669 2484 
Q 3125 2378 3379 2068 
Q 3634 1759 3634 1313 
Q 3634 634 3220 271 
Q 2806 -91 2034 -91 
Q 1263 -91 848 271 
Q 434 634 434 1313 
Q 434 1759 690 2068 
Q 947 2378 1403 2484 
z
M 1172 3481 
Q 1172 3119 1398 2916 
Q 1625 2713 2034 2713 
Q 2441 2713 2670 2916 
Q 2900 3119 2900 3481 
Q 2900 3844 2670 4047 
Q 2441 4250 2034 4250 
Q 1625 4250 1398 4047 
Q 1172 3844 1172 3481 
z
" transform="scale(0.015625)"/>
       </defs>
       <use xlink:href="#DejaVuSans-38"/>
      </g>
     </g>
    </g>
    <g id="xtick_6">
     <g id="line2d_6">
      <g>
       <use xlink:href="#ma4d28a54bf" x="642.932977" y="384.48" style="stroke: #000000; stroke-width: 0.8"/>
      </g>
     </g>
     <g id="text_6">
      <!-- 10 -->
      <g transform="translate(636.570477 399.078438) scale(0.1 -0.1)">
       <defs>
        <path id="DejaVuSans-31" d="M 794 531 
L 1825 531 
L 1825 4091 
L 703 3866 
L 703 4441 
L 1819 4666 
L 2450 4666 
L 2450 531 
L 3481 531 
L 3481 0 
L 794 0 
L 794 531 
z
" transform="scale(0.015625)"/>
       </defs>
       <use xlink:href="#DejaVuSans-31"/>
       <use xlink:href="#DejaVuSans-30" x="63.623047"/>
      </g>
     </g>
    </g>
    <g id="xtick_7">
     <g id="line2d_7">
      <g>
       <use xlink:href="#ma4d28a54bf" x="743.8323" y="384.48" style="stroke: #000000; stroke-width: 0.8"/>
      </g>
     </g>
     <g id="text_7">
      <!-- 12 -->
      <g transform="translate(737.4698 399.078438) scale(0.1 -0.1)">
       <use xlink:href="#DejaVuSans-31"/>
       <use xlink:href="#DejaVuSans-32" x="63.623047"/>
      </g>
     </g>
    </g>
    <g id="text_8">
     <!-- Timestamp (seconds) -->
     <g transform="translate(388.964844 412.756563) scale(0.1 -0.1)">
      <defs>
       <path id="DejaVuSans-54" d="M -19 4666 
L 3928 4666 
L 3928 4134 
L 2272 4134 
L 2272 0 
L 1638 0 
L 1638 4134 
L -19 4134 
L -19 4666 
z
" transform="scale(0.015625)"/>
       <path id="DejaVuSans-69" d="M 603 3500 
L 1178 3500 
L 1178 0 
L 603 0 
L 603 3500 
z
M 603 4863 
L 1178 4863 
L 1178 4134 
L 603 4134 
L 603 4863 
z
" transform="scale(0.015625)"/>
       <path id="DejaVuSans-6d" d="M 3328 2828 
Q 3544 3216 3844 3400 
Q 4144 3584 4550 3584 
Q 5097 3584 5394 3201 
Q 5691 2819 5691 2113 
L 5691 0 
L 5113 0 
L 5113 2094 
Q 5113 2597 4934 2840 
Q 4756 3084 4391 3084 
Q 3944 3084 3684 2787 
Q 3425 2491 3425 1978 
L 3425 0 
L 2847 0 
L 2847 2094 
Q 2847 2600 2669 2842 
Q 2491 3084 2119 3084 
Q 1678 3084 1418 2786 
Q 1159 2488 1159 1978 
L 1159 0 
L 581 0 
L 581 3500 
L 1159 3500 
L 1159 2956 
Q 1356 3278 1631 3431 
Q 1906 3584 2284 3584 
Q 2666 3584 2933 3390 
Q 3200 3197 3328 2828 
z
" transform="scale(0.015625)"/>
       <path id="DejaVuSans-65" d="M 3597 1894 
L 3597 1613 
L 953 1613 
Q 991 1019 1311 708 
Q 1631 397 2203 397 
Q 2534 397 2845 478 
Q 3156 559 3463 722 
L 3463 178 
Q 3153 47 2828 -22 
Q 2503 -91 2169 -91 
Q 1331 -91 842 396 
Q 353 884 353 1716 
Q 353 2575 817 3079 
Q 1281 3584 2069 3584 
Q 2775 3584 3186 3129 
Q 3597 2675 3597 1894 
z
M 3022 2063 
Q 3016 2534 2758 2815 
Q 2500 3097 2075 3097 
Q 1594 3097 1305 2825 
Q 1016 2553 972 2059 
L 3022 2063 
z
" transform="scale(0.015625)"/>
       <path id="DejaVuSans-73" d="M 2834 3397 
L 2834 2853 
Q 2591 2978 2328 3040 
Q 2066 3103 1784 3103 
Q 1356 3103 1142 2972 
Q 928 2841 928 2578 
Q 928 2378 1081 2264 
Q 1234 2150 1697 2047 
L 1894 2003 
Q 2506 1872 2764 1633 
Q 3022 1394 3022 966 
Q 3022 478 2636 193 
Q 2250 -91 1575 -91 
Q 1294 -91 989 -36 
Q 684 19 347 128 
L 347 722 
Q 666 556 975 473 
Q 1284 391 1588 391 
Q 1994 391 2212 530 
Q 2431 669 2431 922 
Q 2431 1156 2273 1281 
Q 2116 1406 1581 1522 
L 1381 1569 
Q 847 1681 609 1914 
Q 372 2147 372 2553 
Q 372 3047 722 3315 
Q 1072 3584 1716 3584 
Q 2034 3584 2315 3537 
Q 2597 3491 2834 3397 
z
" transform="scale(0.015625)"/>
       <path id="DejaVuSans-74" d="M 1172 4494 
L 1172 3500 
L 2356 3500 
L 2356 3053 
L 1172 3053 
L 1172 1153 
Q 1172 725 1289 603 
Q 1406 481 1766 481 
L 2356 481 
L 2356 0 
L 1766 0 
Q 1100 0 847 248 
Q 594 497 594 1153 
L 594 3053 
L 172 3053 
L 172 3500 
L 594 3500 
L 594 4494 
L 1172 4494 
z
" transform="scale(0.015625)"/>
       <path id="DejaVuSans-61" d="M 2194 1759 
Q 1497 1759 1228 1600 
Q 959 1441 959 1056 
Q 959 750 1161 570 
Q 1363 391 1709 391 
Q 2188 391 2477 730 
Q 2766 1069 2766 1631 
L 2766 1759 
L 2194 1759 
z
M 3341 1997 
L 3341 0 
L 2766 0 
L 2766 531 
Q 2569 213 2275 61 
Q 1981 -91 1556 -91 
Q 1019 -91 701 211 
Q 384 513 384 1019 
Q 384 1609 779 1909 
Q 1175 2209 1959 2209 
L 2766 2209 
L 2766 2266 
Q 2766 2663 2505 2880 
Q 2244 3097 1772 3097 
Q 1472 3097 1187 3025 
Q 903 2953 641 2809 
L 641 3341 
Q 956 3463 1253 3523 
Q 1550 3584 1831 3584 
Q 2591 3584 2966 3190 
Q 3341 2797 3341 1997 
z
" transform="scale(0.015625)"/>
       <path id="DejaVuSans-70" d="M 1159 525 
L 1159 -1331 
L 581 -1331 
L 581 3500 
L 1159 3500 
L 1159 2969 
Q 1341 3281 1617 3432 
Q 1894 3584 2278 3584 
Q 2916 3584 3314 3078 
Q 3713 2572 3713 1747 
Q 3713 922 3314 415 
Q 2916 -91 2278 -91 
Q 1894 -91 1617 61 
Q 1341 213 1159 525 
z
M 3116 1747 
Q 3116 2381 2855 2742 
Q 2594 3103 2138 3103 
Q 1681 3103 1420 2742 
Q 1159 2381 1159 1747 
Q 1159 1113 1420 752 
Q 1681 391 2138 391 
Q 2594 391 2855 752 
Q 3116 1113 3116 1747 
z
" transform="scale(0.015625)"/>
       <path id="DejaVuSans-20" transform="scale(0.015625)"/>
       <path id="DejaVuSans-28" d="M 1984 4856 
Q 1566 4138 1362 3434 
Q 1159 2731 1159 2009 
Q 1159 1288 1364 580 
Q 1569 -128 1984 -844 
L 1484 -844 
Q 1016 -109 783 600 
Q 550 1309 550 2009 
Q 550 2706 781 3412 
Q 1013 4119 1484 4856 
L 1984 4856 
z
" transform="scale(0.015625)"/>
       <path id="DejaVuSans-63" d="M 3122 3366 
L 3122 2828 
Q 2878 2963 2633 3030 
Q 2388 3097 2138 3097 
Q 1578 3097 1268 2742 
Q 959 2388 959 1747 
Q 959 1106 1268 751 
Q 1578 397 2138 397 
Q 2388 397 2633 464 
Q 2878 531 3122 666 
L 3122 134 
Q 2881 22 2623 -34 
Q 2366 -91 2075 -91 
Q 1284 -91 818 406 
Q 353 903 353 1747 
Q 353 2603 823 3093 
Q 1294 3584 2113 3584 
Q 2378 3584 2631 3529 
Q 2884 3475 3122 3366 
z
" transform="scale(0.015625)"/>
       <path id="DejaVuSans-6f" d="M 1959 3097 
Q 1497 3097 1228 2736 
Q 959 2375 959 1747 
Q 959 1119 1226 758 
Q 1494 397 1959 397 
Q 2419 397 2687 759 
Q 2956 1122 2956 1747 
Q 2956 2369 2687 2733 
Q 2419 3097 1959 3097 
z
M 1959 3584 
Q 2709 3584 3137 3096 
Q 3566 2609 3566 1747 
Q 3566 888 3137 398 
Q 2709 -91 1959 -91 
Q 1206 -91 779 398 
Q 353 888 353 1747 
Q 353 2609 779 3096 
Q 1206 3584 1959 3584 
z
" transform="scale(0.015625)"/>
       <path id="DejaVuSans-6e" d="M 3513 2113 
L 3513 0 
L 2938 0 
L 2938 2094 
Q 2938 2591 2744 2837 
Q 2550 3084 2163 3084 
Q 1697 3084 1428 2787 
Q 1159 2491 1159 1978 
L 1159 0 
L 581 0 
L 581 3500 
L 1159 3500 
L 1159 2956 
Q 1366 3272 1645 3428 
Q 1925 3584 2291 3584 
Q 2894 3584 3203 3211 
Q 3513 2838 3513 2113 
z
" transform="scale(0.015625)"/>
       <path id="DejaVuSans-64" d="M 2906 2969 
L 2906 4863 
L 3481 4863 
L 3481 0 
L 2906 0 
L 2906 525 
Q 2725 213 2448 61 
Q 2172 -91 1784 -91 
Q 1150 -91 751 415 
Q 353 922 353 1747 
Q 353 2572 751 3078 
Q 1150 3584 1784 3584 
Q 2172 3584 2448 3432 
Q 2725 3281 2906 2969 
z
M 947 1747 
Q 947 1113 1208 752 
Q 1469 391 1925 391 
Q 2381 391 2643 752 
Q 2906 1113 2906 1747 
Q 2906 2381 2643 2742 
Q 2381 3103 1925 3103 
Q 1469 3103 1208 2742 
Q 947 2381 947 1747 
z
" transform="scale(0.015625)"/>
       <path id="DejaVuSans-29" d="M 513 4856 
L 1013 4856 
Q 1481 4119 1714 3412 
Q 1947 2706 1947 2009 
Q 1947 1309 1714 600 
Q 1481 -109 1013 -844 
L 513 -844 
Q 928 -128 1133 580 
Q 1338 1288 1338 2009 
Q 1338 2731 1133 3434 
Q 928 4138 513 4856 
z
" transform="scale(0.015625)"/>
      </defs>
      <use xlink:href="#DejaVuSans-54"/>
      <use xlink:href="#DejaVuSans-69" x="57.958984"/>
      <use xlink:href="#DejaVuSans-6d" x="85.742188"/>
      <use xlink:href="#DejaVuSans-65" x="183.154297"/>
      <use xlink:href="#DejaVuSans-73" x="244.677734"/>
      <use xlink:href="#DejaVuSans-74" x="296.777344"/>
      <use xlink:href="#DejaVuSans-61" x="335.986328"/>
      <use xlink:href="#DejaVuSans-6d" x="397.265625"/>
      <use xlink:href="#DejaVuSans-70" x="494.677734"/>
      <use xlink:href="#DejaVuSans-20" x="558.154297"/>
      <use xlink:href="#DejaVuSans-28" x="589.941406"/>
      <use xlink:href="#DejaVuSans-73" x="628.955078"/>
      <use xlink:href="#DejaVuSans-65" x="681.054688"/>
      <use xlink:href="#DejaVuSans-63" x="742.578125"/>
      <use xlink:href="#DejaVuSans-6f" x="797.558594"/>
      <use xlink:href="#DejaVuSans-6e" x="858.740234"/>
      <use xlink:href="#DejaVuSans-64" x="922.119141"/>
      <use xlink:href="#DejaVuSans-73" x="985.595703"/>
      <use xlink:href="#DejaVuSans-29" x="1037.695312"/>
     </g>
    </g>
   </g>
   <g id="matplotlib.axis_2">
    <g id="ytick_1">
     <g id="line2d_8">
      <defs>
       <path id="m4d4e83fcc5" d="M 0 0 
L -3.5 0 
" style="stroke: #000000; stroke-width: 0.8"/>
      </defs>
      <g>
       <use xlink:href="#m4d4e83fcc5" x="108" y="369.36" style="stroke: #000000; stroke-width: 0.8"/>
      </g>
     </g>
     <g id="text_9">
      <!-- 0 -->
      <g transform="translate(94.6375 373.159219) scale(0.1 -0.1)">
       <use xlink:href="#DejaVuSans-30"/>
      </g>
     </g>
    </g>
    <g id="ytick_2">
     <g id="line2d_9">
      <g>
       <use xlink:href="#m4d4e83fcc5" x="108" y="325.317602" style="stroke: #000000; stroke-width: 0.8"/>
      </g>
     </g>
     <g id="text_10">
      <!-- 20 -->
      <g transform="translate(88.275 329.116821) scale(0.1 -0.1)">
       <use xlink:href="#DejaVuSans-32"/>
       <use xlink:href="#DejaVuSans-30" x="63.623047"/>
      </g>
     </g>
    </g>
    <g id="ytick_3">
     <g id="line2d_10">
      <g>
       <use xlink:href="#m4d4e83fcc5" x="108" y="281.275205" style="stroke: #000000; stroke-width: 0.8"/>
      </g>
     </g>
     <g id="text_11">
      <!-- 40 -->
      <g transform="translate(88.275 285.074423) scale(0.1 -0.1)">
       <use xlink:href="#DejaVuSans-34"/>
       <use xlink:href="#DejaVuSans-30" x="63.623047"/>
      </g>
     </g>
    </g>
    <g id="ytick_4">
     <g id="line2d_11">
      <g>
       <use xlink:href="#m4d4e83fcc5" x="108" y="237.232807" style="stroke: #000000; stroke-width: 0.8"/>
      </g>
     </g>
     <g id="text_12">
      <!-- 60 -->
      <g transform="translate(88.275 241.032026) scale(0.1 -0.1)">
       <use xlink:href="#DejaVuSans-36"/>
       <use xlink:href="#DejaVuSans-30" x="63.623047"/>
      </g>
     </g>
    </g>
    <g id="ytick_5">
     <g id="line2d_12">
      <g>
       <use xlink:href="#m4d4e83fcc5" x="108" y="193.190409" style="stroke: #000000; stroke-width: 0.8"/>
      </g>
     </g>
     <g id="text_13">
      <!-- 80 -->
      <g transform="translate(88.275 196.989628) scale(0.1 -0.1)">
       <use xlink:href="#DejaVuSans-38"/>
       <use xlink:href="#DejaVuSans-30" x="63.623047"/>
      </g>
     </g>
    </g>
    <g id="ytick_6">
     <g id="line2d_13">
      <g>
       <use xlink:href="#m4d4e83fcc5" x="108" y="149.148012" style="stroke: #000000; stroke-width: 0.8"/>
      </g>
     </g>
     <g id="text_14">
      <!-- 100 -->
      <g transform="translate(81.9125 152.94723) scale(0.1 -0.1)">
       <use xlink:href="#DejaVuSans-31"/>
       <use xlink:href="#DejaVuSans-30" x="63.623047"/>
       <use xlink:href="#DejaVuSans-30" x="127.246094"/>
      </g>
     </g>
    </g>
    <g id="ytick_7">
     <g id="line2d_14">
      <g>
       <use xlink:href="#m4d4e83fcc5" x="108" y="105.105614" style="stroke: #000000; stroke-width: 0.8"/>
      </g>
     </g>
     <g id="text_15">
      <!-- 120 -->
      <g transform="translate(81.9125 108.904833) scale(0.1 -0.1)">
       <use xlink:href="#DejaVuSans-31"/>
       <use xlink:href="#DejaVuSans-32" x="63.623047"/>
       <use xlink:href="#DejaVuSans-30" x="127.246094"/>
      </g>
     </g>
    </g>
    <g id="ytick_8">
     <g id="line2d_15">
      <g>
       <use xlink:href="#m4d4e83fcc5" x="108" y="61.063216" style="stroke: #000000; stroke-width: 0.8"/>
      </g>
     </g>
     <g id="text_16">
      <!-- 140 -->
      <g transform="translate(81.9125 64.862435) scale(0.1 -0.1)">
       <use xlink:href="#DejaVuSans-31"/>
       <use xlink:href="#DejaVuSans-34" x="63.623047"/>
       <use xlink:href="#DejaVuSans-30" x="127.246094"/>
      </g>
     </g>
    </g>
    <g id="text_17">
     <!-- Effective Power Consumption (watts) -->
     <g transform="translate(75.832812 310.626406) rotate(-90) scale(0.1 -0.1)">
      <defs>
       <path id="DejaVuSans-45" d="M 628 4666 
L 3578 4666 
L 3578 4134 
L 1259 4134 
L 1259 2753 
L 3481 2753 
L 3481 2222 
L 1259 2222 
L 1259 531 
L 3634 531 
L 3634 0 
L 628 0 
L 628 4666 
z
" transform="scale(0.015625)"/>
       <path id="DejaVuSans-66" d="M 2375 4863 
L 2375 4384 
L 1825 4384 
Q 1516 4384 1395 4259 
Q 1275 4134 1275 3809 
L 1275 3500 
L 2222 3500 
L 2222 3053 
L 1275 3053 
L 1275 0 
L 697 0 
L 697 3053 
L 147 3053 
L 147 3500 
L 697 3500 
L 697 3744 
Q 697 4328 969 4595 
Q 1241 4863 1831 4863 
L 2375 4863 
z
" transform="scale(0.015625)"/>
       <path id="DejaVuSans-76" d="M 191 3500 
L 800 3500 
L 1894 563 
L 2988 3500 
L 3597 3500 
L 2284 0 
L 1503 0 
L 191 3500 
z
" transform="scale(0.015625)"/>
       <path id="DejaVuSans-50" d="M 1259 4147 
L 1259 2394 
L 2053 2394 
Q 2494 2394 2734 2622 
Q 2975 2850 2975 3272 
Q 2975 3691 2734 3919 
Q 2494 4147 2053 4147 
L 1259 4147 
z
M 628 4666 
L 2053 4666 
Q 2838 4666 3239 4311 
Q 3641 3956 3641 3272 
Q 3641 2581 3239 2228 
Q 2838 1875 2053 1875 
L 1259 1875 
L 1259 0 
L 628 0 
L 628 4666 
z
" transform="scale(0.015625)"/>
       <path id="DejaVuSans-77" d="M 269 3500 
L 844 3500 
L 1563 769 
L 2278 3500 
L 2956 3500 
L 3675 769 
L 4391 3500 
L 4966 3500 
L 4050 0 
L 3372 0 
L 2619 2869 
L 1863 0 
L 1184 0 
L 269 3500 
z
" transform="scale(0.015625)"/>
       <path id="DejaVuSans-72" d="M 2631 2963 
Q 2534 3019 2420 3045 
Q 2306 3072 2169 3072 
Q 1681 3072 1420 2755 
Q 1159 2438 1159 1844 
L 1159 0 
L 581 0 
L 581 3500 
L 1159 3500 
L 1159 2956 
Q 1341 3275 1631 3429 
Q 1922 3584 2338 3584 
Q 2397 3584 2469 3576 
Q 2541 3569 2628 3553 
L 2631 2963 
z
" transform="scale(0.015625)"/>
       <path id="DejaVuSans-43" d="M 4122 4306 
L 4122 3641 
Q 3803 3938 3442 4084 
Q 3081 4231 2675 4231 
Q 1875 4231 1450 3742 
Q 1025 3253 1025 2328 
Q 1025 1406 1450 917 
Q 1875 428 2675 428 
Q 3081 428 3442 575 
Q 3803 722 4122 1019 
L 4122 359 
Q 3791 134 3420 21 
Q 3050 -91 2638 -91 
Q 1578 -91 968 557 
Q 359 1206 359 2328 
Q 359 3453 968 4101 
Q 1578 4750 2638 4750 
Q 3056 4750 3426 4639 
Q 3797 4528 4122 4306 
z
" transform="scale(0.015625)"/>
       <path id="DejaVuSans-75" d="M 544 1381 
L 544 3500 
L 1119 3500 
L 1119 1403 
Q 1119 906 1312 657 
Q 1506 409 1894 409 
Q 2359 409 2629 706 
Q 2900 1003 2900 1516 
L 2900 3500 
L 3475 3500 
L 3475 0 
L 2900 0 
L 2900 538 
Q 2691 219 2414 64 
Q 2138 -91 1772 -91 
Q 1169 -91 856 284 
Q 544 659 544 1381 
z
M 1991 3584 
L 1991 3584 
z
" transform="scale(0.015625)"/>
      </defs>
      <use xlink:href="#DejaVuSans-45"/>
      <use xlink:href="#DejaVuSans-66" x="63.183594"/>
      <use xlink:href="#DejaVuSans-66" x="98.388672"/>
      <use xlink:href="#DejaVuSans-65" x="133.59375"/>
      <use xlink:href="#DejaVuSans-63" x="195.117188"/>
      <use xlink:href="#DejaVuSans-74" x="250.097656"/>
      <use xlink:href="#DejaVuSans-69" x="289.306641"/>
      <use xlink:href="#DejaVuSans-76" x="317.089844"/>
      <use xlink:href="#DejaVuSans-65" x="376.269531"/>
      <use xlink:href="#DejaVuSans-20" x="437.792969"/>
      <use xlink:href="#DejaVuSans-50" x="469.580078"/>
      <use xlink:href="#DejaVuSans-6f" x="526.257812"/>
      <use xlink:href="#DejaVuSans-77" x="587.439453"/>
      <use xlink:href="#DejaVuSans-65" x="669.226562"/>
      <use xlink:href="#DejaVuSans-72" x="730.75"/>
      <use xlink:href="#DejaVuSans-20" x="771.863281"/>
      <use xlink:href="#DejaVuSans-43" x="803.650391"/>
      <use xlink:href="#DejaVuSans-6f" x="873.474609"/>
      <use xlink:href="#DejaVuSans-6e" x="934.65625"/>
      <use xlink:href="#DejaVuSans-73" x="998.035156"/>
      <use xlink:href="#DejaVuSans-75" x="1050.134766"/>
      <use xlink:href="#DejaVuSans-6d" x="1113.513672"/>
      <use xlink:href="#DejaVuSans-70" x="1210.925781"/>
      <use xlink:href="#DejaVuSans-74" x="1274.402344"/>
      <use xlink:href="#DejaVuSans-69" x="1313.611328"/>
      <use xlink:href="#DejaVuSans-6f" x="1341.394531"/>
      <use xlink:href="#DejaVuSans-6e" x="1402.576172"/>
      <use xlink:href="#DejaVuSans-20" x="1465.955078"/>
      <use xlink:href="#DejaVuSans-28" x="1497.742188"/>
      <use xlink:href="#DejaVuSans-77" x="1536.755859"/>
      <use xlink:href="#DejaVuSans-61" x="1618.542969"/>
      <use xlink:href="#DejaVuSans-74" x="1679.822266"/>
      <use xlink:href="#DejaVuSans-74" x="1719.03125"/>
      <use xlink:href="#DejaVuSans-73" x="1758.240234"/>
      <use xlink:href="#DejaVuSans-29" x="1810.339844"/>
     </g>
    </g>
   </g>
   <g id="line2d_16">
    <path d="M 138.436364 369.36 
L 139.432991 369.36 
L 140.549346 324.13572 
L 140.961719 321.954904 
L 141.352754 369.36 
L 141.74516 317.552225 
L 142.009406 369.36 
L 142.813018 369.36 
L 143.076927 282.100612 
L 143.477548 364.569561 
L 143.863278 369.36 
L 144.12542 340.249941 
L 144.513832 369.36 
L 144.776719 325.394727 
L 145.041783 369.36 
L 152.766385 369.36 
L 153.058789 356.67963 
L 153.3236 369.36 
L 154.097154 369.36 
L 154.362771 367.676723 
L 154.877708 337.833012 
L 155.44991 369.36 
L 155.738886 363.896937 
L 156.479278 369.36 
L 157.283191 365.859976 
L 158.007405 364.975904 
L 158.280431 367.85295 
L 158.553518 368.465902 
L 158.827555 369.36 
L 182.45268 369.36 
L 182.735955 329.936643 
L 183.002438 369.36 
L 183.265421 368.214578 
L 183.528224 369.36 
L 183.790858 350.933395 
L 184.073989 369.36 
L 184.336527 254.84701 
L 184.600171 369.36 
L 184.861507 367.862088 
L 185.241945 369.36 
L 185.510437 301.285762 
L 185.772422 369.36 
L 186.034154 369.36 
L 186.517913 356.709858 
L 186.781715 367.417668 
L 187.045467 369.36 
L 187.570195 369.36 
L 187.92304 344.656619 
L 188.194563 369.36 
L 188.457402 369.36 
L 188.718738 261.385707 
L 188.981119 368.443389 
L 189.243357 369.36 
L 189.505197 369.36 
L 189.768433 367.734007 
L 190.030731 369.36 
L 190.293365 369.36 
L 190.555506 362.95382 
L 190.939276 369.36 
L 191.20191 366.554068 
L 191.464003 369.36 
L 191.987769 369.36 
L 192.25187 238.060659 
L 192.515527 369.36 
L 195.440289 369.36 
L 195.70314 101.377535 
L 195.966135 369.36 
L 196.227963 367.98989 
L 196.542764 369.36 
L 196.819134 369.36 
L 197.084138 324.724177 
L 197.348902 369.36 
L 197.883624 369.36 
L 198.166538 367.722957 
L 198.445531 369.36 
L 198.713518 369.36 
L 198.997298 339.716296 
L 199.259186 369.36 
L 199.553755 344.183551 
L 199.821032 369.36 
L 200.093566 369.36 
L 200.359135 357.609104 
L 200.637466 369.36 
L 201.04611 357.79917 
L 201.308348 369.36 
L 206.476561 369.36 
L 206.741577 243.575881 
L 207.006786 369.36 
L 207.27381 363.582622 
L 207.538116 369.36 
L 207.803734 369.36 
L 208.069303 366.739952 
L 208.330831 369.36 
L 208.593321 369.36 
L 208.858241 305.443992 
L 209.123196 369.36 
L 209.573205 369.36 
L 209.838522 353.053665 
L 210.109696 350.693729 
L 210.37571 369.36 
L 222.736184 369.36 
L 223.00019 333.864923 
L 223.264292 369.36 
L 223.841787 369.36 
L 224.112648 341.770795 
L 224.421759 369.36 
L 224.709977 369.36 
L 225.046681 346.558831 
L 225.36254 237.954915 
L 225.627147 325.776821 
L 225.96284 369.36 
L 226.244347 348.547547 
L 226.506392 344.543198 
L 226.76994 369.36 
L 227.03142 368.879581 
L 227.511294 369.36 
L 227.772822 316.543109 
L 228.160982 337.143452 
L 228.42352 320.090942 
L 228.685108 369.36 
L 228.946431 368.951219 
L 229.219218 291.643083 
L 229.601472 369.36 
L 229.863709 369.36 
L 230.126801 364.914506 
L 230.56163 369.36 
L 230.822965 366.8209 
L 231.084637 369.36 
L 231.612095 369.36 
L 232.003839 220.573244 
L 232.267135 369.36 
L 232.531189 369.36 
L 232.797011 184.901934 
L 233.063578 369.36 
L 233.473136 194.265621 
L 233.733353 369.36 
L 234.105973 369.36 
L 234.369016 334.430609 
L 234.858333 369.36 
L 235.129748 351.25231 
L 235.390421 369.36 
L 235.815159 252.32702 
L 236.151911 326.456985 
L 236.799181 369.36 
L 237.062621 359.74576 
L 237.3289 369.36 
L 237.59477 369.36 
L 237.858222 333.355054 
L 238.126714 369.36 
L 238.390455 369.36 
L 238.651887 247.19573 
L 238.915291 369.36 
L 239.177829 369.36 
L 239.742406 186.086582 
L 240.004499 353.305143 
L 240.265425 369.36 
L 241.073367 369.36 
L 241.359781 349.946932 
L 241.624484 369.36 
L 242.261458 369.36 
L 242.529145 362.218667 
L 242.79416 369.36 
L 243.322316 369.36 
L 243.585612 362.505336 
L 243.848607 369.36 
L 246.595292 369.36 
L 246.870496 364.874628 
L 247.145543 369.36 
L 248.296756 369.36 
L 248.570541 367.071161 
L 248.921522 369.36 
L 260.879005 369.36 
L 261.217164 331.112395 
L 261.481627 369.36 
L 261.868271 356.855551 
L 262.131772 369.36 
L 264.454922 369.36 
L 264.717965 367.529612 
L 264.981069 369.36 
L 268.693709 369.36 
L 268.95549 365.243064 
L 269.218786 369.36 
L 270.16113 369.36 
L 270.689646 343.368875 
L 271.178903 341.975126 
L 271.444773 367.312732 
L 271.960022 369.36 
L 273.080046 369.36 
L 273.344304 360.747768 
L 273.607348 369.36 
L 274.017411 367.658258 
L 274.282715 326.481408 
L 274.718459 369.36 
L 275.33798 333.758547 
L 275.804888 369.36 
L 276.071408 369.36 
L 276.628178 330.788003 
L 277.35576 360.052177 
L 277.625058 362.402989 
L 278.195697 369.36 
L 278.930748 352.852167 
L 279.209176 366.768639 
L 279.477367 369.36 
L 280.632369 359.092599 
L 280.904241 369.36 
L 281.17319 369.36 
L 281.441381 368.538486 
L 282.017709 369.36 
L 282.645301 367.276334 
L 283.340804 363.729242 
L 283.606831 369.36 
L 284.174944 369.36 
L 284.443833 368.184892 
L 284.94626 369.36 
L 285.336645 363.306967 
L 285.956828 369.36 
L 286.227689 364.828374 
L 286.503591 369.36 
L 286.775475 369.069063 
L 287.045579 369.36 
L 288.48768 369.36 
L 288.756268 363.683605 
L 289.024772 369.36 
L 289.76567 369.36 
L 290.035028 363.760757 
L 290.303568 369.36 
L 290.84131 369.36 
L 291.581004 357.657553 
L 292.163094 369.36 
L 294.089616 369.36 
L 294.381263 351.631762 
L 294.710894 369.36 
L 295.775083 369.36 
L 296.045343 325.070196 
L 296.31161 369.36 
L 296.846838 369.36 
L 297.116593 368.337526 
L 297.385338 369.36 
L 298.197574 369.36 
L 298.460364 357.171865 
L 298.768309 369.36 
L 299.035947 368.527838 
L 299.301215 369.36 
L 299.565161 362.240221 
L 299.831031 369.36 
L 300.362265 369.36 
L 300.626824 353.86259 
L 300.89249 369.36 
L 301.157855 369.36 
L 301.43977 363.38768 
L 301.703776 369.36 
L 301.968539 369.36 
L 302.235359 359.870964 
L 302.500928 369.36 
L 302.767255 369.36 
L 303.362155 335.148124 
L 303.625655 369.36 
L 304.953995 369.36 
L 305.219215 359.11767 
L 305.485891 369.36 
L 306.312152 369.36 
L 306.577673 368.524599 
L 306.843338 369.36 
L 307.108847 363.191569 
L 307.78276 369.36 
L 308.290082 364.041777 
L 308.57895 369.36 
L 309.901648 369.36 
L 310.167157 355.716876 
L 310.434146 369.36 
L 310.968303 369.36 
L 311.248451 345.584331 
L 311.732258 369.36 
L 312.648935 369.36 
L 313.263356 346.977575 
L 313.902712 365.149432 
L 314.530244 366.084586 
L 315.165305 369.36 
L 316.10937 363.7044 
L 316.849978 355.241267 
L 317.730823 366.681061 
L 319.095595 369.36 
L 320.033754 350.726324 
L 320.740298 367.840329 
L 321.008995 369.36 
L 321.934247 368.50903 
L 323.087168 367.288286 
L 323.798765 363.673037 
L 324.284293 365.866274 
L 324.623606 369.36 
L 325.444021 369.36 
L 325.980657 355.770179 
L 326.861152 369.36 
L 327.453839 369.36 
L 328.612918 315.968473 
L 328.876972 369.36 
L 329.225932 369.36 
L 329.502038 367.716062 
L 329.767667 369.36 
L 331.410807 369.36 
L 332.1671 364.279558 
L 332.504249 359.814691 
L 332.768158 272.233286 
L 333.045575 369.36 
L 333.307055 369.36 
L 333.572829 363.600254 
L 334.048313 369.36 
L 334.523244 345.459243 
L 334.788416 369.36 
L 335.274497 369.36 
L 335.79736 347.845509 
L 336.059237 369.36 
L 336.321883 369.36 
L 336.793783 367.036466 
L 337.288801 369.36 
L 337.551592 301.965198 
L 337.812566 369.36 
L 338.35702 369.36 
L 338.707893 367.709762 
L 338.970683 369.36 
L 339.233739 369.36 
L 339.745801 284.154633 
L 340.349878 369.36 
L 340.84172 350.024364 
L 341.10415 364.210522 
L 341.366893 321.058044 
L 341.640485 369.36 
L 341.908832 369.36 
L 342.171467 240.984609 
L 342.436074 369.36 
L 343.236354 369.36 
L 343.502729 368.248087 
L 343.772989 369.36 
L 344.071203 358.125735 
L 344.34797 369.36 
L 345.441965 369.36 
L 345.721006 353.814265 
L 345.998579 369.36 
L 346.275395 369.36 
L 346.638488 368.636046 
L 346.915352 369.36 
L 347.472218 369.36 
L 347.754627 369.085582 
L 348.039165 369.36 
L 348.410425 366.419843 
L 348.74506 369.36 
L 354.75558 369.36 
L 355.052073 362.545392 
L 355.349072 369.36 
L 358.013822 369.36 
L 358.286451 365.60873 
L 358.577147 369.36 
L 359.570948 369.36 
L 360.265994 368.303453 
L 360.560166 369.36 
L 360.829115 369.36 
L 361.098113 357.237532 
L 361.367615 369.36 
L 361.943149 369.36 
L 362.211485 361.106139 
L 362.477307 369.36 
L 363.089767 369.36 
L 363.355385 368.913347 
L 363.620196 369.36 
L 364.664347 369.36 
L 364.931528 360.53993 
L 365.710578 369.36 
L 366.009995 352.978972 
L 366.298309 369.36 
L 366.863499 351.79521 
L 367.125436 369.36 
L 367.388227 369.36 
L 367.661758 94.930626 
L 367.924309 369.36 
L 368.18574 368.102281 
L 368.67822 369.36 
L 369.131464 350.601697 
L 369.395169 369.36 
L 369.661641 280.874234 
L 369.922711 369.36 
L 370.380298 368.31079 
L 370.654948 290.674436 
L 370.919651 369.36 
L 371.305237 369.36 
L 371.56632 300.238172 
L 371.945399 369.36 
L 372.492523 313.102994 
L 372.764142 369.36 
L 373.812887 369.36 
L 374.115744 364.663475 
L 374.377777 369.36 
L 374.642432 191.006831 
L 375.032204 369.36 
L 375.464254 323.971967 
L 376.026726 328.741671 
L 376.290972 369.36 
L 377.079308 369.36 
L 377.390729 367.843424 
L 377.654229 369.36 
L 377.941894 260.70164 
L 378.203927 369.36 
L 378.46934 369.36 
L 378.731734 324.683194 
L 379.014708 369.36 
L 379.65007 369.36 
L 379.91357 151.476161 
L 380.17606 369.36 
L 380.782507 369.36 
L 381.044997 329.446858 
L 381.308906 369.36 
L 382.369006 369.36 
L 382.665644 343.279795 
L 382.928639 369.36 
L 383.19078 261.71734 
L 383.455183 369.36 
L 383.909486 325.585526 
L 384.186806 369.36 
L 385.581336 369.36 
L 386.047583 297.356317 
L 386.37274 369.36 
L 391.688972 369.36 
L 391.952364 347.003946 
L 392.212737 369.36 
L 392.48088 320.79137 
L 392.741903 369.36 
L 393.529168 369.36 
L 393.793126 349.21957 
L 394.167357 369.36 
L 394.428945 264.98127 
L 394.690473 369.36 
L 395.738665 369.36 
L 396.000854 367.724151 
L 396.265208 266.567222 
L 396.527542 369.36 
L 396.790597 367.276785 
L 397.052727 369.36 
L 397.85261 369.36 
L 398.115497 175.438048 
L 398.378648 369.36 
L 398.903328 369.36 
L 399.166768 274.643477 
L 399.427899 369.36 
L 400.220312 369.36 
L 400.482947 331.105018 
L 400.748011 326.860983 
L 401.011619 369.36 
L 401.274206 369.36 
L 401.537706 317.915811 
L 401.802313 369.36 
L 402.76792 369.36 
L 403.235838 355.344281 
L 403.499688 369.36 
L 403.766111 329.134272 
L 404.043744 369.36 
L 404.30971 276.254182 
L 404.577144 369.36 
L 406.506794 369.36 
L 406.778317 359.076353 
L 407.052955 369.36 
L 407.325032 351.789116 
L 407.596808 369.36 
L 407.865408 369.36 
L 408.150294 362.069113 
L 408.420952 369.36 
L 410.162121 369.36 
L 410.431779 367.31072 
L 410.698756 369.36 
L 410.965335 369.36 
L 411.23337 368.778216 
L 411.500756 369.36 
L 411.766469 369.36 
L 412.052679 368.875346 
L 412.416566 356.348273 
L 412.684204 369.36 
L 412.951842 356.839457 
L 413.219023 369.36 
L 414.64301 369.36 
L 416.156908 368.480767 
L 417.325874 369.36 
L 418.047755 366.33833 
L 418.696949 355.330121 
L 419.32655 367.809413 
L 419.595247 369.36 
L 420.396044 369.36 
L 420.665895 346.381812 
L 420.93363 369.36 
L 423.370807 369.36 
L 423.637482 358.084357 
L 423.902691 369.36 
L 424.167959 368.237086 
L 424.433228 325.022699 
L 424.698641 369.36 
L 425.231439 369.36 
L 425.494386 263.037177 
L 425.757935 369.36 
L 426.813692 369.36 
L 427.077842 330.674226 
L 427.343003 369.36 
L 427.608175 367.966998 
L 427.878375 369.36 
L 428.146314 369.36 
L 428.415419 367.361823 
L 428.680026 369.36 
L 428.945391 364.870938 
L 429.22644 369.36 
L 429.759395 369.36 
L 430.025866 310.63529 
L 430.299458 369.36 
L 431.031383 369.36 
L 431.303916 365.543447 
L 431.570291 369.36 
L 432.408809 369.36 
L 433.201174 362.290288 
L 433.467549 367.164174 
L 434.031729 369.36 
L 434.568857 369.36 
L 434.843508 368.799927 
L 435.115127 369.36 
L 435.381298 369.36 
L 435.648034 366.494866 
L 435.913952 369.36 
L 439.442153 369.36 
L 439.716852 358.032696 
L 439.990287 369.36 
L 445.420077 369.36 
L 445.694018 346.946339 
L 445.967658 369.36 
L 447.334042 369.36 
L 447.605457 361.669745 
L 448.567275 369.36 
L 448.842226 366.163871 
L 449.193508 369.36 
L 449.459282 341.91452 
L 449.725404 369.36 
L 451.140214 369.36 
L 451.408958 344.571032 
L 451.683813 369.36 
L 458.021751 369.36 
L 458.284999 340.959085 
L 458.548596 369.36 
L 461.110937 369.36 
L 461.373524 276.656302 
L 461.635761 369.36 
L 461.900067 369.36 
L 462.164169 327.200841 
L 462.472114 369.36 
L 463.533272 369.36 
L 463.822753 367.147052 
L 464.084533 369.36 
L 464.378309 369.36 
L 464.639836 283.438616 
L 464.902627 369.36 
L 466.490738 369.36 
L 466.754479 351.864806 
L 467.016921 369.36 
L 468.068854 369.36 
L 468.333605 368.258688 
L 468.622834 369.36 
L 469.409702 369.36 
L 469.937906 351.86938 
L 470.199746 369.36 
L 470.461479 369.36 
L 470.724269 165.384818 
L 470.984089 369.36 
L 471.250055 369.36 
L 471.511439 311.915715 
L 471.772858 369.36 
L 472.04574 336.47692 
L 472.307677 369.36 
L 473.093439 369.36 
L 473.367777 294.715207 
L 473.629666 369.36 
L 474.157412 369.36 
L 474.42238 367.214329 
L 474.687745 369.36 
L 474.957704 369.36 
L 475.220892 368.852344 
L 475.483791 369.36 
L 475.744765 310.004635 
L 476.005896 369.36 
L 477.322231 369.36 
L 477.589509 348.215656 
L 477.851842 369.36 
L 478.11746 327.707543 
L 478.38369 369.36 
L 478.76378 353.036551 
L 479.039176 367.577948 
L 479.304348 369.36 
L 480.692672 369.36 
L 480.961007 360.542172 
L 481.265223 369.36 
L 482.12574 369.36 
L 482.390299 368.968333 
L 482.657732 365.552411 
L 483.197639 369.36 
L 485.117005 369.36 
L 485.439275 366.99278 
L 485.710738 369.36 
L 487.436571 369.36 
L 488.838174 368.892012 
L 489.107664 367.874429 
L 489.376818 369.36 
L 489.645418 368.51022 
L 489.920562 357.579457 
L 490.224621 369.36 
L 492.228894 369.36 
L 492.501776 344.925168 
L 492.770015 369.36 
L 513.170396 369.36 
L 513.435713 258.278797 
L 513.698095 369.36 
L 521.605981 369.36 
L 522.146045 360.278155 
L 522.496869 369.36 
L 525.295973 369.36 
L 525.560724 355.516257 
L 525.824838 369.36 
L 529.779581 369.36 
L 530.111437 353.370478 
L 530.393954 369.36 
L 531.24984 369.36 
L 531.513136 367.398027 
L 531.933327 369.36 
L 537.517955 369.36 
L 537.781912 332.082316 
L 538.047879 369.36 
L 538.319594 344.7827 
L 538.584358 369.36 
L 538.847906 369.36 
L 539.557686 368.457827 
L 540.106121 351.538333 
L 540.624642 359.956286 
L 541.053109 369.36 
L 541.782711 346.40734 
L 542.318036 369.36 
L 543.03745 368.0091 
L 543.655408 369.36 
L 543.919919 345.010435 
L 544.195928 365.632921 
L 544.738818 369.36 
L 545.003473 366.599434 
L 545.267479 369.36 
L 546.6001 369.36 
L 546.867991 349.068981 
L 547.133608 369.36 
L 547.401703 343.004329 
L 547.669185 369.36 
L 548.723788 369.36 
L 548.995456 363.240881 
L 549.332099 369.36 
L 551.150212 369.36 
L 552.229737 356.144783 
L 552.503317 369.36 
L 555.714385 369.36 
L 557.311324 366.322068 
L 557.694637 368.923904 
L 557.980437 369.36 
L 558.266695 369.36 
L 560.656133 369.213075 
L 563.167415 368.356173 
L 563.820242 369.36 
L 568.517963 369.36 
L 568.780549 368.563025 
L 569.044146 369.36 
L 570.671601 369.36 
L 570.935558 159.619811 
L 571.251826 369.36 
L 571.776301 369.36 
L 572.042075 342.699812 
L 572.317375 369.36 
L 572.582283 330.466237 
L 572.865305 369.36 
L 573.389383 369.36 
L 573.757059 367.949451 
L 574.023325 369.36 
L 574.80762 369.36 
L 575.069449 335.364315 
L 575.341429 369.36 
L 575.869187 369.36 
L 576.179549 281.29379 
L 576.501422 369.36 
L 576.7639 369.36 
L 577.028158 167.536512 
L 577.292717 369.36 
L 577.780975 359.496387 
L 578.043718 369.36 
L 580.206846 369.36 
L 580.469986 333.418322 
L 580.731213 369.36 
L 581.261642 369.36 
L 581.523326 197.649281 
L 581.784204 369.36 
L 582.572576 369.36 
L 582.834609 368.271796 
L 583.095993 369.36 
L 584.405111 369.36 
L 584.668816 321.921223 
L 584.930187 369.36 
L 585.195865 369.36 
L 585.458956 274.610317 
L 586.01895 338.847682 
L 586.792191 364.720013 
L 587.350922 332.386852 
L 587.621579 336.442643 
L 587.925939 321.519095 
L 588.189993 368.176144 
L 588.453601 299.734329 
L 589.08835 369.36 
L 589.353619 369.36 
L 589.628221 307.306484 
L 589.893032 369.36 
L 590.166516 368.881532 
L 590.651382 325.422937 
L 590.914738 368.91355 
L 591.178179 343.652272 
L 591.441535 369.36 
L 591.812278 318.666726 
L 592.075273 369.36 
L 593.711412 369.36 
L 594.084032 328.589925 
L 594.347123 368.657192 
L 594.609313 360.566861 
L 594.870997 369.36 
L 595.134293 338.381106 
L 595.397132 368.904846 
L 595.660428 334.403454 
L 595.92459 369.36 
L 596.19141 368.420549 
L 596.453046 369.36 
L 596.766294 357.582385 
L 597.028327 369.36 
L 597.292682 368.039566 
L 597.556435 369.36 
L 597.822148 348.895173 
L 598.159153 367.671649 
L 598.42643 367.781023 
L 598.776858 281.435814 
L 599.039396 345.746075 
L 599.302042 369.36 
L 599.56529 248.014192 
L 599.828887 369.36 
L 600.109431 369.36 
L 600.397553 367.213146 
L 600.659441 369.36 
L 600.993162 369.36 
L 601.312858 296.596304 
L 601.594064 322.12208 
L 601.85742 365.317119 
L 602.208293 333.5095 
L 602.46982 369.36 
L 602.753853 369.36 
L 603.041217 365.824844 
L 603.304056 360.619663 
L 603.617762 362.027944 
L 603.879037 369.36 
L 604.140216 364.4386 
L 604.402249 343.008861 
L 604.664835 361.815462 
L 604.944429 369.36 
L 605.283454 357.03776 
L 605.687347 358.552192 
L 606.212784 335.13493 
L 606.574061 368.330712 
L 606.837405 335.03384 
L 607.242116 348.107701 
L 607.511113 335.989996 
L 607.780868 369.36 
L 608.040327 367.609834 
L 608.304477 357.307201 
L 608.617016 360.458721 
L 608.946202 306.959336 
L 609.402718 348.779685 
L 609.665256 189.576999 
L 610.015479 343.318453 
L 610.30834 368.490216 
L 610.570169 369.36 
L 610.832154 309.458089 
L 611.335796 362.038114 
L 611.596975 311.419904 
L 611.859056 367.289353 
L 612.510873 333.880707 
L 612.774012 333.368949 
L 613.035901 316.75926 
L 613.297982 368.954385 
L 613.960901 342.473431 
L 614.225303 272.075479 
L 614.488503 369.36 
L 614.751185 366.511105 
L 615.02064 347.720991 
L 615.328187 273.572512 
L 615.591483 369.36 
L 615.911985 311.402169 
L 616.180585 308.240391 
L 616.583022 367.236126 
L 616.846114 304.118939 
L 617.108808 363.98808 
L 617.374426 356.895041 
L 617.63777 260.471708 
L 617.906719 368.001441 
L 618.259312 330.323843 
L 618.521489 360.708785 
L 618.791196 285.81746 
L 619.061059 366.338628 
L 619.324499 258.513796 
L 619.586845 300.762745 
L 619.850189 369.36 
L 620.113942 368.832862 
L 620.63968 328.891732 
L 621.022331 339.658995 
L 621.284869 369.056833 
L 621.547215 323.245188 
L 621.810559 369.36 
L 622.073758 368.587792 
L 622.336345 369.36 
L 622.599544 257.134103 
L 622.862792 368.930781 
L 623.125727 363.30912 
L 623.389588 311.360175 
L 623.65268 369.36 
L 623.915976 364.828411 
L 624.178165 369.36 
L 624.503358 333.187116 
L 624.766858 368.700573 
L 625.028891 320.560579 
L 625.291634 369.36 
L 625.554785 369.256588 
L 625.852794 333.148184 
L 626.370197 321.460574 
L 626.63158 368.71348 
L 626.893469 369.36 
L 627.155598 273.779675 
L 627.417186 367.214456 
L 627.747731 354.779433 
L 628.010269 351.780324 
L 628.271196 160.786213 
L 628.535755 369.36 
L 628.945854 269.027507 
L 629.207334 345.391051 
L 629.469679 93.847542 
L 629.730654 366.733678 
L 629.992639 161.07545 
L 630.292308 316.765082 
L 630.560956 285.27 
L 630.821377 368.580157 
L 631.083867 290.592659 
L 631.367346 366.370523 
L 631.665957 368.031866 
L 631.928699 333.561126 
L 632.189421 339.138871 
L 632.451454 369.36 
L 632.90459 214.230923 
L 633.16708 367.277965 
L 633.488653 284.71217 
L 633.752598 360.674546 
L 634.0167 363.431747 
L 634.278179 369.36 
L 634.54512 351.412928 
L 634.850995 294.247054 
L 635.113738 366.737831 
L 635.377383 257.582008 
L 635.658288 253.282934 
L 635.984647 363.128117 
L 636.247233 295.677582 
L 636.560278 368.046149 
L 636.824031 236.334855 
L 637.438404 369.36 
L 637.729954 366.109112 
L 638.07901 275.153726 
L 638.530787 315.847514 
L 638.792928 367.6668 
L 639.054913 314.069841 
L 639.363255 224.110198 
L 639.629786 368.047403 
L 639.990606 340.603573 
L 640.656833 369.36 
L 640.961096 308.835893 
L 641.250529 369.36 
L 641.656443 314.094265 
L 641.917874 367.946245 
L 642.260484 363.485802 
L 642.808161 258.886595 
L 643.083665 369.36 
L 643.345903 305.201734 
L 643.675642 369.36 
L 643.93788 369.36 
L 644.283364 333.880794 
L 644.562705 367.367486 
L 644.878107 369.36 
L 645.17163 277.079317 
L 645.434625 272.486937 
L 645.696453 364.434426 
L 645.994162 343.864468 
L 646.259178 266.747265 
L 646.524542 365.057122 
L 646.836119 217.45549 
L 647.102795 306.212363 
L 647.369928 260.001967 
L 647.647044 242.413756 
L 647.909787 369.36 
L 648.180697 295.668459 
L 648.443596 367.537429 
L 648.725703 369.36 
L 649.071645 358.648478 
L 649.332006 314.45006 
L 649.593846 347.257757 
L 649.855975 365.842253 
L 650.115398 253.492857 
L 650.638803 367.384263 
L 650.898622 247.887076 
L 651.160559 334.133053 
L 651.695775 344.226343 
L 651.957664 307.290367 
L 652.219444 367.391738 
L 652.482139 369.36 
L 652.743775 291.588729 
L 653.008177 343.544116 
L 653.273337 369.011379 
L 653.534817 369.36 
L 653.797163 343.354783 
L 654.059196 368.515097 
L 654.322744 344.97631 
L 654.596986 299.615368 
L 654.858971 368.440955 
L 655.215906 358.036761 
L 655.484494 306.829723 
L 655.882036 310.581389 
L 656.404141 368.763064 
L 656.664719 259.828998 
L 656.926246 267.871399 
L 657.188436 242.94849 
L 657.450012 367.626004 
L 657.711804 301.383593 
L 658.040425 364.638216 
L 658.30277 368.99787 
L 658.5649 183.522916 
L 658.826692 202.949457 
L 659.087715 369.36 
L 659.443687 334.616268 
L 659.706983 367.484335 
L 659.970279 140.434434 
L 660.232168 303.833713 
L 660.495716 368.082712 
L 660.757448 366.862429 
L 661.017966 297.946076 
L 661.278796 368.423419 
L 661.543355 291.78138 
L 661.807601 369.36 
L 662.072569 369.36 
L 662.442518 306.839885 
L 662.705357 324.964462 
L 662.967041 225.454542 
L 663.239515 368.329775 
L 663.502113 160.918077 
L 663.78659 301.005801 
L 664.156696 243.818763 
L 664.417671 275.442594 
L 664.681171 366.158762 
L 664.942699 66.96 
L 665.206295 168.94702 
L 665.470349 366.796569 
L 665.733549 93.813037 
L 665.997145 302.253815 
L 666.259238 363.656842 
L 666.52334 351.407361 
L 666.785626 369.36 
L 667.049379 367.760837 
L 667.576981 270.898582 
L 668.102262 363.927963 
L 668.364295 345.11538 
L 668.64686 369.36 
L 668.90935 363.007761 
L 669.171491 321.720442 
L 669.521413 318.474875 
L 669.787127 190.934655 
L 670.050074 366.474236 
L 670.35459 361.933492 
L 670.617273 321.416781 
L 671.013961 366.530575 
L 671.276812 309.910452 
L 671.538339 369.36 
L 671.800372 196.078128 
L 672.063873 369.36 
L 672.330958 366.179615 
L 672.595107 319.903939 
L 672.911784 320.275264 
L 673.174876 369.36 
L 673.464561 367.514894 
L 673.7274 369.36 
L 674.038123 205.355563 
L 674.297835 253.860256 
L 674.564967 368.107978 
L 674.888705 278.040677 
L 675.177019 143.09035 
L 675.545706 362.098149 
L 675.808352 333.546955 
L 676.06917 369.36 
L 676.414799 270.603373 
L 676.937108 367.958907 
L 677.228298 152.318423 
L 677.522578 330.081568 
L 677.783396 308.554195 
L 678.045237 369.36 
L 678.33325 298.397593 
L 678.671566 174.535699 
L 678.933298 300.357255 
L 679.195078 364.882509 
L 679.455957 355.797675 
L 679.717797 352.687856 
L 679.978266 369.36 
L 680.23823 304.35434 
L 680.764113 366.939997 
L 681.027818 190.071234 
L 681.441862 333.30878 
L 681.702981 317.226656 
L 681.965675 369.36 
L 682.267461 364.862157 
L 682.528243 355.771635 
L 683.074056 240.841114 
L 683.335331 369.36 
L 683.871618 270.409494 
L 684.187128 365.504378 
L 684.450267 274.838831 
L 684.711555 239.253679 
L 685.041595 369.36 
L 685.757678 325.52807 
L 686.018652 369.36 
L 686.282706 322.383748 
L 686.808889 368.359051 
L 687.121789 365.621977 
L 687.384832 369.36 
L 687.646107 321.291284 
L 688.22027 356.749216 
L 688.482568 342.138696 
L 688.746056 368.853915 
L 689.022776 285.863979 
L 689.312461 369.36 
L 689.632915 316.886043 
L 689.895958 369.36 
L 690.288665 313.702305 
L 690.549639 369.36 
L 690.811215 281.103069 
L 691.196043 282.536453 
L 691.722286 369.36 
L 691.98397 247.326229 
L 692.303221 331.846899 
L 692.609542 362.678608 
L 692.871178 368.220035 
L 693.136037 289.073588 
L 693.397673 272.218361 
L 693.658492 368.77136 
L 693.921042 189.098666 
L 694.183832 331.917173 
L 694.449895 368.323887 
L 694.710929 216.592938 
L 694.972157 321.426454 
L 695.234743 291.547379 
L 695.498243 361.505318 
L 695.761395 255.930565 
L 696.28617 366.675371 
L 696.855847 263.670575 
L 697.123738 369.030358 
L 697.386781 352.426302 
L 697.64891 228.874637 
L 697.910245 361.732692 
L 698.173289 368.430461 
L 698.441685 307.708252 
L 698.704163 113.373634 
L 698.966304 368.177992 
L 699.22824 260.942031 
L 699.490622 221.824548 
L 699.7512 367.129365 
L 700.025802 369.36 
L 700.329404 321.699604 
L 700.592953 243.410315 
L 700.887125 364.199338 
L 701.156423 364.821947 
L 701.434658 317.207741 
L 701.700275 367.411259 
L 702.192058 347.897244 
L 702.575984 368.424764 
L 702.900671 343.421372 
L 703.325505 356.821489 
L 703.612773 350.764661 
L 703.918348 369.36 
L 704.194454 369.36 
L 704.489636 289.894934 
L 704.752523 369.36 
L 705.023084 367.417781 
L 705.377746 369.36 
L 705.739925 356.923649 
L 706.017558 317.135912 
L 706.292197 369.36 
L 706.602318 368.856697 
L 706.950665 313.219618 
L 707.214021 306.082348 
L 707.737329 369.36 
L 708.002742 365.279054 
L 708.264583 311.629799 
L 708.552897 332.841528 
L 708.818069 367.687783 
L 709.34264 268.174331 
L 709.766921 303.492581 
L 710.029206 366.008655 
L 710.29326 279.458826 
L 710.555606 298.351451 
L 710.816977 368.307725 
L 711.133353 369.36 
L 711.398056 343.799763 
L 711.882935 313.404908 
L 712.144968 343.965449 
L 712.406904 290.669218 
L 712.669743 366.974366 
L 712.933592 345.705153 
L 713.327309 261.062426 
L 713.883466 369.36 
L 714.194682 367.07341 
L 714.506368 350.689194 
L 714.819051 369.36 
L 715.134922 307.584054 
L 715.416128 369.36 
L 715.722953 368.954382 
L 715.98726 238.225239 
L 716.278966 369.36 
L 717.077526 369.36 
L 717.432945 258.827079 
L 717.696747 369.36 
L 718.008384 213.074343 
L 718.33686 341.622956 
L 718.649495 369.36 
L 718.968337 339.423604 
L 719.231585 369.36 
L 719.580136 368.628309 
L 719.896356 369.36 
L 720.166255 369.36 
L 720.461342 360.951427 
L 720.773628 369.36 
L 721.095297 342.239071 
L 721.402327 369.36 
L 721.821158 352.401604 
L 722.084202 290.660705 
L 722.347606 369.36 
L 722.614631 367.724808 
L 722.964301 369.36 
L 723.227392 369.36 
L 723.489581 226.252875 
L 723.793292 369.36 
L 724.200011 369.36 
L 724.518095 324.056935 
L 724.779635 369.36 
L 725.085703 369.36 
L 725.349107 354.837294 
L 725.747106 369.36 
L 726.012014 368.311674 
L 726.335847 369.36 
L 726.872988 338.304636 
L 727.21917 369.36 
L 728.047355 369.36 
L 728.310254 367.966871 
L 728.574404 369.36 
L 728.835378 299.709826 
L 729.099841 369.36 
L 729.422664 303.553363 
L 729.685058 369.36 
L 729.987554 327.40556 
L 730.297206 369.36 
L 730.602985 365.839337 
L 730.888425 369.36 
L 731.151925 364.251981 
L 731.528731 369.36 
L 731.871136 315.428512 
L 732.135237 366.817959 
L 732.39798 369.36 
L 732.718999 310.306596 
L 732.986529 369.36 
L 733.314452 366.712232 
L 733.646212 369.36 
L 733.91284 333.055332 
L 734.179107 369.36 
L 734.443317 329.381611 
L 734.742529 369.36 
L 735.333952 369.36 
L 735.82387 341.965323 
L 736.217322 355.281936 
L 736.488184 333.564385 
L 736.803802 369.36 
L 737.073966 368.55373 
L 737.342711 369.36 
L 737.611047 369.36 
L 737.87848 342.259052 
L 738.148644 369.36 
L 738.417641 344.584991 
L 738.690067 369.36 
L 738.95916 368.264136 
L 739.226245 369.36 
L 739.494136 352.521356 
L 739.778866 369.36 
L 740.177226 369.040499 
L 740.445718 342.442429 
L 740.711479 369.36 
L 740.984157 338.067707 
L 741.2523 369.36 
L 741.51989 369.36 
L 741.787829 315.177135 
L 742.061565 369.36 
L 742.328746 367.664341 
L 742.59956 369.36 
L 742.867703 358.008727 
L 743.151531 369.36 
L 743.472346 366.340415 
L 743.743255 369.36 
L 744.014923 347.623595 
L 744.324984 369.36 
L 744.6687 369.36 
L 744.935929 363.613504 
L 745.20655 327.185317 
L 745.475644 364.720622 
L 745.744088 368.831111 
L 746.072107 369.36 
L 746.348429 360.087858 
L 746.619748 369.36 
L 746.892474 363.565763 
L 747.163636 369.36 
L 747.163636 369.36 
" clip-path="url(#p04ad0f584e)" style="fill: none; stroke: #ffa500; stroke-width: 1.5; stroke-linecap: square"/>
   </g>
   <g id="patch_3">
    <path d="M 108 384.48 
L 108 51.84 
" style="fill: none; stroke: #000000; stroke-width: 0.8; stroke-linejoin: miter; stroke-linecap: square"/>
   </g>
   <g id="patch_4">
    <path d="M 777.6 384.48 
L 777.6 51.84 
" style="fill: none; stroke: #000000; stroke-width: 0.8; stroke-linejoin: miter; stroke-linecap: square"/>
   </g>
   <g id="patch_5">
    <path d="M 108 384.48 
L 777.6 384.48 
" style="fill: none; stroke: #000000; stroke-width: 0.8; stroke-linejoin: miter; stroke-linecap: square"/>
   </g>
   <g id="patch_6">
    <path d="M 108 51.84 
L 777.6 51.84 
" style="fill: none; stroke: #000000; stroke-width: 0.8; stroke-linejoin: miter; stroke-linecap: square"/>
   </g>
   <g id="text_18">
    <!-- Effective (CPU+GPU) Power Consumption over Time -->
    <g transform="translate(286.494375 45.84) scale(0.12 -0.12)">
     <defs>
      <path id="DejaVuSans-55" d="M 556 4666 
L 1191 4666 
L 1191 1831 
Q 1191 1081 1462 751 
Q 1734 422 2344 422 
Q 2950 422 3222 751 
Q 3494 1081 3494 1831 
L 3494 4666 
L 4128 4666 
L 4128 1753 
Q 4128 841 3676 375 
Q 3225 -91 2344 -91 
Q 1459 -91 1007 375 
Q 556 841 556 1753 
L 556 4666 
z
" transform="scale(0.015625)"/>
      <path id="DejaVuSans-2b" d="M 2944 4013 
L 2944 2272 
L 4684 2272 
L 4684 1741 
L 2944 1741 
L 2944 0 
L 2419 0 
L 2419 1741 
L 678 1741 
L 678 2272 
L 2419 2272 
L 2419 4013 
L 2944 4013 
z
" transform="scale(0.015625)"/>
      <path id="DejaVuSans-47" d="M 3809 666 
L 3809 1919 
L 2778 1919 
L 2778 2438 
L 4434 2438 
L 4434 434 
Q 4069 175 3628 42 
Q 3188 -91 2688 -91 
Q 1594 -91 976 548 
Q 359 1188 359 2328 
Q 359 3472 976 4111 
Q 1594 4750 2688 4750 
Q 3144 4750 3555 4637 
Q 3966 4525 4313 4306 
L 4313 3634 
Q 3963 3931 3569 4081 
Q 3175 4231 2741 4231 
Q 1884 4231 1454 3753 
Q 1025 3275 1025 2328 
Q 1025 1384 1454 906 
Q 1884 428 2741 428 
Q 3075 428 3337 486 
Q 3600 544 3809 666 
z
" transform="scale(0.015625)"/>
     </defs>
     <use xlink:href="#DejaVuSans-45"/>
     <use xlink:href="#DejaVuSans-66" x="63.183594"/>
     <use xlink:href="#DejaVuSans-66" x="98.388672"/>
     <use xlink:href="#DejaVuSans-65" x="133.59375"/>
     <use xlink:href="#DejaVuSans-63" x="195.117188"/>
     <use xlink:href="#DejaVuSans-74" x="250.097656"/>
     <use xlink:href="#DejaVuSans-69" x="289.306641"/>
     <use xlink:href="#DejaVuSans-76" x="317.089844"/>
     <use xlink:href="#DejaVuSans-65" x="376.269531"/>
     <use xlink:href="#DejaVuSans-20" x="437.792969"/>
     <use xlink:href="#DejaVuSans-28" x="469.580078"/>
     <use xlink:href="#DejaVuSans-43" x="508.59375"/>
     <use xlink:href="#DejaVuSans-50" x="578.417969"/>
     <use xlink:href="#DejaVuSans-55" x="638.720703"/>
     <use xlink:href="#DejaVuSans-2b" x="711.914062"/>
     <use xlink:href="#DejaVuSans-47" x="795.703125"/>
     <use xlink:href="#DejaVuSans-50" x="873.193359"/>
     <use xlink:href="#DejaVuSans-55" x="933.496094"/>
     <use xlink:href="#DejaVuSans-29" x="1006.689453"/>
     <use xlink:href="#DejaVuSans-20" x="1045.703125"/>
     <use xlink:href="#DejaVuSans-50" x="1077.490234"/>
     <use xlink:href="#DejaVuSans-6f" x="1134.167969"/>
     <use xlink:href="#DejaVuSans-77" x="1195.349609"/>
     <use xlink:href="#DejaVuSans-65" x="1277.136719"/>
     <use xlink:href="#DejaVuSans-72" x="1338.660156"/>
     <use xlink:href="#DejaVuSans-20" x="1379.773438"/>
     <use xlink:href="#DejaVuSans-43" x="1411.560547"/>
     <use xlink:href="#DejaVuSans-6f" x="1481.384766"/>
     <use xlink:href="#DejaVuSans-6e" x="1542.566406"/>
     <use xlink:href="#DejaVuSans-73" x="1605.945312"/>
     <use xlink:href="#DejaVuSans-75" x="1658.044922"/>
     <use xlink:href="#DejaVuSans-6d" x="1721.423828"/>
     <use xlink:href="#DejaVuSans-70" x="1818.835938"/>
     <use xlink:href="#DejaVuSans-74" x="1882.3125"/>
     <use xlink:href="#DejaVuSans-69" x="1921.521484"/>
     <use xlink:href="#DejaVuSans-6f" x="1949.304688"/>
     <use xlink:href="#DejaVuSans-6e" x="2010.486328"/>
     <use xlink:href="#DejaVuSans-20" x="2073.865234"/>
     <use xlink:href="#DejaVuSans-6f" x="2105.652344"/>
     <use xlink:href="#DejaVuSans-76" x="2166.833984"/>
     <use xlink:href="#DejaVuSans-65" x="2226.013672"/>
     <use xlink:href="#DejaVuSans-72" x="2287.537109"/>
     <use xlink:href="#DejaVuSans-20" x="2328.650391"/>
     <use xlink:href="#DejaVuSans-54" x="2360.4375"/>
     <use xlink:href="#DejaVuSans-69" x="2418.396484"/>
     <use xlink:href="#DejaVuSans-6d" x="2446.179688"/>
     <use xlink:href="#DejaVuSans-65" x="2543.591797"/>
    </g>
   </g>
   <g id="legend_1">
    <g id="patch_7">
     <path d="M 115 74.518125 
L 284.976562 74.518125 
Q 286.976562 74.518125 286.976562 72.518125 
L 286.976562 58.84 
Q 286.976562 56.84 284.976562 56.84 
L 115 56.84 
Q 113 56.84 113 58.84 
L 113 72.518125 
Q 113 74.518125 115 74.518125 
z
" style="fill: #ffffff; opacity: 0.8; stroke: #cccccc; stroke-linejoin: miter"/>
    </g>
    <g id="line2d_17">
     <path d="M 117 64.938438 
L 127 64.938438 
L 137 64.938438 
" style="fill: none; stroke: #ffa500; stroke-width: 1.5; stroke-linecap: square"/>
    </g>
    <g id="text_19">
     <!-- Effective (CPU+GPU) Power -->
     <g transform="translate(145 68.438438) scale(0.1 -0.1)">
      <use xlink:href="#DejaVuSans-45"/>
      <use xlink:href="#DejaVuSans-66" x="63.183594"/>
      <use xlink:href="#DejaVuSans-66" x="98.388672"/>
      <use xlink:href="#DejaVuSans-65" x="133.59375"/>
      <use xlink:href="#DejaVuSans-63" x="195.117188"/>
      <use xlink:href="#DejaVuSans-74" x="250.097656"/>
      <use xlink:href="#DejaVuSans-69" x="289.306641"/>
      <use xlink:href="#DejaVuSans-76" x="317.089844"/>
      <use xlink:href="#DejaVuSans-65" x="376.269531"/>
      <use xlink:href="#DejaVuSans-20" x="437.792969"/>
      <use xlink:href="#DejaVuSans-28" x="469.580078"/>
      <use xlink:href="#DejaVuSans-43" x="508.59375"/>
      <use xlink:href="#DejaVuSans-50" x="578.417969"/>
      <use xlink:href="#DejaVuSans-55" x="638.720703"/>
      <use xlink:href="#DejaVuSans-2b" x="711.914062"/>
      <use xlink:href="#DejaVuSans-47" x="795.703125"/>
      <use xlink:href="#DejaVuSans-50" x="873.193359"/>
      <use xlink:href="#DejaVuSans-55" x="933.496094"/>
      <use xlink:href="#DejaVuSans-29" x="1006.689453"/>
      <use xlink:href="#DejaVuSans-20" x="1045.703125"/>
      <use xlink:href="#DejaVuSans-50" x="1077.490234"/>
      <use xlink:href="#DejaVuSans-6f" x="1134.167969"/>
      <use xlink:href="#DejaVuSans-77" x="1195.349609"/>
      <use xlink:href="#DejaVuSans-65" x="1277.136719"/>
      <use xlink:href="#DejaVuSans-72" x="1338.660156"/>
     </g>
    </g>
   </g>
  </g>
 </g>
 <defs>
  <clipPath id="p04ad0f584e">
   <rect x="108" y="51.84" width="669.6" height="332.64"/>
  </clipPath>
 </defs>
</svg>
