<?xml version="1.0" encoding="utf-8" standalone="no"?>
<!DOCTYPE svg PUBLIC "-//W3C//DTD SVG 1.1//EN"
  "http://www.w3.org/Graphics/SVG/1.1/DTD/svg11.dtd">
<svg xmlns:xlink="http://www.w3.org/1999/xlink" width="864pt" height="432pt" viewBox="0 0 864 432" xmlns="http://www.w3.org/2000/svg" version="1.1">
 <metadata>
  <rdf:RDF xmlns:dc="http://purl.org/dc/elements/1.1/" xmlns:cc="http://creativecommons.org/ns#" xmlns:rdf="http://www.w3.org/1999/02/22-rdf-syntax-ns#">
   <cc:Work>
    <dc:type rdf:resource="http://purl.org/dc/dcmitype/StillImage"/>
    <dc:date>2025-05-14T18:11:29.342352</dc:date>
    <dc:format>image/svg+xml</dc:format>
    <dc:creator>
     <cc:Agent>
      <dc:title>Matplotlib v3.6.3, https://matplotlib.org/</dc:title>
     </cc:Agent>
    </dc:creator>
   </cc:Work>
  </rdf:RDF>
 </metadata>
 <defs>
  <style type="text/css">*{stroke-linejoin: round; stroke-linecap: butt}</style>
 </defs>
 <g id="figure_1">
  <g id="patch_1">
   <path d="M 0 432 
L 864 432 
L 864 0 
L 0 0 
z
" style="fill: #ffffff"/>
  </g>
  <g id="axes_1">
   <g id="patch_2">
    <path d="M 108 384.48 
L 777.6 384.48 
L 777.6 51.84 
L 108 51.84 
z
" style="fill: #ffffff"/>
   </g>
   <g id="matplotlib.axis_1">
    <g id="xtick_1">
     <g id="line2d_1">
      <defs>
       <path id="m8e2eda162e" d="M 0 0 
L 0 3.5 
" style="stroke: #000000; stroke-width: 0.8"/>
      </defs>
      <g>
       <use xlink:href="#m8e2eda162e" x="138.436364" y="384.48" style="stroke: #000000; stroke-width: 0.8"/>
      </g>
     </g>
     <g id="text_1">
      <!-- 0 -->
      <g transform="translate(135.255114 399.078438) scale(0.1 -0.1)">
       <defs>
        <path id="DejaVuSans-30" d="M 2034 4250 
Q 1547 4250 1301 3770 
Q 1056 3291 1056 2328 
Q 1056 1369 1301 889 
Q 1547 409 2034 409 
Q 2525 409 2770 889 
Q 3016 1369 3016 2328 
Q 3016 3291 2770 3770 
Q 2525 4250 2034 4250 
z
M 2034 4750 
Q 2819 4750 3233 4129 
Q 3647 3509 3647 2328 
Q 3647 1150 3233 529 
Q 2819 -91 2034 -91 
Q 1250 -91 836 529 
Q 422 1150 422 2328 
Q 422 3509 836 4129 
Q 1250 4750 2034 4750 
z
" transform="scale(0.015625)"/>
       </defs>
       <use xlink:href="#DejaVuSans-30"/>
      </g>
     </g>
    </g>
    <g id="xtick_2">
     <g id="line2d_2">
      <g>
       <use xlink:href="#m8e2eda162e" x="239.335686" y="384.48" style="stroke: #000000; stroke-width: 0.8"/>
      </g>
     </g>
     <g id="text_2">
      <!-- 2 -->
      <g transform="translate(236.154436 399.078438) scale(0.1 -0.1)">
       <defs>
        <path id="DejaVuSans-32" d="M 1228 531 
L 3431 531 
L 3431 0 
L 469 0 
L 469 531 
Q 828 903 1448 1529 
Q 2069 2156 2228 2338 
Q 2531 2678 2651 2914 
Q 2772 3150 2772 3378 
Q 2772 3750 2511 3984 
Q 2250 4219 1831 4219 
Q 1534 4219 1204 4116 
Q 875 4013 500 3803 
L 500 4441 
Q 881 4594 1212 4672 
Q 1544 4750 1819 4750 
Q 2544 4750 2975 4387 
Q 3406 4025 3406 3419 
Q 3406 3131 3298 2873 
Q 3191 2616 2906 2266 
Q 2828 2175 2409 1742 
Q 1991 1309 1228 531 
z
" transform="scale(0.015625)"/>
       </defs>
       <use xlink:href="#DejaVuSans-32"/>
      </g>
     </g>
    </g>
    <g id="xtick_3">
     <g id="line2d_3">
      <g>
       <use xlink:href="#m8e2eda162e" x="340.235009" y="384.48" style="stroke: #000000; stroke-width: 0.8"/>
      </g>
     </g>
     <g id="text_3">
      <!-- 4 -->
      <g transform="translate(337.053759 399.078438) scale(0.1 -0.1)">
       <defs>
        <path id="DejaVuSans-34" d="M 2419 4116 
L 825 1625 
L 2419 1625 
L 2419 4116 
z
M 2253 4666 
L 3047 4666 
L 3047 1625 
L 3713 1625 
L 3713 1100 
L 3047 1100 
L 3047 0 
L 2419 0 
L 2419 1100 
L 313 1100 
L 313 1709 
L 2253 4666 
z
" transform="scale(0.015625)"/>
       </defs>
       <use xlink:href="#DejaVuSans-34"/>
      </g>
     </g>
    </g>
    <g id="xtick_4">
     <g id="line2d_4">
      <g>
       <use xlink:href="#m8e2eda162e" x="441.134332" y="384.48" style="stroke: #000000; stroke-width: 0.8"/>
      </g>
     </g>
     <g id="text_4">
      <!-- 6 -->
      <g transform="translate(437.953082 399.078438) scale(0.1 -0.1)">
       <defs>
        <path id="DejaVuSans-36" d="M 2113 2584 
Q 1688 2584 1439 2293 
Q 1191 2003 1191 1497 
Q 1191 994 1439 701 
Q 1688 409 2113 409 
Q 2538 409 2786 701 
Q 3034 994 3034 1497 
Q 3034 2003 2786 2293 
Q 2538 2584 2113 2584 
z
M 3366 4563 
L 3366 3988 
Q 3128 4100 2886 4159 
Q 2644 4219 2406 4219 
Q 1781 4219 1451 3797 
Q 1122 3375 1075 2522 
Q 1259 2794 1537 2939 
Q 1816 3084 2150 3084 
Q 2853 3084 3261 2657 
Q 3669 2231 3669 1497 
Q 3669 778 3244 343 
Q 2819 -91 2113 -91 
Q 1303 -91 875 529 
Q 447 1150 447 2328 
Q 447 3434 972 4092 
Q 1497 4750 2381 4750 
Q 2619 4750 2861 4703 
Q 3103 4656 3366 4563 
z
" transform="scale(0.015625)"/>
       </defs>
       <use xlink:href="#DejaVuSans-36"/>
      </g>
     </g>
    </g>
    <g id="xtick_5">
     <g id="line2d_5">
      <g>
       <use xlink:href="#m8e2eda162e" x="542.033654" y="384.48" style="stroke: #000000; stroke-width: 0.8"/>
      </g>
     </g>
     <g id="text_5">
      <!-- 8 -->
      <g transform="translate(538.852404 399.078438) scale(0.1 -0.1)">
       <defs>
        <path id="DejaVuSans-38" d="M 2034 2216 
Q 1584 2216 1326 1975 
Q 1069 1734 1069 1313 
Q 1069 891 1326 650 
Q 1584 409 2034 409 
Q 2484 409 2743 651 
Q 3003 894 3003 1313 
Q 3003 1734 2745 1975 
Q 2488 2216 2034 2216 
z
M 1403 2484 
Q 997 2584 770 2862 
Q 544 3141 544 3541 
Q 544 4100 942 4425 
Q 1341 4750 2034 4750 
Q 2731 4750 3128 4425 
Q 3525 4100 3525 3541 
Q 3525 3141 3298 2862 
Q 3072 2584 2669 2484 
Q 3125 2378 3379 2068 
Q 3634 1759 3634 1313 
Q 3634 634 3220 271 
Q 2806 -91 2034 -91 
Q 1263 -91 848 271 
Q 434 634 434 1313 
Q 434 1759 690 2068 
Q 947 2378 1403 2484 
z
M 1172 3481 
Q 1172 3119 1398 2916 
Q 1625 2713 2034 2713 
Q 2441 2713 2670 2916 
Q 2900 3119 2900 3481 
Q 2900 3844 2670 4047 
Q 2441 4250 2034 4250 
Q 1625 4250 1398 4047 
Q 1172 3844 1172 3481 
z
" transform="scale(0.015625)"/>
       </defs>
       <use xlink:href="#DejaVuSans-38"/>
      </g>
     </g>
    </g>
    <g id="xtick_6">
     <g id="line2d_6">
      <g>
       <use xlink:href="#m8e2eda162e" x="642.932977" y="384.48" style="stroke: #000000; stroke-width: 0.8"/>
      </g>
     </g>
     <g id="text_6">
      <!-- 10 -->
      <g transform="translate(636.570477 399.078438) scale(0.1 -0.1)">
       <defs>
        <path id="DejaVuSans-31" d="M 794 531 
L 1825 531 
L 1825 4091 
L 703 3866 
L 703 4441 
L 1819 4666 
L 2450 4666 
L 2450 531 
L 3481 531 
L 3481 0 
L 794 0 
L 794 531 
z
" transform="scale(0.015625)"/>
       </defs>
       <use xlink:href="#DejaVuSans-31"/>
       <use xlink:href="#DejaVuSans-30" x="63.623047"/>
      </g>
     </g>
    </g>
    <g id="xtick_7">
     <g id="line2d_7">
      <g>
       <use xlink:href="#m8e2eda162e" x="743.8323" y="384.48" style="stroke: #000000; stroke-width: 0.8"/>
      </g>
     </g>
     <g id="text_7">
      <!-- 12 -->
      <g transform="translate(737.4698 399.078438) scale(0.1 -0.1)">
       <use xlink:href="#DejaVuSans-31"/>
       <use xlink:href="#DejaVuSans-32" x="63.623047"/>
      </g>
     </g>
    </g>
    <g id="text_8">
     <!-- Timestamp (seconds) -->
     <g transform="translate(388.964844 412.756563) scale(0.1 -0.1)">
      <defs>
       <path id="DejaVuSans-54" d="M -19 4666 
L 3928 4666 
L 3928 4134 
L 2272 4134 
L 2272 0 
L 1638 0 
L 1638 4134 
L -19 4134 
L -19 4666 
z
" transform="scale(0.015625)"/>
       <path id="DejaVuSans-69" d="M 603 3500 
L 1178 3500 
L 1178 0 
L 603 0 
L 603 3500 
z
M 603 4863 
L 1178 4863 
L 1178 4134 
L 603 4134 
L 603 4863 
z
" transform="scale(0.015625)"/>
       <path id="DejaVuSans-6d" d="M 3328 2828 
Q 3544 3216 3844 3400 
Q 4144 3584 4550 3584 
Q 5097 3584 5394 3201 
Q 5691 2819 5691 2113 
L 5691 0 
L 5113 0 
L 5113 2094 
Q 5113 2597 4934 2840 
Q 4756 3084 4391 3084 
Q 3944 3084 3684 2787 
Q 3425 2491 3425 1978 
L 3425 0 
L 2847 0 
L 2847 2094 
Q 2847 2600 2669 2842 
Q 2491 3084 2119 3084 
Q 1678 3084 1418 2786 
Q 1159 2488 1159 1978 
L 1159 0 
L 581 0 
L 581 3500 
L 1159 3500 
L 1159 2956 
Q 1356 3278 1631 3431 
Q 1906 3584 2284 3584 
Q 2666 3584 2933 3390 
Q 3200 3197 3328 2828 
z
" transform="scale(0.015625)"/>
       <path id="DejaVuSans-65" d="M 3597 1894 
L 3597 1613 
L 953 1613 
Q 991 1019 1311 708 
Q 1631 397 2203 397 
Q 2534 397 2845 478 
Q 3156 559 3463 722 
L 3463 178 
Q 3153 47 2828 -22 
Q 2503 -91 2169 -91 
Q 1331 -91 842 396 
Q 353 884 353 1716 
Q 353 2575 817 3079 
Q 1281 3584 2069 3584 
Q 2775 3584 3186 3129 
Q 3597 2675 3597 1894 
z
M 3022 2063 
Q 3016 2534 2758 2815 
Q 2500 3097 2075 3097 
Q 1594 3097 1305 2825 
Q 1016 2553 972 2059 
L 3022 2063 
z
" transform="scale(0.015625)"/>
       <path id="DejaVuSans-73" d="M 2834 3397 
L 2834 2853 
Q 2591 2978 2328 3040 
Q 2066 3103 1784 3103 
Q 1356 3103 1142 2972 
Q 928 2841 928 2578 
Q 928 2378 1081 2264 
Q 1234 2150 1697 2047 
L 1894 2003 
Q 2506 1872 2764 1633 
Q 3022 1394 3022 966 
Q 3022 478 2636 193 
Q 2250 -91 1575 -91 
Q 1294 -91 989 -36 
Q 684 19 347 128 
L 347 722 
Q 666 556 975 473 
Q 1284 391 1588 391 
Q 1994 391 2212 530 
Q 2431 669 2431 922 
Q 2431 1156 2273 1281 
Q 2116 1406 1581 1522 
L 1381 1569 
Q 847 1681 609 1914 
Q 372 2147 372 2553 
Q 372 3047 722 3315 
Q 1072 3584 1716 3584 
Q 2034 3584 2315 3537 
Q 2597 3491 2834 3397 
z
" transform="scale(0.015625)"/>
       <path id="DejaVuSans-74" d="M 1172 4494 
L 1172 3500 
L 2356 3500 
L 2356 3053 
L 1172 3053 
L 1172 1153 
Q 1172 725 1289 603 
Q 1406 481 1766 481 
L 2356 481 
L 2356 0 
L 1766 0 
Q 1100 0 847 248 
Q 594 497 594 1153 
L 594 3053 
L 172 3053 
L 172 3500 
L 594 3500 
L 594 4494 
L 1172 4494 
z
" transform="scale(0.015625)"/>
       <path id="DejaVuSans-61" d="M 2194 1759 
Q 1497 1759 1228 1600 
Q 959 1441 959 1056 
Q 959 750 1161 570 
Q 1363 391 1709 391 
Q 2188 391 2477 730 
Q 2766 1069 2766 1631 
L 2766 1759 
L 2194 1759 
z
M 3341 1997 
L 3341 0 
L 2766 0 
L 2766 531 
Q 2569 213 2275 61 
Q 1981 -91 1556 -91 
Q 1019 -91 701 211 
Q 384 513 384 1019 
Q 384 1609 779 1909 
Q 1175 2209 1959 2209 
L 2766 2209 
L 2766 2266 
Q 2766 2663 2505 2880 
Q 2244 3097 1772 3097 
Q 1472 3097 1187 3025 
Q 903 2953 641 2809 
L 641 3341 
Q 956 3463 1253 3523 
Q 1550 3584 1831 3584 
Q 2591 3584 2966 3190 
Q 3341 2797 3341 1997 
z
" transform="scale(0.015625)"/>
       <path id="DejaVuSans-70" d="M 1159 525 
L 1159 -1331 
L 581 -1331 
L 581 3500 
L 1159 3500 
L 1159 2969 
Q 1341 3281 1617 3432 
Q 1894 3584 2278 3584 
Q 2916 3584 3314 3078 
Q 3713 2572 3713 1747 
Q 3713 922 3314 415 
Q 2916 -91 2278 -91 
Q 1894 -91 1617 61 
Q 1341 213 1159 525 
z
M 3116 1747 
Q 3116 2381 2855 2742 
Q 2594 3103 2138 3103 
Q 1681 3103 1420 2742 
Q 1159 2381 1159 1747 
Q 1159 1113 1420 752 
Q 1681 391 2138 391 
Q 2594 391 2855 752 
Q 3116 1113 3116 1747 
z
" transform="scale(0.015625)"/>
       <path id="DejaVuSans-20" transform="scale(0.015625)"/>
       <path id="DejaVuSans-28" d="M 1984 4856 
Q 1566 4138 1362 3434 
Q 1159 2731 1159 2009 
Q 1159 1288 1364 580 
Q 1569 -128 1984 -844 
L 1484 -844 
Q 1016 -109 783 600 
Q 550 1309 550 2009 
Q 550 2706 781 3412 
Q 1013 4119 1484 4856 
L 1984 4856 
z
" transform="scale(0.015625)"/>
       <path id="DejaVuSans-63" d="M 3122 3366 
L 3122 2828 
Q 2878 2963 2633 3030 
Q 2388 3097 2138 3097 
Q 1578 3097 1268 2742 
Q 959 2388 959 1747 
Q 959 1106 1268 751 
Q 1578 397 2138 397 
Q 2388 397 2633 464 
Q 2878 531 3122 666 
L 3122 134 
Q 2881 22 2623 -34 
Q 2366 -91 2075 -91 
Q 1284 -91 818 406 
Q 353 903 353 1747 
Q 353 2603 823 3093 
Q 1294 3584 2113 3584 
Q 2378 3584 2631 3529 
Q 2884 3475 3122 3366 
z
" transform="scale(0.015625)"/>
       <path id="DejaVuSans-6f" d="M 1959 3097 
Q 1497 3097 1228 2736 
Q 959 2375 959 1747 
Q 959 1119 1226 758 
Q 1494 397 1959 397 
Q 2419 397 2687 759 
Q 2956 1122 2956 1747 
Q 2956 2369 2687 2733 
Q 2419 3097 1959 3097 
z
M 1959 3584 
Q 2709 3584 3137 3096 
Q 3566 2609 3566 1747 
Q 3566 888 3137 398 
Q 2709 -91 1959 -91 
Q 1206 -91 779 398 
Q 353 888 353 1747 
Q 353 2609 779 3096 
Q 1206 3584 1959 3584 
z
" transform="scale(0.015625)"/>
       <path id="DejaVuSans-6e" d="M 3513 2113 
L 3513 0 
L 2938 0 
L 2938 2094 
Q 2938 2591 2744 2837 
Q 2550 3084 2163 3084 
Q 1697 3084 1428 2787 
Q 1159 2491 1159 1978 
L 1159 0 
L 581 0 
L 581 3500 
L 1159 3500 
L 1159 2956 
Q 1366 3272 1645 3428 
Q 1925 3584 2291 3584 
Q 2894 3584 3203 3211 
Q 3513 2838 3513 2113 
z
" transform="scale(0.015625)"/>
       <path id="DejaVuSans-64" d="M 2906 2969 
L 2906 4863 
L 3481 4863 
L 3481 0 
L 2906 0 
L 2906 525 
Q 2725 213 2448 61 
Q 2172 -91 1784 -91 
Q 1150 -91 751 415 
Q 353 922 353 1747 
Q 353 2572 751 3078 
Q 1150 3584 1784 3584 
Q 2172 3584 2448 3432 
Q 2725 3281 2906 2969 
z
M 947 1747 
Q 947 1113 1208 752 
Q 1469 391 1925 391 
Q 2381 391 2643 752 
Q 2906 1113 2906 1747 
Q 2906 2381 2643 2742 
Q 2381 3103 1925 3103 
Q 1469 3103 1208 2742 
Q 947 2381 947 1747 
z
" transform="scale(0.015625)"/>
       <path id="DejaVuSans-29" d="M 513 4856 
L 1013 4856 
Q 1481 4119 1714 3412 
Q 1947 2706 1947 2009 
Q 1947 1309 1714 600 
Q 1481 -109 1013 -844 
L 513 -844 
Q 928 -128 1133 580 
Q 1338 1288 1338 2009 
Q 1338 2731 1133 3434 
Q 928 4138 513 4856 
z
" transform="scale(0.015625)"/>
      </defs>
      <use xlink:href="#DejaVuSans-54"/>
      <use xlink:href="#DejaVuSans-69" x="57.958984"/>
      <use xlink:href="#DejaVuSans-6d" x="85.742188"/>
      <use xlink:href="#DejaVuSans-65" x="183.154297"/>
      <use xlink:href="#DejaVuSans-73" x="244.677734"/>
      <use xlink:href="#DejaVuSans-74" x="296.777344"/>
      <use xlink:href="#DejaVuSans-61" x="335.986328"/>
      <use xlink:href="#DejaVuSans-6d" x="397.265625"/>
      <use xlink:href="#DejaVuSans-70" x="494.677734"/>
      <use xlink:href="#DejaVuSans-20" x="558.154297"/>
      <use xlink:href="#DejaVuSans-28" x="589.941406"/>
      <use xlink:href="#DejaVuSans-73" x="628.955078"/>
      <use xlink:href="#DejaVuSans-65" x="681.054688"/>
      <use xlink:href="#DejaVuSans-63" x="742.578125"/>
      <use xlink:href="#DejaVuSans-6f" x="797.558594"/>
      <use xlink:href="#DejaVuSans-6e" x="858.740234"/>
      <use xlink:href="#DejaVuSans-64" x="922.119141"/>
      <use xlink:href="#DejaVuSans-73" x="985.595703"/>
      <use xlink:href="#DejaVuSans-29" x="1037.695312"/>
     </g>
    </g>
   </g>
   <g id="matplotlib.axis_2">
    <g id="ytick_1">
     <g id="line2d_8">
      <defs>
       <path id="ma269276269" d="M 0 0 
L -3.5 0 
" style="stroke: #000000; stroke-width: 0.8"/>
      </defs>
      <g>
       <use xlink:href="#ma269276269" x="108" y="369.36" style="stroke: #000000; stroke-width: 0.8"/>
      </g>
     </g>
     <g id="text_9">
      <!-- 0 -->
      <g transform="translate(94.6375 373.159219) scale(0.1 -0.1)">
       <use xlink:href="#DejaVuSans-30"/>
      </g>
     </g>
    </g>
    <g id="ytick_2">
     <g id="line2d_9">
      <g>
       <use xlink:href="#ma269276269" x="108" y="330.813727" style="stroke: #000000; stroke-width: 0.8"/>
      </g>
     </g>
     <g id="text_10">
      <!-- 25 -->
      <g transform="translate(88.275 334.612946) scale(0.1 -0.1)">
       <defs>
        <path id="DejaVuSans-35" d="M 691 4666 
L 3169 4666 
L 3169 4134 
L 1269 4134 
L 1269 2991 
Q 1406 3038 1543 3061 
Q 1681 3084 1819 3084 
Q 2600 3084 3056 2656 
Q 3513 2228 3513 1497 
Q 3513 744 3044 326 
Q 2575 -91 1722 -91 
Q 1428 -91 1123 -41 
Q 819 9 494 109 
L 494 744 
Q 775 591 1075 516 
Q 1375 441 1709 441 
Q 2250 441 2565 725 
Q 2881 1009 2881 1497 
Q 2881 1984 2565 2268 
Q 2250 2553 1709 2553 
Q 1456 2553 1204 2497 
Q 953 2441 691 2322 
L 691 4666 
z
" transform="scale(0.015625)"/>
       </defs>
       <use xlink:href="#DejaVuSans-32"/>
       <use xlink:href="#DejaVuSans-35" x="63.623047"/>
      </g>
     </g>
    </g>
    <g id="ytick_3">
     <g id="line2d_10">
      <g>
       <use xlink:href="#ma269276269" x="108" y="292.267454" style="stroke: #000000; stroke-width: 0.8"/>
      </g>
     </g>
     <g id="text_11">
      <!-- 50 -->
      <g transform="translate(88.275 296.066673) scale(0.1 -0.1)">
       <use xlink:href="#DejaVuSans-35"/>
       <use xlink:href="#DejaVuSans-30" x="63.623047"/>
      </g>
     </g>
    </g>
    <g id="ytick_4">
     <g id="line2d_11">
      <g>
       <use xlink:href="#ma269276269" x="108" y="253.721181" style="stroke: #000000; stroke-width: 0.8"/>
      </g>
     </g>
     <g id="text_12">
      <!-- 75 -->
      <g transform="translate(88.275 257.5204) scale(0.1 -0.1)">
       <defs>
        <path id="DejaVuSans-37" d="M 525 4666 
L 3525 4666 
L 3525 4397 
L 1831 0 
L 1172 0 
L 2766 4134 
L 525 4134 
L 525 4666 
z
" transform="scale(0.015625)"/>
       </defs>
       <use xlink:href="#DejaVuSans-37"/>
       <use xlink:href="#DejaVuSans-35" x="63.623047"/>
      </g>
     </g>
    </g>
    <g id="ytick_5">
     <g id="line2d_12">
      <g>
       <use xlink:href="#ma269276269" x="108" y="215.174908" style="stroke: #000000; stroke-width: 0.8"/>
      </g>
     </g>
     <g id="text_13">
      <!-- 100 -->
      <g transform="translate(81.9125 218.974127) scale(0.1 -0.1)">
       <use xlink:href="#DejaVuSans-31"/>
       <use xlink:href="#DejaVuSans-30" x="63.623047"/>
       <use xlink:href="#DejaVuSans-30" x="127.246094"/>
      </g>
     </g>
    </g>
    <g id="ytick_6">
     <g id="line2d_13">
      <g>
       <use xlink:href="#ma269276269" x="108" y="176.628635" style="stroke: #000000; stroke-width: 0.8"/>
      </g>
     </g>
     <g id="text_14">
      <!-- 125 -->
      <g transform="translate(81.9125 180.427854) scale(0.1 -0.1)">
       <use xlink:href="#DejaVuSans-31"/>
       <use xlink:href="#DejaVuSans-32" x="63.623047"/>
       <use xlink:href="#DejaVuSans-35" x="127.246094"/>
      </g>
     </g>
    </g>
    <g id="ytick_7">
     <g id="line2d_14">
      <g>
       <use xlink:href="#ma269276269" x="108" y="138.082362" style="stroke: #000000; stroke-width: 0.8"/>
      </g>
     </g>
     <g id="text_15">
      <!-- 150 -->
      <g transform="translate(81.9125 141.881581) scale(0.1 -0.1)">
       <use xlink:href="#DejaVuSans-31"/>
       <use xlink:href="#DejaVuSans-35" x="63.623047"/>
       <use xlink:href="#DejaVuSans-30" x="127.246094"/>
      </g>
     </g>
    </g>
    <g id="ytick_8">
     <g id="line2d_15">
      <g>
       <use xlink:href="#ma269276269" x="108" y="99.536089" style="stroke: #000000; stroke-width: 0.8"/>
      </g>
     </g>
     <g id="text_16">
      <!-- 175 -->
      <g transform="translate(81.9125 103.335308) scale(0.1 -0.1)">
       <use xlink:href="#DejaVuSans-31"/>
       <use xlink:href="#DejaVuSans-37" x="63.623047"/>
       <use xlink:href="#DejaVuSans-35" x="127.246094"/>
      </g>
     </g>
    </g>
    <g id="ytick_9">
     <g id="line2d_16">
      <g>
       <use xlink:href="#ma269276269" x="108" y="60.989816" style="stroke: #000000; stroke-width: 0.8"/>
      </g>
     </g>
     <g id="text_17">
      <!-- 200 -->
      <g transform="translate(81.9125 64.789035) scale(0.1 -0.1)">
       <use xlink:href="#DejaVuSans-32"/>
       <use xlink:href="#DejaVuSans-30" x="63.623047"/>
       <use xlink:href="#DejaVuSans-30" x="127.246094"/>
      </g>
     </g>
    </g>
    <g id="text_18">
     <!-- Total CPU Power Consumption (watts) -->
     <g transform="translate(75.832812 312.167031) rotate(-90) scale(0.1 -0.1)">
      <defs>
       <path id="DejaVuSans-6c" d="M 603 4863 
L 1178 4863 
L 1178 0 
L 603 0 
L 603 4863 
z
" transform="scale(0.015625)"/>
       <path id="DejaVuSans-43" d="M 4122 4306 
L 4122 3641 
Q 3803 3938 3442 4084 
Q 3081 4231 2675 4231 
Q 1875 4231 1450 3742 
Q 1025 3253 1025 2328 
Q 1025 1406 1450 917 
Q 1875 428 2675 428 
Q 3081 428 3442 575 
Q 3803 722 4122 1019 
L 4122 359 
Q 3791 134 3420 21 
Q 3050 -91 2638 -91 
Q 1578 -91 968 557 
Q 359 1206 359 2328 
Q 359 3453 968 4101 
Q 1578 4750 2638 4750 
Q 3056 4750 3426 4639 
Q 3797 4528 4122 4306 
z
" transform="scale(0.015625)"/>
       <path id="DejaVuSans-50" d="M 1259 4147 
L 1259 2394 
L 2053 2394 
Q 2494 2394 2734 2622 
Q 2975 2850 2975 3272 
Q 2975 3691 2734 3919 
Q 2494 4147 2053 4147 
L 1259 4147 
z
M 628 4666 
L 2053 4666 
Q 2838 4666 3239 4311 
Q 3641 3956 3641 3272 
Q 3641 2581 3239 2228 
Q 2838 1875 2053 1875 
L 1259 1875 
L 1259 0 
L 628 0 
L 628 4666 
z
" transform="scale(0.015625)"/>
       <path id="DejaVuSans-55" d="M 556 4666 
L 1191 4666 
L 1191 1831 
Q 1191 1081 1462 751 
Q 1734 422 2344 422 
Q 2950 422 3222 751 
Q 3494 1081 3494 1831 
L 3494 4666 
L 4128 4666 
L 4128 1753 
Q 4128 841 3676 375 
Q 3225 -91 2344 -91 
Q 1459 -91 1007 375 
Q 556 841 556 1753 
L 556 4666 
z
" transform="scale(0.015625)"/>
       <path id="DejaVuSans-77" d="M 269 3500 
L 844 3500 
L 1563 769 
L 2278 3500 
L 2956 3500 
L 3675 769 
L 4391 3500 
L 4966 3500 
L 4050 0 
L 3372 0 
L 2619 2869 
L 1863 0 
L 1184 0 
L 269 3500 
z
" transform="scale(0.015625)"/>
       <path id="DejaVuSans-72" d="M 2631 2963 
Q 2534 3019 2420 3045 
Q 2306 3072 2169 3072 
Q 1681 3072 1420 2755 
Q 1159 2438 1159 1844 
L 1159 0 
L 581 0 
L 581 3500 
L 1159 3500 
L 1159 2956 
Q 1341 3275 1631 3429 
Q 1922 3584 2338 3584 
Q 2397 3584 2469 3576 
Q 2541 3569 2628 3553 
L 2631 2963 
z
" transform="scale(0.015625)"/>
       <path id="DejaVuSans-75" d="M 544 1381 
L 544 3500 
L 1119 3500 
L 1119 1403 
Q 1119 906 1312 657 
Q 1506 409 1894 409 
Q 2359 409 2629 706 
Q 2900 1003 2900 1516 
L 2900 3500 
L 3475 3500 
L 3475 0 
L 2900 0 
L 2900 538 
Q 2691 219 2414 64 
Q 2138 -91 1772 -91 
Q 1169 -91 856 284 
Q 544 659 544 1381 
z
M 1991 3584 
L 1991 3584 
z
" transform="scale(0.015625)"/>
      </defs>
      <use xlink:href="#DejaVuSans-54"/>
      <use xlink:href="#DejaVuSans-6f" x="44.083984"/>
      <use xlink:href="#DejaVuSans-74" x="105.265625"/>
      <use xlink:href="#DejaVuSans-61" x="144.474609"/>
      <use xlink:href="#DejaVuSans-6c" x="205.753906"/>
      <use xlink:href="#DejaVuSans-20" x="233.537109"/>
      <use xlink:href="#DejaVuSans-43" x="265.324219"/>
      <use xlink:href="#DejaVuSans-50" x="335.148438"/>
      <use xlink:href="#DejaVuSans-55" x="395.451172"/>
      <use xlink:href="#DejaVuSans-20" x="468.644531"/>
      <use xlink:href="#DejaVuSans-50" x="500.431641"/>
      <use xlink:href="#DejaVuSans-6f" x="557.109375"/>
      <use xlink:href="#DejaVuSans-77" x="618.291016"/>
      <use xlink:href="#DejaVuSans-65" x="700.078125"/>
      <use xlink:href="#DejaVuSans-72" x="761.601562"/>
      <use xlink:href="#DejaVuSans-20" x="802.714844"/>
      <use xlink:href="#DejaVuSans-43" x="834.501953"/>
      <use xlink:href="#DejaVuSans-6f" x="904.326172"/>
      <use xlink:href="#DejaVuSans-6e" x="965.507812"/>
      <use xlink:href="#DejaVuSans-73" x="1028.886719"/>
      <use xlink:href="#DejaVuSans-75" x="1080.986328"/>
      <use xlink:href="#DejaVuSans-6d" x="1144.365234"/>
      <use xlink:href="#DejaVuSans-70" x="1241.777344"/>
      <use xlink:href="#DejaVuSans-74" x="1305.253906"/>
      <use xlink:href="#DejaVuSans-69" x="1344.462891"/>
      <use xlink:href="#DejaVuSans-6f" x="1372.246094"/>
      <use xlink:href="#DejaVuSans-6e" x="1433.427734"/>
      <use xlink:href="#DejaVuSans-20" x="1496.806641"/>
      <use xlink:href="#DejaVuSans-28" x="1528.59375"/>
      <use xlink:href="#DejaVuSans-77" x="1567.607422"/>
      <use xlink:href="#DejaVuSans-61" x="1649.394531"/>
      <use xlink:href="#DejaVuSans-74" x="1710.673828"/>
      <use xlink:href="#DejaVuSans-74" x="1749.882812"/>
      <use xlink:href="#DejaVuSans-73" x="1789.091797"/>
      <use xlink:href="#DejaVuSans-29" x="1841.191406"/>
     </g>
    </g>
   </g>
   <g id="line2d_17">
    <path d="M 138.436364 367.29295 
L 139.432991 335.77631 
L 139.987945 322.91058 
L 140.549346 274.356901 
L 140.961719 302.977064 
L 141.352754 346.210197 
L 141.74516 296.811847 
L 142.009406 288.30587 
L 142.425567 365.325195 
L 142.813018 290.19001 
L 143.076927 338.811943 
L 143.477548 366.005895 
L 143.863278 251.658414 
L 144.12542 328.596214 
L 144.513832 365.879161 
L 145.041783 307.767422 
L 145.307906 219.155529 
L 145.572513 367.891584 
L 145.835664 291.973719 
L 146.101282 357.050282 
L 146.367248 368.556642 
L 146.630905 348.300261 
L 146.900154 346.410712 
L 147.167179 332.249458 
L 147.437283 367.94581 
L 147.704019 360.071825 
L 147.971248 366.224504 
L 148.240546 368.127888 
L 148.509952 354.951429 
L 149.042498 368.768722 
L 149.30927 356.669799 
L 149.573576 367.173447 
L 149.838291 365.301492 
L 150.105424 365.727876 
L 150.374518 327.973409 
L 150.643768 357.734814 
L 150.909842 366.377794 
L 151.177276 344.841334 
L 151.439152 352.370715 
L 151.703458 367.023326 
L 151.970086 340.096755 
L 152.233743 344.338649 
L 152.497436 346.528719 
L 152.766385 366.295086 
L 153.058789 333.846511 
L 153.3236 357.53732 
L 153.830117 366.814774 
L 154.097154 324.392923 
L 154.362771 367.002851 
L 154.877708 347.285854 
L 155.44991 353.196721 
L 155.738886 346.414261 
L 156.479278 361.444233 
L 157.283191 362.007463 
L 158.007405 361.686006 
L 158.280431 364.084068 
L 158.553518 368.733982 
L 158.827555 360.605704 
L 159.102254 358.256572 
L 159.374992 357.898332 
L 159.648271 368.736306 
L 159.924088 361.802286 
L 160.197476 358.143169 
L 160.504253 368.242539 
L 161.543617 356.498461 
L 161.823367 359.619516 
L 162.101289 346.916272 
L 162.45197 362.462198 
L 162.803143 354.714946 
L 163.107455 368.275723 
L 163.470993 353.085216 
L 163.749072 356.350994 
L 164.023674 347.438065 
L 164.298782 356.228953 
L 165.020302 367.150202 
L 165.318467 351.066445 
L 165.957666 359.59033 
L 166.290834 349.158074 
L 166.559927 358.650617 
L 166.932102 366.564475 
L 167.198164 361.82359 
L 167.462122 312.818433 
L 167.72733 287.369983 
L 167.99154 367.730254 
L 168.520249 275.459805 
L 168.783352 367.667742 
L 169.046444 207.894905 
L 169.447113 227.69837 
L 169.710758 103.294847 
L 169.973055 368.092686 
L 170.239575 100.301692 
L 170.512457 320.023174 
L 170.911118 307.133387 
L 171.174305 248.606609 
L 171.437505 367.465728 
L 171.700043 188.4725 
L 171.961884 258.473304 
L 172.2218 368.647919 
L 172.48358 320.558069 
L 173.010124 367.976989 
L 173.274827 321.966969 
L 173.53793 327.634577 
L 173.800613 360.01779 
L 174.060685 224.606976 
L 174.322971 349.94571 
L 174.587024 271.692027 
L 174.84765 368.832968 
L 175.108023 241.744288 
L 175.369755 248.577828 
L 175.632197 365.694811 
L 175.89488 357.648751 
L 176.15672 293.487678 
L 176.418248 368.543006 
L 176.945598 304.473427 
L 177.207173 365.807984 
L 177.469868 293.758598 
L 177.731456 294.892819 
L 177.994499 365.963446 
L 178.256689 292.007623 
L 178.517964 303.686496 
L 178.778986 255.950135 
L 179.040213 367.415364 
L 179.302355 286.478621 
L 179.56363 361.357593 
L 179.828297 365.357486 
L 180.091785 172.390548 
L 180.353878 239.973429 
L 180.616621 366.97568 
L 180.877848 219.980956 
L 181.139123 327.62387 
L 181.40106 366.915926 
L 181.664705 220.719069 
L 181.926244 268.408787 
L 182.189384 366.170968 
L 182.735955 314.15416 
L 183.002438 264.017328 
L 183.265421 367.756028 
L 183.528224 277.273361 
L 183.790858 343.556611 
L 184.073989 366.950377 
L 184.336527 128.801412 
L 184.861507 367.262424 
L 185.772422 100.086932 
L 186.034154 85.159449 
L 186.517913 325.073963 
L 186.781715 365.279724 
L 187.045467 269.721053 
L 187.307356 337.119607 
L 187.570195 302.428922 
L 187.92304 317.465359 
L 188.194563 367.473632 
L 188.457402 322.679546 
L 188.718738 66.96 
L 188.981119 368.076438 
L 189.243357 323.309466 
L 189.768433 365.944261 
L 190.030731 193.614889 
L 190.293365 309.021945 
L 190.555506 364.874606 
L 190.939276 208.423949 
L 191.20191 363.46555 
L 191.464003 241.886419 
L 191.726085 254.134565 
L 191.987769 366.312422 
L 192.25187 185.497158 
L 192.515527 251.615653 
L 192.77827 365.233796 
L 193.041457 195.199827 
L 193.303551 321.589627 
L 193.565535 366.98266 
L 194.089505 229.367778 
L 194.351334 275.63114 
L 194.613727 365.035011 
L 194.878082 345.069593 
L 195.177354 167.436516 
L 195.440289 367.29736 
L 195.70314 181.727613 
L 195.966135 345.287715 
L 196.227963 366.481796 
L 196.542764 275.74921 
L 196.819134 230.621039 
L 197.348902 367.02472 
L 197.883624 243.968282 
L 198.166538 365.921046 
L 198.445531 257.709501 
L 198.713518 246.447072 
L 198.997298 327.848934 
L 199.259186 367.512474 
L 199.821032 257.688585 
L 200.093566 366.294922 
L 200.359135 352.904829 
L 200.637466 249.052065 
L 201.04611 336.981969 
L 201.308348 226.676828 
L 201.584754 366.257777 
L 201.90012 355.460286 
L 202.164883 252.410918 
L 202.428781 291.938832 
L 202.692185 368.334996 
L 203.222602 320.300828 
L 203.748496 366.339542 
L 204.0189 260.201691 
L 204.282353 366.141343 
L 204.546154 336.73324 
L 204.812986 243.733379 
L 205.079409 367.84488 
L 205.346133 368.666654 
L 205.609176 335.219194 
L 205.875154 256.762266 
L 206.136634 368.670353 
L 206.476561 347.805658 
L 206.741577 281.290154 
L 207.006786 336.378141 
L 207.27381 365.314872 
L 207.538116 313.963927 
L 207.803734 310.088875 
L 208.069303 365.691059 
L 208.330831 249.913161 
L 208.593321 321.321794 
L 208.858241 279.856285 
L 209.123196 366.353846 
L 209.838522 335.105119 
L 210.109696 343.220998 
L 210.37571 329.44238 
L 210.643505 366.07121 
L 210.911492 337.174357 
L 211.178564 366.143731 
L 211.449582 366.741939 
L 211.719085 332.024538 
L 212.254962 367.103879 
L 212.526233 364.056386 
L 212.796794 353.743102 
L 213.073561 365.850649 
L 213.349366 366.26963 
L 213.620938 352.593512 
L 213.895035 366.953553 
L 214.173053 352.569368 
L 214.44685 368.59976 
L 214.992314 352.976432 
L 215.268167 368.410841 
L 215.549986 366.592122 
L 215.823121 351.041191 
L 216.372771 368.1276 
L 216.645497 354.816551 
L 217.190961 368.104872 
L 217.469292 356.726852 
L 217.73788 353.477898 
L 218.012122 363.673352 
L 218.29263 365.873559 
L 218.570408 365.274986 
L 218.843795 366.036346 
L 219.127419 361.915463 
L 219.400397 368.174283 
L 219.677573 352.002214 
L 220.371104 350.488249 
L 220.680612 354.398798 
L 220.963429 367.510644 
L 221.265372 362.223915 
L 221.605551 362.057702 
L 221.899772 365.653952 
L 222.173219 355.560474 
L 222.46744 368.483643 
L 222.736184 364.99339 
L 223.00019 294.795135 
L 223.264292 367.976907 
L 223.528646 354.404598 
L 223.841787 346.439105 
L 224.112648 311.403081 
L 224.421759 365.309033 
L 224.709977 229.48013 
L 225.046681 321.461354 
L 225.36254 246.686054 
L 225.627147 277.804379 
L 225.96284 365.952244 
L 226.506392 299.856412 
L 226.76994 312.12283 
L 227.03142 368.350778 
L 227.511294 252.36191 
L 227.772822 221.437495 
L 228.160982 312.967618 
L 228.42352 265.859996 
L 228.685108 243.216211 
L 228.946431 368.21514 
L 229.219218 260.530413 
L 229.601472 314.391559 
L 229.863709 158.820739 
L 230.126801 363.134826 
L 230.56163 366.33199 
L 230.822965 365.804413 
L 231.084637 305.088894 
L 231.347488 178.207025 
L 231.612095 366.102212 
L 232.003839 265.184474 
L 232.267135 295.888122 
L 232.531189 192.563435 
L 232.797011 240.208612 
L 233.063578 367.578692 
L 233.473136 246.764754 
L 233.733353 245.992878 
L 234.105973 329.356326 
L 234.369016 295.983477 
L 234.858333 367.794116 
L 235.129748 305.967994 
L 235.390421 366.202243 
L 235.815159 287.417409 
L 236.151911 309.281478 
L 236.799181 261.881701 
L 237.062621 342.433718 
L 237.3289 368.356687 
L 237.59477 359.956623 
L 237.858222 318.941074 
L 238.126714 368.794093 
L 238.390455 220.555194 
L 238.915291 354.677318 
L 239.177829 366.773394 
L 239.742406 241.038063 
L 240.004499 313.154622 
L 240.265425 212.546694 
L 240.527663 337.218426 
L 240.788842 366.88567 
L 241.073367 283.070264 
L 241.359781 328.578772 
L 241.624484 299.898594 
L 242.261458 366.744427 
L 242.79416 345.809467 
L 243.057156 368.331433 
L 243.322316 354.037335 
L 243.585612 364.560593 
L 243.848607 359.005592 
L 244.116293 368.219547 
L 244.381153 358.838941 
L 244.644906 333.676694 
L 244.919352 368.247075 
L 245.191079 338.836721 
L 245.497965 357.812112 
L 245.778762 352.905976 
L 246.051091 366.013719 
L 246.324178 344.09771 
L 246.595292 347.583507 
L 246.870496 366.219492 
L 247.145543 366.956328 
L 247.690346 351.118019 
L 247.960462 368.817353 
L 248.296756 362.820128 
L 248.570541 364.551812 
L 248.921522 348.67347 
L 249.274319 366.588679 
L 249.670201 359.027672 
L 249.946463 368.591919 
L 250.220452 354.760759 
L 250.495055 365.748523 
L 250.771762 358.228967 
L 251.043634 368.702883 
L 251.31571 349.151675 
L 251.764059 357.529494 
L 252.309667 352.78647 
L 252.853315 368.732262 
L 253.123623 365.298959 
L 253.396253 340.526102 
L 253.667379 368.713374 
L 253.944844 350.298097 
L 254.266621 351.931002 
L 254.538493 339.756188 
L 254.814695 368.498142 
L 255.162549 359.334956 
L 255.576185 363.433034 
L 256.117715 342.775476 
L 256.385546 368.423782 
L 256.653485 357.541546 
L 256.919667 351.326435 
L 257.183769 326.618261 
L 257.485411 368.070863 
L 257.747588 365.72951 
L 258.009525 357.983936 
L 258.27863 367.699877 
L 258.644129 347.907093 
L 258.907329 263.545479 
L 259.170071 220.39136 
L 259.433319 326.725182 
L 259.696663 365.469204 
L 260.035436 249.080404 
L 260.29807 313.380625 
L 260.608444 327.237538 
L 260.879005 368.46266 
L 261.217164 262.24121 
L 261.481627 309.85501 
L 261.868271 325.584008 
L 262.131772 252.568695 
L 262.396631 368.35615 
L 262.659879 345.421358 
L 262.925496 241.459596 
L 263.259927 368.223832 
L 263.801854 277.250042 
L 264.192336 334.705946 
L 264.454922 225.44236 
L 264.717965 365.514886 
L 264.981069 220.702152 
L 265.247793 366.280268 
L 265.516128 366.951737 
L 265.784272 344.714538 
L 266.047014 215.088073 
L 266.31102 328.453785 
L 266.576336 367.661665 
L 266.838117 227.899694 
L 267.101509 240.029304 
L 267.363398 367.474252 
L 267.625587 285.988764 
L 267.906492 271.231336 
L 268.169884 366.760967 
L 268.431412 340.5539 
L 268.693709 246.91878 
L 268.95549 366.477459 
L 269.218786 305.11202 
L 269.482382 302.421359 
L 270.16113 321.561175 
L 270.689646 323.864702 
L 271.178903 311.832321 
L 271.444773 365.059284 
L 271.960022 338.572002 
L 272.225387 366.156376 
L 272.487167 303.125563 
L 273.080046 277.845619 
L 273.344304 333.187249 
L 273.607348 360.454306 
L 274.017411 366.976994 
L 274.282715 309.31568 
L 274.718459 294.997204 
L 275.33798 319.506099 
L 275.804888 352.702496 
L 276.071408 322.930718 
L 276.628178 315.346347 
L 277.35576 349.806962 
L 277.625058 330.391465 
L 278.195697 310.16606 
L 278.930748 334.68183 
L 279.209176 362.102461 
L 279.477367 364.983196 
L 280.904241 343.843047 
L 281.441381 368.209607 
L 282.017709 359.387652 
L 282.645301 359.150668 
L 283.340804 345.709916 
L 283.606831 329.504367 
L 283.9068 336.293806 
L 284.174944 306.538246 
L 284.443833 366.89144 
L 284.94626 313.11406 
L 285.956828 366.513683 
L 286.227689 347.156409 
L 286.503591 315.263777 
L 286.775475 368.545181 
L 287.045579 310.163351 
L 287.311906 305.199246 
L 287.58201 368.494655 
L 287.849744 343.183527 
L 288.48768 316.703443 
L 288.756268 357.435541 
L 289.024772 366.505578 
L 289.76567 368.223651 
L 290.035028 330.155964 
L 290.303568 320.182353 
L 290.572517 368.582317 
L 290.84131 345.156007 
L 291.581004 352.972673 
L 291.896165 343.070743 
L 292.163094 368.478191 
L 292.430323 326.890307 
L 292.698213 346.432777 
L 293.005701 327.179672 
L 293.274999 368.128035 
L 293.550708 341.968493 
L 293.820607 305.051139 
L 294.089616 366.095965 
L 294.381263 344.534558 
L 294.710894 339.63393 
L 294.979795 324.492732 
L 295.245616 322.46909 
L 295.508203 366.791261 
L 296.045343 338.349756 
L 296.31161 368.204962 
L 296.577985 317.852507 
L 296.846838 349.709964 
L 297.116593 367.928196 
L 297.385338 330.457748 
L 297.653168 346.171603 
L 297.931102 347.849618 
L 298.197574 366.563573 
L 298.460364 360.826275 
L 298.768309 324.367685 
L 299.035947 367.611868 
L 299.301215 353.841604 
L 299.565161 364.374968 
L 299.831031 357.561795 
L 300.096299 366.497165 
L 300.626824 358.50923 
L 300.89249 368.37306 
L 301.157855 328.310879 
L 301.703776 366.850349 
L 301.968539 328.523505 
L 302.235359 356.072187 
L 302.500928 336.553128 
L 302.767255 368.559362 
L 303.362155 321.451971 
L 303.625655 365.65196 
L 303.89102 367.74501 
L 304.157852 332.241783 
L 304.422604 333.469513 
L 304.687367 367.776806 
L 304.953995 341.103083 
L 305.219215 362.188662 
L 305.485891 368.557069 
L 305.780316 319.640066 
L 306.045981 340.176156 
L 306.312152 345.624161 
L 306.577673 367.605065 
L 306.843338 338.012641 
L 307.108847 365.041071 
L 307.78276 367.723045 
L 308.290082 361.912715 
L 308.57895 337.471925 
L 308.843413 365.970884 
L 309.109235 337.57361 
L 309.374696 339.703899 
L 309.638497 368.513729 
L 309.901648 358.620254 
L 310.167157 359.80754 
L 310.434146 368.843827 
L 310.968303 333.250957 
L 311.248451 319.414213 
L 311.732258 368.446182 
L 311.999139 342.921397 
L 312.648935 367.59658 
L 313.263356 338.017145 
L 313.902712 351.674941 
L 315.165305 363.171414 
L 315.810506 359.377926 
L 316.10937 345.605577 
L 316.849978 339.700637 
L 317.730823 352.476976 
L 318.415837 360.252569 
L 319.095595 329.475311 
L 320.033754 317.173286 
L 320.740298 358.719767 
L 321.008995 337.657414 
L 321.934247 367.57236 
L 323.087168 354.854549 
L 323.798765 343.470391 
L 324.284293 342.449217 
L 324.623606 339.119115 
L 324.88772 368.483205 
L 325.444021 334.956663 
L 325.980657 321.784301 
L 326.861152 363.861843 
L 327.130102 304.810974 
L 327.453839 275.626434 
L 327.72268 343.174069 
L 328.612918 257.199883 
L 328.876972 331.973313 
L 329.225932 279.05807 
L 329.502038 365.906564 
L 329.767667 337.330938 
L 330.029448 253.616184 
L 331.410807 329.322734 
L 332.504249 309.204222 
L 332.768158 165.324936 
L 333.045575 128.077954 
L 333.307055 213.998971 
L 333.572829 365.327218 
L 334.048313 318.04111 
L 334.523244 285.687436 
L 334.788416 299.009262 
L 335.274497 303.745131 
L 335.79736 294.041353 
L 336.059237 159.48895 
L 336.321883 300.86889 
L 336.793783 367.733139 
L 337.288801 348.662138 
L 337.551592 133.422034 
L 337.812566 366.270855 
L 338.075261 212.803352 
L 338.707893 365.893329 
L 338.970683 330.517648 
L 339.233739 350.141423 
L 339.745801 309.702043 
L 340.349878 352.942419 
L 340.84172 288.147237 
L 341.10415 358.54244 
L 341.366893 335.540581 
L 341.640485 367.371592 
L 342.171467 279.475832 
L 342.436074 354.71816 
L 342.701847 367.599841 
L 342.969582 361.75688 
L 343.236354 321.554095 
L 343.502729 367.802951 
L 343.772989 341.101632 
L 344.071203 345.760066 
L 344.615103 366.919307 
L 344.888334 354.765932 
L 345.162985 354.675177 
L 345.441965 368.46822 
L 345.721006 358.475394 
L 345.998579 363.397285 
L 346.275395 356.790289 
L 346.638488 368.853112 
L 346.915352 366.167798 
L 347.194236 366.552798 
L 347.472218 366.70812 
L 347.754627 368.783528 
L 348.039165 364.693974 
L 348.74506 358.280706 
L 349.598721 366.97758 
L 350.20643 352.907487 
L 350.757945 368.738876 
L 351.18107 361.296121 
L 351.45779 353.308478 
L 351.736975 352.557328 
L 352.015053 348.485397 
L 352.290052 368.842728 
L 352.568035 366.28262 
L 352.84657 350.970159 
L 353.199356 364.922192 
L 353.477494 353.883349 
L 353.755621 367.651076 
L 354.113157 360.890334 
L 354.478307 360.902169 
L 354.75558 362.147595 
L 355.052073 355.044485 
L 355.349072 357.770061 
L 355.720429 368.743915 
L 355.989631 365.115542 
L 356.527324 326.246088 
L 356.794902 368.73936 
L 357.065066 342.414903 
L 357.355053 367.280057 
L 357.724088 340.954672 
L 358.013822 368.394163 
L 358.286451 361.479669 
L 358.577147 327.680663 
L 359.570948 342.084616 
L 360.265994 361.221835 
L 360.829115 319.832395 
L 361.367615 368.168103 
L 361.943149 286.004839 
L 362.211485 340.464608 
L 362.477307 368.276264 
L 362.824294 347.247309 
L 363.089767 284.186246 
L 363.355385 368.109073 
L 363.620196 319.374286 
L 364.664347 335.802002 
L 364.931528 307.604811 
L 365.710578 367.836176 
L 366.009995 317.742314 
L 366.298309 293.983711 
L 366.565947 358.053391 
L 366.863499 320.166878 
L 367.125436 366.836679 
L 367.388227 214.775157 
L 367.661758 177.213703 
L 368.18574 367.598775 
L 368.67822 325.889778 
L 369.131464 316.824247 
L 369.395169 289.446399 
L 369.922711 123.825695 
L 370.380298 367.890756 
L 370.654948 204.064446 
L 370.919651 366.634558 
L 371.305237 158.940159 
L 371.56632 224.155083 
L 371.945399 262.590262 
L 372.218678 303.840977 
L 372.492523 290.58144 
L 372.764142 365.841175 
L 373.290084 245.820461 
L 373.550554 367.886009 
L 373.812887 292.897772 
L 374.115744 356.206599 
L 374.377777 367.913255 
L 374.642432 244.483058 
L 375.032204 281.773125 
L 375.464254 274.012903 
L 376.026726 255.601602 
L 376.290972 277.721019 
L 376.553318 255.159415 
L 376.816012 341.398472 
L 377.079308 289.415802 
L 377.390729 366.174114 
L 377.654229 355.031929 
L 377.941894 293.281039 
L 378.203927 192.373862 
L 378.46934 368.232771 
L 378.731734 306.79758 
L 379.014708 354.194368 
L 379.387832 347.700199 
L 379.65007 367.694061 
L 379.91357 216.805001 
L 380.441112 366.937618 
L 381.308906 229.75406 
L 381.572455 367.683695 
L 381.835955 360.815548 
L 382.099047 351.054282 
L 382.369006 364.463052 
L 382.928639 221.007325 
L 383.19078 143.233984 
L 383.455183 367.651814 
L 383.909486 185.500211 
L 384.186806 368.010979 
L 384.448683 226.063968 
L 384.710776 217.227115 
L 384.973819 368.145743 
L 385.280501 305.057921 
L 385.581336 308.916573 
L 386.047583 268.530844 
L 386.37274 259.684724 
L 386.635783 236.379233 
L 386.971115 364.813301 
L 387.232703 367.999292 
L 387.510277 181.148071 
L 387.787345 304.899015 
L 388.077788 219.375194 
L 388.361869 365.41968 
L 388.654573 305.10744 
L 388.956612 329.145409 
L 389.239033 367.248053 
L 389.502232 243.82288 
L 389.765372 233.715377 
L 390.028018 322.926967 
L 390.2955 366.445194 
L 390.560215 332.587619 
L 390.876832 364.556781 
L 391.160515 366.608952 
L 391.424064 274.739474 
L 391.688972 319.999518 
L 391.952364 338.054072 
L 392.212737 366.13621 
L 392.48088 233.335457 
L 393.003539 367.507033 
L 393.529168 326.796612 
L 393.793126 341.156685 
L 394.167357 367.738838 
L 394.428945 296.277494 
L 394.690473 329.16829 
L 394.953624 343.609842 
L 395.214996 368.105643 
L 395.476475 322.602807 
L 395.738665 234.639599 
L 396.000854 365.923555 
L 396.265208 225.415848 
L 396.527542 350.320648 
L 396.790597 366.442804 
L 397.327774 257.934571 
L 397.591323 365.768983 
L 397.85261 273.913224 
L 398.115497 233.582315 
L 398.378648 281.61111 
L 398.638215 367.751523 
L 398.903328 268.608917 
L 399.166768 236.725297 
L 399.427899 367.403538 
L 399.696234 258.247027 
L 399.95787 300.767092 
L 400.220312 367.446199 
L 400.748011 309.847211 
L 401.011619 367.07273 
L 401.274206 236.225355 
L 401.802313 356.785352 
L 402.06763 368.048184 
L 403.235838 325.195557 
L 403.499688 353.466437 
L 403.766111 341.195287 
L 404.043744 366.231763 
L 404.30971 304.170411 
L 404.577144 352.240786 
L 404.844481 363.710359 
L 405.168868 368.086402 
L 405.4357 342.357736 
L 405.703531 328.416577 
L 405.973394 366.686319 
L 406.240719 338.201806 
L 406.506794 361.658388 
L 406.778317 362.159734 
L 407.052955 368.77212 
L 407.325032 357.057453 
L 407.596808 354.809662 
L 407.865408 368.403329 
L 408.150294 348.940656 
L 408.420952 364.645888 
L 408.687832 336.001641 
L 408.967979 359.05367 
L 409.625593 340.916964 
L 409.894988 318.198425 
L 410.162121 368.59844 
L 410.698756 360.727516 
L 410.965335 340.676463 
L 411.23337 368.545309 
L 411.500756 350.90498 
L 411.766469 353.130576 
L 412.052679 368.341882 
L 412.684204 313.902843 
L 412.951842 343.057969 
L 413.219023 348.083262 
L 414.64301 368.455809 
L 416.156908 357.047801 
L 417.325874 341.249461 
L 418.047755 343.96177 
L 418.696949 334.976893 
L 419.32655 356.326751 
L 419.595247 349.813703 
L 419.861526 301.098582 
L 420.1276 357.026286 
L 420.396044 366.762647 
L 420.665895 321.089491 
L 420.93363 361.072308 
L 421.728569 317.637547 
L 422.280131 367.132809 
L 422.545243 333.219526 
L 423.370807 321.708687 
L 423.637482 322.000498 
L 423.902691 355.067067 
L 424.167959 367.787546 
L 424.698641 318.185456 
L 424.964559 365.187539 
L 425.494386 294.916305 
L 425.757935 368.258545 
L 426.021423 357.038363 
L 426.285381 310.959032 
L 426.548472 361.54651 
L 426.813692 367.074579 
L 427.077842 315.187022 
L 427.343003 313.81386 
L 427.608175 367.409333 
L 428.146314 339.728701 
L 428.415419 367.960943 
L 428.680026 342.251584 
L 428.945391 363.073817 
L 429.22644 343.967769 
L 429.493477 368.629412 
L 429.759395 333.907557 
L 430.025866 328.242916 
L 430.299458 366.787519 
L 431.031383 327.288342 
L 431.303916 355.998884 
L 431.570291 333.568316 
L 432.408809 365.844125 
L 433.201174 334.720554 
L 433.467549 363.210223 
L 433.732661 368.699709 
L 434.031729 352.363104 
L 434.301424 362.052567 
L 434.568857 340.924046 
L 434.843508 368.183449 
L 435.115127 307.34403 
L 435.381298 329.287259 
L 435.648034 367.353929 
L 435.913952 350.287141 
L 436.183755 365.902518 
L 436.453209 345.417325 
L 437.717824 368.606092 
L 437.998633 359.835518 
L 438.298903 366.454678 
L 438.611238 350.978134 
L 438.887656 357.903613 
L 439.166793 349.908578 
L 439.442153 367.345663 
L 439.716852 353.497999 
L 439.990287 366.886393 
L 440.264024 364.035799 
L 440.537207 368.750081 
L 440.812206 354.04386 
L 441.088372 362.945544 
L 441.366547 356.105758 
L 441.640343 367.616976 
L 441.913827 359.391462 
L 442.18938 366.796506 
L 442.465341 368.808878 
L 442.742361 366.102103 
L 443.01635 359.111217 
L 443.326676 355.813682 
L 443.606667 368.804433 
L 444.013194 365.032954 
L 444.31836 349.797053 
L 444.588969 357.409003 
L 444.865387 351.9832 
L 445.140543 366.482528 
L 445.420077 367.080887 
L 445.694018 353.666702 
L 446.243319 368.807908 
L 446.517861 357.713128 
L 446.790599 354.905962 
L 447.334042 368.766665 
L 447.605457 358.591079 
L 448.567275 349.429921 
L 448.842226 357.050743 
L 449.193508 343.658733 
L 449.459282 311.705004 
L 449.725404 366.86407 
L 450.003687 354.769238 
L 450.270615 309.852265 
L 450.564331 353.747148 
L 450.868943 365.59587 
L 451.140214 329.303359 
L 451.408958 334.647182 
L 451.683813 336.39316 
L 451.973343 367.650275 
L 452.554265 316.357342 
L 452.820845 323.719759 
L 453.128284 367.976876 
L 453.481935 349.960779 
L 453.878575 314.245907 
L 454.143784 367.039394 
L 454.421261 346.276373 
L 454.686373 337.408954 
L 454.994666 368.375009 
L 455.264325 362.142497 
L 455.612672 342.158683 
L 455.953766 314.635013 
L 456.217867 368.408684 
L 456.482679 349.781028 
L 456.753949 300.646088 
L 457.131669 362.799415 
L 457.413272 345.293887 
L 457.724247 367.941802 
L 458.021751 337.696995 
L 458.284999 329.589252 
L 458.548596 221.863138 
L 458.877878 367.601262 
L 459.175286 266.930565 
L 459.531703 278.630193 
L 459.793135 354.886049 
L 460.057237 227.673095 
L 460.319727 368.153071 
L 460.849049 236.858509 
L 461.110937 368.344983 
L 461.373524 304.451962 
L 461.900067 367.804646 
L 462.472114 202.300292 
L 462.737382 241.587084 
L 463.002242 364.285351 
L 463.271239 198.616302 
L 463.533272 298.707475 
L 463.822753 366.261136 
L 464.084533 197.678012 
L 464.378309 251.139719 
L 464.639836 249.041423 
L 464.902627 366.627837 
L 465.425586 203.404142 
L 465.688738 366.600494 
L 465.950518 344.391598 
L 466.217194 350.090454 
L 466.490738 365.118433 
L 466.754479 344.860897 
L 467.016921 228.134779 
L 467.282743 365.398006 
L 467.547049 246.036886 
L 467.806712 321.167721 
L 468.068854 296.817293 
L 468.333605 367.817796 
L 468.622834 359.351187 
L 468.884722 283.181006 
L 469.409702 368.744601 
L 469.675115 364.101602 
L 469.937906 332.617279 
L 470.199746 367.182566 
L 470.461479 188.484212 
L 470.724269 226.543379 
L 470.984089 367.71402 
L 471.250055 365.611632 
L 471.511439 248.686214 
L 471.772858 367.289704 
L 472.04574 323.312727 
L 472.307677 303.138921 
L 472.569566 366.623249 
L 473.093439 303.500556 
L 473.367777 317.096205 
L 473.629666 367.642178 
L 473.892108 362.084625 
L 474.157412 290.490381 
L 474.42238 367.857673 
L 474.687745 284.664285 
L 474.957704 306.487384 
L 475.220892 367.938225 
L 475.483791 353.661575 
L 475.744765 286.242705 
L 476.005896 369.069056 
L 476.268579 277.938494 
L 476.532031 292.646128 
L 476.795736 274.732673 
L 477.059284 367.683508 
L 477.322231 293.345291 
L 477.851842 368.727442 
L 478.11746 340.196339 
L 478.38369 346.216256 
L 478.76378 346.50173 
L 479.039176 365.616426 
L 479.304348 282.246524 
L 479.567945 300.410558 
L 479.83361 366.308128 
L 480.099276 348.968483 
L 480.422303 364.842593 
L 480.692672 336.930768 
L 481.265223 368.578726 
L 481.588142 328.214213 
L 481.857549 338.41501 
L 482.12574 339.933163 
L 482.390299 368.537222 
L 482.657732 358.696212 
L 483.197639 360.277712 
L 483.463509 353.663637 
L 483.730895 351.520037 
L 483.99893 368.543527 
L 484.266676 320.236454 
L 484.533556 322.281821 
L 484.801231 335.911424 
L 485.117005 368.484918 
L 485.439275 362.730206 
L 485.710738 355.426306 
L 485.980553 319.411072 
L 486.250104 368.51471 
L 486.518139 321.388415 
L 486.785175 339.726927 
L 487.052405 368.507447 
L 487.436571 322.839533 
L 488.838174 368.704661 
L 489.107664 352.717645 
L 489.376818 359.105939 
L 489.645418 368.170024 
L 489.920562 344.612496 
L 490.224621 358.878312 
L 490.49256 326.603219 
L 490.761256 366.722757 
L 491.12465 352.6014 
L 491.424716 359.153294 
L 491.691849 344.500591 
L 491.960546 368.423491 
L 492.501776 318.029502 
L 493.035933 362.900167 
L 493.302609 340.433233 
L 493.570644 333.728084 
L 493.838439 368.759475 
L 494.107484 361.845945 
L 494.643819 368.39014 
L 494.911192 339.306985 
L 495.177675 365.748484 
L 495.444748 342.979241 
L 495.718845 366.287298 
L 496.327818 347.748475 
L 496.595865 352.098006 
L 496.865319 367.757221 
L 497.131538 354.270146 
L 497.403314 346.329445 
L 497.673117 366.917466 
L 497.943377 353.314608 
L 498.745978 368.545084 
L 499.01755 356.991585 
L 499.288917 323.916077 
L 499.570724 368.288614 
L 500.151959 333.955746 
L 500.698578 367.745213 
L 500.965663 329.327341 
L 501.503309 348.059771 
L 501.771247 367.472172 
L 502.036756 350.474698 
L 502.303685 354.40418 
L 502.570974 368.71915 
L 502.839358 354.850443 
L 503.110725 354.239717 
L 503.380684 367.523335 
L 503.924633 361.976047 
L 504.195554 329.457057 
L 504.462326 367.51148 
L 504.730818 361.605472 
L 504.997602 362.623613 
L 505.265385 367.266282 
L 505.801359 349.137234 
L 506.070512 368.331573 
L 506.367908 349.724513 
L 506.688927 360.040261 
L 506.95873 318.626074 
L 507.225454 365.862587 
L 507.494608 339.519782 
L 507.760778 355.675231 
L 508.336866 368.886598 
L 508.872491 352.958422 
L 509.145169 362.235116 
L 509.485757 367.040939 
L 509.833755 338.81441 
L 510.104665 367.999446 
L 510.372905 329.493035 
L 510.640747 368.210126 
L 510.907218 342.945136 
L 511.171982 358.648487 
L 511.439415 336.068062 
L 511.705189 368.414065 
L 511.969796 367.248495 
L 512.356898 357.20305 
L 512.642987 297.631996 
L 512.90775 366.914003 
L 513.170396 352.748026 
L 513.698095 252.658716 
L 513.961343 368.366402 
L 514.244966 350.427432 
L 514.515226 362.143934 
L 514.78266 367.448501 
L 515.067703 293.203367 
L 515.331408 285.635782 
L 515.91571 367.729719 
L 516.203832 307.697131 
L 516.488719 355.281435 
L 516.761144 265.201909 
L 517.026509 368.303971 
L 517.565309 254.216994 
L 517.828509 366.380072 
L 518.407423 272.515593 
L 518.682074 338.043213 
L 518.959334 367.876844 
L 519.223592 324.133155 
L 519.484819 339.607125 
L 519.750749 368.146482 
L 520.013685 320.655551 
L 520.277943 302.890889 
L 520.542898 366.592984 
L 520.807361 342.142415 
L 521.072473 336.406945 
L 521.338752 282.832506 
L 521.605981 368.559459 
L 522.496869 313.114569 
L 522.763148 367.818989 
L 523.045052 280.920386 
L 523.347403 367.023584 
L 523.612214 337.674535 
L 523.885854 368.628955 
L 524.173664 305.830232 
L 524.436755 364.053429 
L 524.767457 316.402762 
L 525.029802 368.280488 
L 525.295973 300.667421 
L 525.824838 368.175663 
L 526.090047 233.394031 
L 526.355062 308.389686 
L 526.617853 313.192018 
L 526.88246 366.666143 
L 527.148078 312.479678 
L 527.412528 304.819847 
L 527.676137 367.401626 
L 527.941502 275.400957 
L 528.203739 346.885628 
L 528.467287 368.711462 
L 528.728719 313.948851 
L 528.992219 329.730688 
L 529.252737 369.36 
L 529.779581 312.832914 
L 530.111437 335.77065 
L 530.393954 367.831671 
L 530.721926 297.221453 
L 530.985931 293.270695 
L 531.24984 366.210844 
L 531.513136 365.238463 
L 531.933327 355.31744 
L 532.232142 276.099622 
L 532.496449 351.983477 
L 532.759648 306.74722 
L 533.021826 367.716933 
L 533.287046 292.654085 
L 533.559976 312.890592 
L 533.822719 366.362756 
L 534.092775 357.668177 
L 534.355517 318.49689 
L 534.61927 366.643976 
L 534.882771 323.815781 
L 535.146115 305.644728 
L 535.408051 310.93697 
L 535.670938 368.2744 
L 535.936808 320.886013 
L 536.199551 254.148055 
L 536.46411 368.115554 
L 536.726648 285.749339 
L 537.253998 367.976779 
L 537.517955 338.779589 
L 537.781912 343.259409 
L 538.047879 367.488241 
L 538.319594 317.730218 
L 538.584358 317.263273 
L 538.847906 350.203807 
L 539.557686 368.728328 
L 540.106121 331.921844 
L 540.624642 336.439164 
L 541.053109 347.00975 
L 541.782711 321.143116 
L 542.053585 327.83461 
L 542.318036 344.552322 
L 543.03745 366.522151 
L 543.655408 338.062585 
L 543.919919 335.262493 
L 544.195928 361.530489 
L 544.473141 366.312539 
L 544.738818 351.514784 
L 545.003473 367.427143 
L 545.267479 368.210404 
L 545.53294 335.308865 
L 545.797956 367.677947 
L 546.062719 336.651649 
L 546.329443 366.847941 
L 546.6001 362.320789 
L 546.867991 326.734452 
L 547.133608 367.50416 
L 547.401703 350.906638 
L 547.669185 347.693402 
L 547.934141 367.908295 
L 548.995456 352.222389 
L 549.664473 357.814335 
L 550.052428 354.030732 
L 550.327379 359.231148 
L 550.60227 368.303494 
L 550.876921 353.41357 
L 551.150212 367.067513 
L 552.229737 360.107146 
L 552.503317 361.26476 
L 552.773734 368.727807 
L 553.319246 362.533218 
L 553.635766 367.874758 
L 553.942291 359.599871 
L 554.268146 367.668983 
L 554.541689 359.228837 
L 554.892815 355.806389 
L 555.165445 368.802333 
L 555.440348 366.735916 
L 555.714385 367.591973 
L 557.311324 365.105882 
L 557.694637 363.868274 
L 558.266695 356.375802 
L 560.656133 368.845642 
L 563.167415 359.173825 
L 563.535199 360.892981 
L 563.820242 365.208457 
L 564.097106 361.387857 
L 564.380934 367.311509 
L 564.684091 368.717949 
L 565.091676 364.015905 
L 565.376659 368.636542 
L 565.652717 367.459283 
L 565.92792 352.674361 
L 566.39353 365.878485 
L 566.663838 350.266717 
L 566.931668 368.197518 
L 567.197442 361.136106 
L 567.463456 306.298738 
L 567.728929 298.919438 
L 567.992622 368.031625 
L 568.25492 357.278691 
L 568.517963 229.011346 
L 568.780549 368.24397 
L 569.044146 306.300118 
L 569.310425 321.836403 
L 569.614989 366.950582 
L 569.881004 339.717537 
L 570.406994 244.670128 
L 570.671601 366.697865 
L 570.935558 75.653825 
L 571.251826 183.678955 
L 571.513811 366.098407 
L 571.776301 95.264218 
L 572.042075 332.026851 
L 572.317375 364.241434 
L 572.582283 287.65548 
L 572.865305 244.252824 
L 573.126736 351.734683 
L 573.389383 367.151013 
L 573.757059 366.396845 
L 574.023325 210.111733 
L 574.28436 321.959236 
L 574.545082 368.140118 
L 574.80762 356.872329 
L 575.069449 297.944924 
L 575.341429 367.644443 
L 575.604063 181.339299 
L 575.869187 357.812045 
L 576.179549 184.358427 
L 576.501422 366.68955 
L 576.7639 190.869593 
L 577.028158 157.405482 
L 577.292717 363.105109 
L 577.780975 327.931249 
L 578.043718 260.347456 
L 578.321388 366.763296 
L 578.602642 180.133478 
L 578.865384 349.428339 
L 579.12939 353.387464 
L 579.410042 365.578728 
L 579.686353 366.188803 
L 579.947532 78.500208 
L 580.206846 367.9693 
L 580.469986 319.02967 
L 580.731213 242.844755 
L 580.997395 365.843067 
L 581.261642 345.274801 
L 581.523326 249.13388 
L 581.784204 365.965059 
L 582.045984 277.455743 
L 582.834609 367.836152 
L 583.095993 204.700455 
L 583.360094 353.643537 
L 583.622031 366.376552 
L 583.884172 267.126068 
L 584.143234 274.683606 
L 584.405111 366.831627 
L 584.930187 156.258718 
L 585.195865 366.511003 
L 585.458956 303.019431 
L 586.01895 347.996293 
L 586.792191 346.62547 
L 587.087012 308.005393 
L 587.350922 330.530893 
L 587.621579 334.790275 
L 587.925939 324.697858 
L 588.189993 368.116718 
L 588.453601 271.860854 
L 589.08835 356.066963 
L 589.353619 368.351796 
L 589.628221 239.003556 
L 589.893032 359.572353 
L 590.166516 368.354878 
L 590.651382 307.833467 
L 590.914738 368.422138 
L 591.178179 297.361224 
L 591.441535 354.399424 
L 591.812278 280.62565 
L 592.075273 368.384742 
L 592.393056 347.577836 
L 592.656665 288.711297 
L 592.920562 366.643946 
L 593.183955 368.728902 
L 593.448513 259.623989 
L 593.711412 342.087795 
L 594.084032 312.268306 
L 594.347123 367.883604 
L 594.609313 350.888165 
L 594.870997 263.062898 
L 595.134293 304.282326 
L 595.397132 368.403854 
L 595.660428 295.926433 
L 595.92459 260.835335 
L 596.19141 366.72891 
L 596.453046 268.932649 
L 596.766294 336.374827 
L 597.028327 366.942492 
L 597.292682 367.973284 
L 597.556435 286.560627 
L 597.822148 340.70242 
L 598.159153 367.783831 
L 598.42643 366.043027 
L 598.776858 307.798417 
L 599.039396 319.75399 
L 599.302042 361.241216 
L 599.56529 284.397711 
L 599.828887 346.578113 
L 600.109431 319.359683 
L 600.397553 366.353688 
L 600.659441 326.215551 
L 600.993162 332.721549 
L 601.312858 267.466572 
L 601.594064 286.673958 
L 601.85742 366.52931 
L 602.208293 294.048494 
L 602.46982 273.473108 
L 602.753853 364.749445 
L 603.041217 366.884802 
L 603.304056 350.999086 
L 603.879037 368.239182 
L 604.140216 362.4684 
L 604.402249 350.909811 
L 604.664835 364.077566 
L 604.944429 367.944108 
L 605.283454 334.849513 
L 605.687347 346.655929 
L 605.951004 346.851114 
L 606.212784 297.463052 
L 606.574061 368.639327 
L 606.837405 333.310753 
L 607.242116 347.040889 
L 607.511113 310.948589 
L 607.780868 310.112923 
L 608.040327 368.134592 
L 608.304477 344.040565 
L 608.617016 360.0119 
L 608.946202 281.978271 
L 609.402718 347.746605 
L 609.665256 243.481937 
L 610.015479 351.126577 
L 610.30834 366.924025 
L 610.570169 262.655435 
L 610.832154 243.523453 
L 611.335796 362.524613 
L 611.596975 308.511458 
L 611.859056 366.460404 
L 612.243896 339.265005 
L 612.510873 332.099736 
L 612.774012 331.562289 
L 613.035901 314.118835 
L 613.297982 368.507921 
L 613.559618 361.926225 
L 614.225303 301.244622 
L 614.488503 363.81926 
L 614.751185 365.370598 
L 615.02064 308.756348 
L 615.328187 268.764222 
L 615.591483 367.788712 
L 615.911985 288.199718 
L 616.180585 283.772175 
L 616.583022 367.872934 
L 616.846114 300.844003 
L 617.108808 365.598761 
L 617.374426 343.174735 
L 617.63777 293.120048 
L 617.906719 366.506062 
L 618.259312 332.917579 
L 618.521489 360.274515 
L 618.791196 281.623835 
L 619.061059 367.244536 
L 619.324499 265.878911 
L 619.586845 273.300978 
L 620.113942 368.621831 
L 620.63968 284.347903 
L 621.022331 286.177386 
L 621.284869 368.51093 
L 621.547215 272.486151 
L 621.810559 304.964388 
L 622.073758 368.54903 
L 622.336345 276.404764 
L 622.599544 251.500646 
L 622.862792 368.458336 
L 623.125727 356.648855 
L 623.389588 247.519186 
L 623.65268 368.332947 
L 623.915976 364.600937 
L 624.178165 277.087739 
L 624.503358 306.042383 
L 624.766858 367.974735 
L 625.028891 266.846566 
L 625.291634 294.47699 
L 625.554785 369.287595 
L 625.852794 293.289475 
L 626.370197 251.972597 
L 626.63158 368.001848 
L 626.893469 203.171127 
L 627.155598 235.515687 
L 627.417186 364.852834 
L 627.747731 328.524694 
L 628.010269 320.125189 
L 628.271196 223.323589 
L 628.535755 367.29877 
L 628.945854 275.694045 
L 629.207334 344.18787 
L 629.469679 176.455363 
L 629.730654 366.601843 
L 629.992639 223.526103 
L 630.292308 258.873327 
L 630.560956 222.167464 
L 630.821377 368.81398 
L 631.083867 203.892656 
L 631.367346 363.079975 
L 631.665957 367.965197 
L 632.189421 327.040346 
L 632.451454 367.765327 
L 632.90459 188.332987 
L 633.16708 366.444457 
L 633.488653 290.336549 
L 633.752598 361.251647 
L 634.0167 361.05847 
L 634.278179 364.250929 
L 634.54512 331.658405 
L 634.850995 211.569479 
L 635.113738 366.606205 
L 635.377383 251.971035 
L 635.658288 288.086708 
L 635.984647 360.633287 
L 636.247233 266.180055 
L 636.560278 366.59998 
L 636.824031 276.220229 
L 637.176624 266.518414 
L 637.438404 215.078276 
L 637.729954 367.083836 
L 638.07901 237.439817 
L 638.530787 281.941291 
L 638.792928 365.803078 
L 639.054913 330.647674 
L 639.363255 267.660932 
L 639.629786 366.602614 
L 639.990606 288.822834 
L 640.394355 337.509188 
L 640.656833 287.849556 
L 640.961096 199.852154 
L 641.250529 211.698514 
L 641.656443 272.621937 
L 641.917874 366.39011 
L 642.260484 352.90833 
L 642.521109 309.231633 
L 642.808161 292.010205 
L 643.083665 367.566191 
L 643.345903 234.582087 
L 643.675642 207.009799 
L 643.93788 300.753461 
L 644.283364 269.994573 
L 644.562705 365.174305 
L 644.878107 164.798475 
L 645.17163 240.136286 
L 645.434625 165.857783 
L 645.696453 365.911277 
L 646.259178 261.596365 
L 646.524542 366.347268 
L 646.836119 227.548703 
L 647.102795 192.50452 
L 647.369928 216.222303 
L 647.909787 366.345794 
L 648.180697 214.555439 
L 648.443596 367.44594 
L 648.725703 267.721783 
L 649.071645 359.360199 
L 649.332006 311.693719 
L 649.593846 353.884746 
L 649.855975 365.665671 
L 650.115398 288.23369 
L 650.377576 302.171638 
L 650.638803 365.209549 
L 650.898622 241.789441 
L 651.160559 332.364749 
L 651.957664 340.387275 
L 652.219444 367.292936 
L 652.482139 271.802325 
L 652.743775 260.454297 
L 653.273337 368.627649 
L 653.534817 195.951829 
L 654.059196 368.472685 
L 654.596986 222.846751 
L 654.858971 368.073031 
L 655.215906 353.503691 
L 655.484494 194.23354 
L 655.882036 266.47294 
L 656.142962 342.964792 
L 656.404141 368.106011 
L 656.926246 156.161876 
L 657.188436 236.602951 
L 657.450012 365.717377 
L 657.711804 226.561278 
L 658.040425 359.440901 
L 658.30277 368.599271 
L 658.5649 239.24307 
L 658.826692 194.596067 
L 659.087715 210.058132 
L 659.706983 365.419771 
L 659.970279 128.942948 
L 660.495716 368.018596 
L 660.757448 365.862569 
L 661.017966 269.356703 
L 661.278796 368.048474 
L 661.543355 206.389813 
L 662.072569 360.144204 
L 662.442518 325.5855 
L 662.705357 322.735918 
L 662.967041 268.602196 
L 663.239515 368.27806 
L 663.502113 150.454818 
L 663.78659 225.767647 
L 664.156696 252.160282 
L 664.417671 237.844327 
L 664.681171 364.8772 
L 664.942699 157.629603 
L 665.206295 158.886794 
L 665.470349 366.966895 
L 665.733549 176.431204 
L 666.259238 365.366839 
L 666.52334 344.220321 
L 666.785626 278.501729 
L 667.049379 367.680564 
L 667.576981 162.521109 
L 668.102262 365.556669 
L 668.364295 335.409451 
L 668.64686 188.826583 
L 668.90935 360.464748 
L 669.521413 298.103864 
L 669.787127 244.432522 
L 670.050074 366.329378 
L 670.35459 362.426942 
L 670.617273 302.223514 
L 671.013961 366.883664 
L 671.276812 286.110817 
L 671.538339 366.934428 
L 671.800372 248.033811 
L 672.063873 284.157623 
L 672.330958 364.906401 
L 672.595107 334.732515 
L 672.911784 266.247203 
L 673.174876 278.128663 
L 673.464561 368.068119 
L 673.7274 274.619085 
L 674.038123 254.529561 
L 674.297835 248.06246 
L 674.564967 368.04513 
L 675.177019 210.933535 
L 675.545706 356.648736 
L 675.808352 269.0596 
L 676.06917 367.400099 
L 676.414799 300.213902 
L 676.675773 272.20092 
L 676.937108 367.398002 
L 677.228298 217.394725 
L 677.522578 314.357103 
L 677.783396 284.211605 
L 678.045237 366.636749 
L 678.33325 220.288558 
L 678.671566 267.050333 
L 678.933298 224.40524 
L 679.195078 366.22501 
L 679.717797 334.336661 
L 679.978266 363.958048 
L 680.23823 301.09122 
L 680.499506 308.465104 
L 680.764113 365.971189 
L 681.027818 181.071391 
L 681.441862 335.704184 
L 681.702981 259.84296 
L 681.965675 332.854707 
L 682.267461 366.21076 
L 682.528243 340.814784 
L 682.789567 265.216966 
L 683.074056 234.38979 
L 683.335331 364.710492 
L 683.871618 161.493678 
L 684.187128 365.310836 
L 684.450267 236.998858 
L 684.711555 232.72267 
L 685.041595 210.276593 
L 685.757678 277.281824 
L 686.018652 368.360864 
L 686.282706 270.676515 
L 686.544739 298.686815 
L 686.808889 366.556676 
L 687.121789 361.507498 
L 687.384832 220.14639 
L 687.646107 234.735552 
L 688.22027 342.8684 
L 688.482568 312.175933 
L 688.746056 368.296863 
L 689.022776 193.95907 
L 689.312461 215.355459 
L 689.632915 222.39794 
L 689.895958 368.657268 
L 690.288665 291.420676 
L 690.549639 368.815209 
L 690.811215 245.77088 
L 691.196043 288.305397 
L 691.459796 289.395191 
L 691.722286 367.426129 
L 691.98397 241.200442 
L 692.303221 264.298311 
L 692.609542 355.324332 
L 692.871178 368.162811 
L 693.136037 256.932263 
L 693.397673 301.344663 
L 693.658492 368.741812 
L 693.921042 243.147024 
L 694.183832 343.143781 
L 694.449895 368.271877 
L 694.710929 208.924417 
L 694.972157 319.020311 
L 695.234743 260.396395 
L 695.498243 363.860414 
L 695.761395 210.520984 
L 696.28617 367.480313 
L 696.855847 258.365233 
L 697.123738 369.129196 
L 697.386781 333.78721 
L 697.64891 221.822626 
L 697.910245 361.349821 
L 698.173289 368.3838 
L 698.441685 239.847554 
L 698.704163 190.126881 
L 698.966304 368.25653 
L 699.22824 217.538706 
L 699.490622 162.761191 
L 699.7512 367.798184 
L 700.025802 288.361813 
L 700.329404 269.239328 
L 700.592953 281.17423 
L 700.887125 363.940286 
L 701.156423 363.005214 
L 701.434658 259.803225 
L 701.700275 366.631114 
L 702.192058 294.22247 
L 702.575984 367.722947 
L 702.900671 333.037275 
L 703.325505 354.728254 
L 703.612773 317.280655 
L 703.918348 366.184447 
L 704.194454 255.060021 
L 704.489636 202.426939 
L 704.752523 332.347832 
L 705.023084 365.279962 
L 705.377746 250.647127 
L 705.739925 334.529925 
L 706.017558 223.097738 
L 706.602318 368.655208 
L 706.950665 212.129504 
L 707.214021 236.432001 
L 707.474635 319.598431 
L 707.737329 367.912293 
L 708.002742 360.787116 
L 708.264583 288.518476 
L 708.552897 292.64528 
L 708.818069 365.847156 
L 709.080559 254.387 
L 709.34264 263.095066 
L 709.766921 292.496382 
L 710.029206 367.0135 
L 710.29326 274.946014 
L 710.555606 303.069575 
L 710.816977 367.149475 
L 711.133353 320.980476 
L 711.398056 333.567149 
L 711.882935 304.063517 
L 712.144968 351.579582 
L 712.406904 286.719139 
L 712.669743 366.019318 
L 712.933592 344.51774 
L 713.327309 255.626161 
L 713.594791 294.058084 
L 713.883466 235.156086 
L 714.194682 366.958629 
L 714.506368 356.287324 
L 714.819051 367.431511 
L 715.416128 227.960977 
L 715.722953 368.507915 
L 715.98726 277.543812 
L 716.278966 312.831629 
L 716.54332 368.084988 
L 717.077526 245.696952 
L 717.432945 291.968534 
L 717.696747 366.134796 
L 718.008384 259.933994 
L 718.33686 291.677787 
L 718.649495 197.667385 
L 718.968337 306.472312 
L 719.231585 232.979908 
L 719.580136 367.310777 
L 719.896356 320.58688 
L 720.166255 209.876189 
L 720.461342 345.810389 
L 720.773628 367.612895 
L 721.095297 293.403319 
L 721.402327 367.989822 
L 721.821158 286.269005 
L 722.084202 204.035601 
L 722.347606 333.718289 
L 722.614631 364.780371 
L 723.227392 296.331031 
L 723.489581 168.962326 
L 723.793292 368.978643 
L 724.200011 343.510596 
L 724.518095 305.920609 
L 724.779635 295.590416 
L 725.085703 327.966904 
L 725.349107 328.686741 
L 725.747106 270.954763 
L 726.012014 366.423987 
L 726.335847 267.927271 
L 726.872988 293.252438 
L 727.21917 366.087961 
L 727.496803 293.15392 
L 727.759137 257.102608 
L 728.047355 253.054799 
L 728.310254 366.433441 
L 728.574404 298.482728 
L 728.835378 271.826541 
L 729.099841 367.060587 
L 729.422664 277.208774 
L 729.685058 349.793599 
L 729.987554 339.9849 
L 730.297206 277.75286 
L 730.602985 366.894949 
L 730.888425 280.591705 
L 731.151925 358.629533 
L 731.528731 236.749473 
L 731.871136 293.83794 
L 732.135237 365.800295 
L 732.39798 268.131855 
L 732.718999 286.66555 
L 732.986529 365.327258 
L 733.314452 365.652242 
L 733.646212 342.520634 
L 733.91284 343.940682 
L 734.179107 362.654847 
L 734.443317 313.37693 
L 734.742529 367.644179 
L 735.333952 317.847418 
L 735.82387 350.17916 
L 736.217322 349.646017 
L 736.488184 344.297104 
L 736.803802 340.875811 
L 737.073966 367.666261 
L 737.342711 347.939912 
L 737.611047 343.66152 
L 737.87848 350.38482 
L 738.148644 367.175322 
L 738.417641 352.013365 
L 738.690067 342.964639 
L 738.95916 367.825425 
L 739.226245 359.601461 
L 739.494136 357.570143 
L 739.778866 343.498866 
L 740.177226 368.24148 
L 740.445718 331.666429 
L 740.711479 321.237525 
L 741.2523 367.117853 
L 741.51989 360.959822 
L 741.787829 331.422965 
L 742.328746 368.172756 
L 742.59956 352.452433 
L 742.867703 345.514267 
L 743.151531 368.417083 
L 743.472346 360.903148 
L 743.743255 327.91854 
L 744.014923 338.921788 
L 744.324984 367.346452 
L 744.6687 353.567301 
L 744.935929 361.312991 
L 745.20655 339.830693 
L 745.475644 359.614013 
L 745.744088 368.61938 
L 746.072107 364.575547 
L 746.348429 349.881918 
L 746.619748 366.88295 
L 746.892474 361.246138 
L 747.163636 359.915078 
L 747.163636 359.915078 
" clip-path="url(#p0363f63a10)" style="fill: none; stroke: #1f77b4; stroke-width: 1.5; stroke-linecap: square"/>
   </g>
   <g id="patch_3">
    <path d="M 108 384.48 
L 108 51.84 
" style="fill: none; stroke: #000000; stroke-width: 0.8; stroke-linejoin: miter; stroke-linecap: square"/>
   </g>
   <g id="patch_4">
    <path d="M 777.6 384.48 
L 777.6 51.84 
" style="fill: none; stroke: #000000; stroke-width: 0.8; stroke-linejoin: miter; stroke-linecap: square"/>
   </g>
   <g id="patch_5">
    <path d="M 108 384.48 
L 777.6 384.48 
" style="fill: none; stroke: #000000; stroke-width: 0.8; stroke-linejoin: miter; stroke-linecap: square"/>
   </g>
   <g id="patch_6">
    <path d="M 108 51.84 
L 777.6 51.84 
" style="fill: none; stroke: #000000; stroke-width: 0.8; stroke-linejoin: miter; stroke-linecap: square"/>
   </g>
   <g id="text_19">
    <!-- Total CPU Power Consumption over Time -->
    <g transform="translate(321.119063 45.84) scale(0.12 -0.12)">
     <defs>
      <path id="DejaVuSans-76" d="M 191 3500 
L 800 3500 
L 1894 563 
L 2988 3500 
L 3597 3500 
L 2284 0 
L 1503 0 
L 191 3500 
z
" transform="scale(0.015625)"/>
     </defs>
     <use xlink:href="#DejaVuSans-54"/>
     <use xlink:href="#DejaVuSans-6f" x="44.083984"/>
     <use xlink:href="#DejaVuSans-74" x="105.265625"/>
     <use xlink:href="#DejaVuSans-61" x="144.474609"/>
     <use xlink:href="#DejaVuSans-6c" x="205.753906"/>
     <use xlink:href="#DejaVuSans-20" x="233.537109"/>
     <use xlink:href="#DejaVuSans-43" x="265.324219"/>
     <use xlink:href="#DejaVuSans-50" x="335.148438"/>
     <use xlink:href="#DejaVuSans-55" x="395.451172"/>
     <use xlink:href="#DejaVuSans-20" x="468.644531"/>
     <use xlink:href="#DejaVuSans-50" x="500.431641"/>
     <use xlink:href="#DejaVuSans-6f" x="557.109375"/>
     <use xlink:href="#DejaVuSans-77" x="618.291016"/>
     <use xlink:href="#DejaVuSans-65" x="700.078125"/>
     <use xlink:href="#DejaVuSans-72" x="761.601562"/>
     <use xlink:href="#DejaVuSans-20" x="802.714844"/>
     <use xlink:href="#DejaVuSans-43" x="834.501953"/>
     <use xlink:href="#DejaVuSans-6f" x="904.326172"/>
     <use xlink:href="#DejaVuSans-6e" x="965.507812"/>
     <use xlink:href="#DejaVuSans-73" x="1028.886719"/>
     <use xlink:href="#DejaVuSans-75" x="1080.986328"/>
     <use xlink:href="#DejaVuSans-6d" x="1144.365234"/>
     <use xlink:href="#DejaVuSans-70" x="1241.777344"/>
     <use xlink:href="#DejaVuSans-74" x="1305.253906"/>
     <use xlink:href="#DejaVuSans-69" x="1344.462891"/>
     <use xlink:href="#DejaVuSans-6f" x="1372.246094"/>
     <use xlink:href="#DejaVuSans-6e" x="1433.427734"/>
     <use xlink:href="#DejaVuSans-20" x="1496.806641"/>
     <use xlink:href="#DejaVuSans-6f" x="1528.59375"/>
     <use xlink:href="#DejaVuSans-76" x="1589.775391"/>
     <use xlink:href="#DejaVuSans-65" x="1648.955078"/>
     <use xlink:href="#DejaVuSans-72" x="1710.478516"/>
     <use xlink:href="#DejaVuSans-20" x="1751.591797"/>
     <use xlink:href="#DejaVuSans-54" x="1783.378906"/>
     <use xlink:href="#DejaVuSans-69" x="1841.337891"/>
     <use xlink:href="#DejaVuSans-6d" x="1869.121094"/>
     <use xlink:href="#DejaVuSans-65" x="1966.533203"/>
    </g>
   </g>
  </g>
 </g>
 <defs>
  <clipPath id="p0363f63a10">
   <rect x="108" y="51.84" width="669.6" height="332.64"/>
  </clipPath>
 </defs>
</svg>
